<?xml version="1.0" standalone="no"?>
<!DOCTYPE svg PUBLIC "-//W3C//DTD SVG 1.1//EN" "http://www.w3.org/Graphics/SVG/1.1/DTD/svg11.dtd" >
<svg>
<metadata>
Created by FontForge 20090622 at Fri Jun 26 09:17:52 2020
 By deploy user
&#194;&#169; 2020 Wahyu &#38; Sani Co. All Rights Reserved.
</metadata>
<defs>
<font id="Goldbill-XLLight" horiz-adv-x="1366" >
  <font-face 
    font-family="Goldbill XL Light"
    font-weight="300"
    font-stretch="normal"
    units-per-em="2048"
    panose-1="0 0 4 0 0 0 0 0 0 0"
    ascent="1638"
    descent="-410"
    x-height="1013"
    cap-height="1449"
    bbox="-1067 -441 2704 1942"
    underline-thickness="50"
    underline-position="0"
    unicode-range="U+0020-U+FB04"
  />
<missing-glyph horiz-adv-x="1024" 
d="M96 1449h832v-1449h-832v1449zM887 36v1377h-750v-1377h750z" />
    <glyph glyph-name="ff" unicode="ff" horiz-adv-x="1218" 
d="M69 934v79h182v164q0 82 35 143.5t97 95t141 33.5h64v-79h-54q-57 0 -100.5 -25.5t-67.5 -69.5t-24 -98v-164h246v-79h-246v-934h-91v934h-182zM633 934v79h182v164q0 82 34.5 143.5t96.5 95t142 33.5h64v-79h-54q-57 0 -101 -25.5t-68 -69.5t-24 -98v-164h247v-79h-247
v-934h-90v934h-182z" />
    <glyph glyph-name="ffi" unicode="ffi" horiz-adv-x="1613" 
d="M69 934v79h182v164q0 82 35 143.5t97 95t141 33.5h64v-79h-54q-57 0 -100.5 -25.5t-67.5 -69.5t-24 -98v-164h246v-79h-246v-934h-91v934h-182zM633 934v79h182v164q0 82 34.5 143.5t96.5 95t142 33.5h64v-79h-54q-57 0 -101 -25.5t-68 -69.5t-24 -98v-164h247v-79h-247
v-934h-90v934h-182zM1326.5 1278.5q-22.5 22.5 -22.5 57.5q0 36 23 58t58 22t57.5 -22.5t22.5 -57.5t-22.5 -57.5t-57.5 -22.5q-36 0 -58.5 22.5zM1340 1013h90v-1013h-90v1013z" />
    <glyph glyph-name="ffl" unicode="ffl" horiz-adv-x="1649" 
d="M69 934v79h182v164q0 82 35 143.5t97 95t141 33.5h64v-79h-54q-57 0 -100.5 -25.5t-67.5 -69.5t-24 -98v-164h246v-79h-246v-934h-91v934h-182zM633 934v79h182v164q0 82 34.5 143.5t96.5 95t142 33.5h64v-79h-54q-57 0 -101 -25.5t-68 -69.5t-24 -98v-164h247v-79h-247
v-934h-90v934h-182zM1351 1449h90v-1449h-90v1449z" />
    <glyph glyph-name="fi" unicode="fi" horiz-adv-x="1049" 
d="M69 934v79h182v164q0 82 35 143.5t97 95t141 33.5h64v-79h-54q-57 0 -100.5 -25.5t-67.5 -69.5t-24 -98v-164h246v-79h-246v-934h-91v934h-182zM763.5 1278.5q-22.5 22.5 -22.5 57.5q0 36 23 58t57 22q36 0 58.5 -22.5t22.5 -57.5t-23 -57.5t-58 -22.5t-57.5 22.5z
M776 1013h90v-1013h-90v1013z" />
    <glyph glyph-name="fl" unicode="fl" horiz-adv-x="1085" 
d="M69 934v79h182v164q0 82 35 143.5t97 95t141 33.5h64v-79h-54q-57 0 -100.5 -25.5t-67.5 -69.5t-24 -98v-164h246v-79h-246v-934h-91v934h-182zM787 1449h90v-1449h-90v1449z" />
    <glyph glyph-name=".notdef" horiz-adv-x="1024" 
d="M96 1449h832v-1449h-832v1449zM887 36v1377h-750v-1377h750z" />
    <glyph glyph-name="NULL" horiz-adv-x="600" 
 />
    <glyph glyph-name="space" unicode=" " horiz-adv-x="521" 
 />
    <glyph glyph-name="space" unicode="&#xa0;" horiz-adv-x="521" 
 />
    <glyph glyph-name="A" unicode="A" horiz-adv-x="1354" 
d="M628 1449h103l595 -1449h-107l-168 412h-743l-169 -412h-106zM1020 497l-329 798l-12 41l-12 -41l-329 -798h682z" />
    <glyph glyph-name="Aacute" unicode="&#xc1;" horiz-adv-x="1354" 
d="M572 1642l252 300l71 -38l-276 -293zM628 1449h103l595 -1449h-107l-168 412h-743l-169 -412h-106zM1020 497l-329 798l-12 41l-12 -41l-329 -798h682z" />
    <glyph glyph-name="Abreve" unicode="&#x102;" horiz-adv-x="1354" 
d="M534.5 1674.5q-64.5 39.5 -101 105t-36.5 140.5h58q0 -62 31 -112t82.5 -78.5t109.5 -28.5q63 0 114 30t80 80.5t29 108.5h60q0 -80 -39 -145.5t-104 -102.5t-140 -37q-79 0 -143.5 39.5zM628 1449h103l595 -1449h-107l-168 412h-743l-169 -412h-106zM1020 497l-329 798
l-12 41l-12 -41l-329 -798h682z" />
    <glyph glyph-name="Acircumflex" unicode="&#xc2;" horiz-adv-x="1354" 
d="M400 1652l235 280h88l236 -280l-47 -32l-232 252l-233 -252zM628 1449h103l595 -1449h-107l-168 412h-743l-169 -412h-106zM1020 497l-329 798l-12 41l-12 -41l-329 -798h682z" />
    <glyph glyph-name="Adieresis" unicode="&#xc4;" horiz-adv-x="1354" 
d="M462 1721q-21 21 -21 54t21 54t54 21q34 0 55 -21t21 -54t-21.5 -54t-54.5 -21t-54 21zM789 1721q-21 21 -21 54q0 34 21.5 54.5t53.5 20.5q34 0 55 -21t21 -54t-21.5 -54t-54.5 -21t-54 21zM628 1449h103l595 -1449h-107l-168 412h-743l-169 -412h-106zM1020 497
l-329 798l-12 41l-12 -41l-329 -798h682z" />
    <glyph glyph-name="Agrave" unicode="&#xc0;" horiz-adv-x="1354" 
d="M464 1904l72 38l252 -300l-47 -31zM628 1449h103l595 -1449h-107l-168 412h-743l-169 -412h-106zM1020 497l-329 798l-12 41l-12 -41l-329 -798h682z" />
    <glyph glyph-name="Amacron" unicode="&#x100;" horiz-adv-x="1354" 
d="M394 1810h572v-64h-572v64zM628 1449h103l595 -1449h-107l-168 412h-743l-169 -412h-106zM1020 497l-329 798l-12 41l-12 -41l-329 -798h682z" />
    <glyph glyph-name="Aogonek" unicode="&#x104;" horiz-adv-x="1354" 
d="M1171 -421q-43 20 -68.5 58t-25.5 88q0 75 53 129l140 146h-51l-168 412h-743l-169 -412h-106l595 1449h103l595 -1449l-158 -186q-31 -37 -31 -85q0 -52 38 -83t92 -31q79 0 119 72l25 -61q-57 -67 -145 -67q-52 0 -95 20zM1020 497l-329 798l-12 41l-12 -41l-329 -798
h682z" />
    <glyph glyph-name="Aring" unicode="&#xc5;" horiz-adv-x="1354" 
d="M582.5 1589q-43.5 26 -68 70t-24.5 94q0 52 25.5 95t69 68.5t95.5 25.5t95.5 -25.5t69 -69t25.5 -94.5q0 -54 -26.5 -97.5t-70 -68t-93.5 -24.5q-54 0 -97.5 26zM748 1636.5q31 18.5 48.5 49.5t17.5 67q0 37 -18.5 68t-49.5 48.5t-66 17.5q-38 0 -69 -18.5t-48.5 -49
t-17.5 -66.5q0 -37 18.5 -68t49.5 -49t67 -18q37 0 68 18.5zM628 1449h103l595 -1449h-107l-168 412h-743l-169 -412h-106zM1020 497l-329 798l-12 41l-12 -41l-329 -798h682z" />
    <glyph glyph-name="Atilde" unicode="&#xc3;" horiz-adv-x="1354" 
d="M741 1705.5q-30 12.5 -75 43.5q-40 27 -63.5 37.5t-51.5 10.5q-36 0 -65 -22t-46 -59l-47 39q25 51 66 79.5t92 28.5q36 0 66.5 -12.5t74.5 -43.5q41 -27 65 -37.5t51 -10.5q35 0 64 22t46 58l48 -38q-26 -51 -66.5 -79.5t-92.5 -28.5q-36 0 -66 12.5zM628 1449h103
l595 -1449h-107l-168 412h-743l-169 -412h-106zM1020 497l-329 798l-12 41l-12 -41l-329 -798h682z" />
    <glyph glyph-name="AE" unicode="&#xc6;" horiz-adv-x="2007" 
d="M630 1449h1317v-91h-920v-580h795v-80h-795v-607h920v-91h-1018v412h-620l-169 -412h-107zM929 497v861h-238l-352 -861h590z" />
    <glyph glyph-name="B" unicode="B" horiz-adv-x="1519" 
d="M869 1449q230 0 349.5 -98.5t119.5 -296.5q0 -126 -60.5 -204t-182.5 -118q139 -36 209 -118.5t70 -218.5q0 -200 -122 -297.5t-348 -97.5h-694v1449h659zM1140.5 837.5q97.5 70.5 97.5 214.5q0 147 -95 228.5t-286 81.5h-548v-595h568q166 0 263.5 70.5zM1178.5 168.5
q94.5 81.5 94.5 228.5q0 146 -99.5 219t-270.5 73h-594v-602h583q192 0 286.5 81.5z" />
    <glyph glyph-name="C" unicode="C" horiz-adv-x="1493" 
d="M443 39q-143 70 -221 191t-78 270v450q0 156 82 276.5t226 187t322 66.5q179 0 310.5 -53t208 -147t96.5 -217h-98q-23 95 -90 168.5t-175.5 115t-251.5 41.5t-265 -55.5t-194.5 -155.5t-72.5 -227v-450q0 -129 73 -229t195 -155t264 -55q147 0 257.5 42t176.5 120
t83 185h98q-14 -129 -88 -228t-207.5 -155t-319.5 -56q-188 0 -331 70z" />
    <glyph glyph-name="Cacute" unicode="&#x106;" horiz-adv-x="1493" 
d="M659 1642l252 300l71 -38l-277 -293zM443 39q-143 70 -221 191t-78 270v450q0 156 82 276.5t226 187t322 66.5q179 0 310.5 -53t208 -147t96.5 -217h-98q-23 95 -90 168.5t-175.5 115t-251.5 41.5t-265 -55.5t-194.5 -155.5t-72.5 -227v-450q0 -129 73 -229t195 -155
t264 -55q147 0 257.5 42t176.5 120t83 185h98q-14 -129 -88 -228t-207.5 -155t-319.5 -56q-188 0 -331 70z" />
    <glyph glyph-name="Ccaron" unicode="&#x10c;" horiz-adv-x="1493" 
d="M487 1901l47 31l232 -252l233 252l47 -31l-235 -281h-89zM443 39q-143 70 -221 191t-78 270v450q0 156 82 276.5t226 187t322 66.5q179 0 310.5 -53t208 -147t96.5 -217h-98q-23 95 -90 168.5t-175.5 115t-251.5 41.5t-265 -55.5t-194.5 -155.5t-72.5 -227v-450
q0 -129 73 -229t195 -155t264 -55q147 0 257.5 42t176.5 120t83 185h98q-14 -129 -88 -228t-207.5 -155t-319.5 -56q-188 0 -331 70z" />
    <glyph glyph-name="Ccedilla" unicode="&#xc7;" horiz-adv-x="1493" 
d="M598 -374l26 61q41 -72 119 -72q37 0 66.5 17.5t46 46t16.5 60.5q0 33 -17.5 62t-47 46t-64.5 17q-26 0 -49 -9l48 114q-178 6 -313.5 76.5t-210 189.5t-74.5 265v450q0 158 82 278.5t225.5 186t322.5 65.5q178 0 309.5 -53t208.5 -147t97 -217h-98q-23 95 -89 168.5
t-174 115t-254 41.5q-144 0 -266 -55.5t-194 -155.5t-72 -227v-450q0 -129 73 -229t195 -155t264 -55q213 0 350 89.5t167 257.5h98q-14 -125 -85.5 -223.5t-201 -155.5t-311.5 -59l-24 -62q48 -2 86 -25.5t59.5 -62t21.5 -82.5q0 -49 -25 -90t-68 -65t-97 -24
q-88 0 -146 67z" />
    <glyph glyph-name="Ccircumflex" unicode="&#x108;" horiz-adv-x="1493" 
d="M487 1652l235 280h89l235 -280l-47 -32l-233 252l-232 -252zM443 39q-143 70 -221 191t-78 270v450q0 156 82 276.5t226 187t322 66.5q179 0 310.5 -53t208 -147t96.5 -217h-98q-23 95 -90 168.5t-175.5 115t-251.5 41.5t-265 -55.5t-194.5 -155.5t-72.5 -227v-450
q0 -129 73 -229t195 -155t264 -55q147 0 257.5 42t176.5 120t83 185h98q-14 -129 -88 -228t-207.5 -155t-319.5 -56q-188 0 -331 70z" />
    <glyph glyph-name="Cdotaccent" unicode="&#x10a;" horiz-adv-x="1493" 
d="M712 1721.5q-21 21.5 -21 53.5q0 33 21.5 54t53.5 21q34 0 55 -21t21 -54t-21.5 -54t-54.5 -21t-54 21.5zM443 39q-143 70 -221 191t-78 270v450q0 156 82 276.5t226 187t322 66.5q179 0 310.5 -53t208 -147t96.5 -217h-98q-23 95 -90 168.5t-175.5 115t-251.5 41.5
t-265 -55.5t-194.5 -155.5t-72.5 -227v-450q0 -129 73 -229t195 -155t264 -55q147 0 257.5 42t176.5 120t83 185h98q-14 -129 -88 -228t-207.5 -155t-319.5 -56q-188 0 -331 70z" />
    <glyph glyph-name="D" unicode="D" horiz-adv-x="1537" 
d="M708 1449q219 0 368.5 -78t223.5 -218t74 -328v-200q0 -187 -73.5 -327.5t-222.5 -219t-370 -78.5h-498v1449h498zM1021 158q128 67 191 188t63 285v188q0 163 -62 283.5t-190 188t-319 67.5h-396v-1267h396q189 0 317 67z" />
    <glyph glyph-name="Eth" unicode="&#xd0;" horiz-adv-x="1609" 
d="M1 694v61h280v694h498q219 0 368.5 -78t223.5 -218.5t74 -328.5v-199q0 -187 -73.5 -327.5t-222.5 -219t-370 -78.5h-498v694h-280zM1092 158q128 67 191 188t63 285v188q0 163 -62 283.5t-190 188t-319 67.5h-395v-603h496v-61h-496v-603h395q189 0 317 67z" />
    <glyph glyph-name="Dcaron" unicode="&#x10e;" horiz-adv-x="1537" 
d="M512 1901l47 31l232 -252l234 252l46 -31l-235 -281h-88zM708 1449q219 0 368.5 -78t223.5 -218t74 -328v-200q0 -187 -73.5 -327.5t-222.5 -219t-370 -78.5h-498v1449h498zM1021 158q128 67 191 188t63 285v188q0 163 -62 283.5t-190 188t-319 67.5h-396v-1267h396
q189 0 317 67z" />
    <glyph glyph-name="Dcroat" unicode="&#x110;" horiz-adv-x="1609" 
d="M1 694v61h280v694h498q219 0 368.5 -78t223.5 -218.5t74 -328.5v-199q0 -187 -73.5 -327.5t-222.5 -219t-370 -78.5h-498v694h-280zM1092 158q128 67 191 188t63 285v188q0 163 -62 283.5t-190 188t-319 67.5h-395v-603h496v-61h-496v-603h395q189 0 317 67z" />
    <glyph glyph-name="uni1E0C" unicode="&#x1e0c;" horiz-adv-x="1537" 
d="M708 1449q219 0 368.5 -78t223.5 -218t74 -328v-200q0 -187 -73.5 -327.5t-222.5 -219t-370 -78.5h-498v1449h498zM1021 158q128 67 191 188t63 285v188q0 163 -62 283.5t-190 188t-319 67.5h-396v-1267h396q189 0 317 67zM738.5 -324.5q-20.5 20.5 -20.5 52.5t20.5 52.5
t52.5 20.5q34 0 54 -20.5t20 -52.5t-21 -52.5t-53 -20.5t-52.5 20.5z" />
    <glyph glyph-name="E" unicode="E" horiz-adv-x="1287" 
d="M209 1449h1018v-91h-920v-580h795v-80h-795v-607h920v-91h-1018v1449z" />
    <glyph glyph-name="Eacute" unicode="&#xc9;" horiz-adv-x="1287" 
d="M611 1642l252 300l71 -38l-277 -293zM209 1449h1018v-91h-920v-580h795v-80h-795v-607h920v-91h-1018v1449z" />
    <glyph glyph-name="Ebreve" unicode="&#x114;" horiz-adv-x="1287" 
d="M573.5 1674.5q-64.5 39.5 -101 105t-36.5 140.5h57q0 -62 31 -112t83 -78.5t110 -28.5q62 0 113.5 30t80.5 80.5t29 108.5h60q0 -80 -39 -145.5t-104 -102.5t-140 -37q-79 0 -143.5 39.5zM209 1449h1018v-91h-920v-580h795v-80h-795v-607h920v-91h-1018v1449z" />
    <glyph glyph-name="Ecaron" unicode="&#x11a;" horiz-adv-x="1287" 
d="M439 1901l46 31l234 -252l232 252l46 -31l-235 -281h-88zM209 1449h1018v-91h-920v-580h795v-80h-795v-607h920v-91h-1018v1449z" />
    <glyph glyph-name="Ecircumflex" unicode="&#xca;" horiz-adv-x="1287" 
d="M439 1652l235 280h88l235 -280l-46 -32l-232 252l-234 -252zM209 1449h1018v-91h-920v-580h795v-80h-795v-607h920v-91h-1018v1449z" />
    <glyph glyph-name="Edieresis" unicode="&#xcb;" horiz-adv-x="1287" 
d="M500.5 1721.5q-21.5 21.5 -21.5 53.5q0 34 21.5 54.5t54.5 20.5t54 -21.5t21 -53.5q0 -33 -21.5 -54t-53.5 -21q-33 0 -54.5 21.5zM827.5 1721.5q-21.5 21.5 -21.5 53.5q0 33 21 54t55 21t55 -21t21 -54t-21.5 -54t-54.5 -21t-54.5 21.5zM209 1449h1018v-91h-920v-580
h795v-80h-795v-607h920v-91h-1018v1449z" />
    <glyph glyph-name="Edotaccent" unicode="&#x116;" horiz-adv-x="1287" 
d="M664.5 1721.5q-21.5 21.5 -21.5 53.5q0 34 21.5 54.5t54.5 20.5t54 -21.5t21 -53.5q0 -33 -21.5 -54t-53.5 -21q-33 0 -54.5 21.5zM209 1449h1018v-91h-920v-580h795v-80h-795v-607h920v-91h-1018v1449z" />
    <glyph glyph-name="Egrave" unicode="&#xc8;" horiz-adv-x="1287" 
d="M503 1904l71 38l252 -300l-46 -31zM209 1449h1018v-91h-920v-580h795v-80h-795v-607h920v-91h-1018v1449z" />
    <glyph glyph-name="Emacron" unicode="&#x112;" horiz-adv-x="1287" 
d="M433 1810h571v-64h-571v64zM209 1449h1018v-91h-920v-580h795v-80h-795v-607h920v-91h-1018v1449z" />
    <glyph glyph-name="Eogonek" unicode="&#x118;" horiz-adv-x="1287" 
d="M1072.5 -421q-43.5 20 -69 57.5t-25.5 88.5q0 75 53 129l140 146h-962v1449h1018v-91h-920v-580h795v-80h-795v-607h920v-91l-158 -186q-30 -36 -30 -85q0 -52 37.5 -83t92.5 -31q78 0 118 72l25 -61q-57 -67 -144 -67q-52 0 -95.5 20z" />
    <glyph glyph-name="F" unicode="F" horiz-adv-x="1240" 
d="M215 1449h1018v-91h-920v-608h795v-85h-795v-665h-98v1449z" />
    <glyph glyph-name="G" unicode="G" horiz-adv-x="1575" 
d="M443.5 38.5q-142.5 69.5 -219.5 190t-77 271.5v450q0 156 82 276.5t225.5 187t321.5 66.5q180 0 311.5 -53t207.5 -147t97 -217h-99q-23 94 -88.5 167.5t-174 115.5t-254.5 42q-144 0 -265.5 -55.5t-193.5 -155.5t-72 -227v-454q0 -131 69.5 -230.5t190.5 -153.5t271 -54
q133 0 242 42t180 115.5t94 166.5v288h-491v80h591v-750h-59l-21 238q-72 -125 -210.5 -197t-325.5 -72q-190 0 -332.5 69.5z" />
    <glyph glyph-name="Gbreve" unicode="&#x11e;" horiz-adv-x="1575" 
d="M624.5 1674.5q-64.5 39.5 -101 105t-36.5 140.5h57q0 -62 31 -112t83 -78.5t110 -28.5q62 0 113.5 30t80.5 80.5t29 108.5h60q0 -80 -39 -145.5t-104 -102.5t-140 -37q-79 0 -143.5 39.5zM443.5 38.5q-142.5 69.5 -219.5 190t-77 271.5v450q0 156 82 276.5t225.5 187
t321.5 66.5q180 0 311.5 -53t207.5 -147t97 -217h-99q-23 94 -88.5 167.5t-174 115.5t-254.5 42q-144 0 -265.5 -55.5t-193.5 -155.5t-72 -227v-454q0 -131 69.5 -230.5t190.5 -153.5t271 -54q133 0 242 42t180 115.5t94 166.5v288h-491v80h591v-750h-59l-21 238
q-72 -125 -210.5 -197t-325.5 -72q-190 0 -332.5 69.5z" />
    <glyph glyph-name="Gcircumflex" unicode="&#x11c;" horiz-adv-x="1575" 
d="M490 1652l235 280h88l236 -280l-47 -32l-232 252l-234 -252zM443.5 38.5q-142.5 69.5 -219.5 190t-77 271.5v450q0 156 82 276.5t225.5 187t321.5 66.5q180 0 311.5 -53t207.5 -147t97 -217h-99q-23 94 -88.5 167.5t-174 115.5t-254.5 42q-144 0 -265.5 -55.5
t-193.5 -155.5t-72 -227v-454q0 -131 69.5 -230.5t190.5 -153.5t271 -54q133 0 242 42t180 115.5t94 166.5v288h-491v80h591v-750h-59l-21 238q-72 -125 -210.5 -197t-325.5 -72q-190 0 -332.5 69.5z" />
    <glyph glyph-name="uni0122" unicode="&#x122;" horiz-adv-x="1575" 
d="M443.5 38.5q-142.5 69.5 -219.5 190t-77 271.5v450q0 156 82 276.5t225.5 187t321.5 66.5q180 0 311.5 -53t207.5 -147t97 -217h-99q-23 94 -88.5 167.5t-174 115.5t-254.5 42q-144 0 -265.5 -55.5t-193.5 -155.5t-72 -227v-454q0 -131 69.5 -230.5t190.5 -153.5t271 -54
q133 0 242 42t180 115.5t94 166.5v288h-491v80h591v-750h-59l-21 238q-72 -125 -210.5 -197t-325.5 -72q-190 0 -332.5 69.5zM755 -215h93l-108 -226h-57z" />
    <glyph glyph-name="Gdotaccent" unicode="&#x120;" horiz-adv-x="1575" 
d="M715.5 1721.5q-21.5 21.5 -21.5 53.5q0 34 21.5 54.5t54.5 20.5t54 -21.5t21 -53.5q0 -33 -21.5 -54t-53.5 -21q-33 0 -54.5 21.5zM443.5 38.5q-142.5 69.5 -219.5 190t-77 271.5v450q0 156 82 276.5t225.5 187t321.5 66.5q180 0 311.5 -53t207.5 -147t97 -217h-99
q-23 94 -88.5 167.5t-174 115.5t-254.5 42q-144 0 -265.5 -55.5t-193.5 -155.5t-72 -227v-454q0 -131 69.5 -230.5t190.5 -153.5t271 -54q133 0 242 42t180 115.5t94 166.5v288h-491v80h591v-750h-59l-21 238q-72 -125 -210.5 -197t-325.5 -72q-190 0 -332.5 69.5z" />
    <glyph glyph-name="H" unicode="H" horiz-adv-x="1619" 
d="M215 1449h98v-685h975v685h98v-1449h-98v672h-975v-672h-98v1449z" />
    <glyph glyph-name="Hbar" unicode="&#x126;" horiz-adv-x="1620" 
d="M215 1200h-107v61h107v188h98v-188h975v188h98v-188h110v-61h-110v-1200h-98v672h-975v-672h-98v1200zM1288 764v436h-975v-436h975z" />
    <glyph glyph-name="Hcircumflex" unicode="&#x124;" horiz-adv-x="1619" 
d="M521 1652l236 280h88l235 -280l-46 -32l-234 252l-232 -252zM215 1449h98v-685h975v685h98v-1449h-98v672h-975v-672h-98v1449z" />
    <glyph glyph-name="uni1E24" unicode="&#x1e24;" horiz-adv-x="1619" 
d="M215 1449h98v-685h975v685h98v-1449h-98v672h-975v-672h-98v1449zM747.5 -324.5q-20.5 20.5 -20.5 52.5t20.5 52.5t52.5 20.5q34 0 54.5 -21t20.5 -52q0 -32 -21.5 -52.5t-53.5 -20.5t-52.5 20.5z" />
    <glyph glyph-name="I" unicode="I" horiz-adv-x="547" 
d="M210 1449h98v-1449h-98v1449z" />
    <glyph glyph-name="Iacute" unicode="&#xcd;" horiz-adv-x="547" 
d="M151 1642l252 300l71 -38l-276 -293zM210 1449h98v-1449h-98v1449z" />
    <glyph glyph-name="Ibreve" unicode="&#x12c;" horiz-adv-x="547" 
d="M114.5 1674.5q-64.5 39.5 -101 105t-36.5 140.5h57q0 -62 31 -112t83 -78.5t110 -28.5q63 0 114 30t80 80.5t29 108.5h60q0 -80 -39 -145.5t-104 -102.5t-140 -37q-79 0 -143.5 39.5zM210 1449h98v-1449h-98v1449z" />
    <glyph glyph-name="Icircumflex" unicode="&#xce;" horiz-adv-x="547" 
d="M-20 1652l235 280h88l236 -280l-47 -32l-232 252l-233 -252zM210 1449h98v-1449h-98v1449z" />
    <glyph glyph-name="Idieresis" unicode="&#xcf;" horiz-adv-x="547" 
d="M41 1721.5q-21 21.5 -21 53.5q0 33 21.5 54t53.5 21q34 0 55 -21t21 -54t-21.5 -54t-54.5 -21t-54 21.5zM368.5 1721.5q-21.5 21.5 -21.5 53.5q0 34 21.5 54.5t54.5 20.5t54 -21.5t21 -53.5q0 -33 -21.5 -54t-53.5 -21q-33 0 -54.5 21.5zM210 1449h98v-1449h-98v1449z
" />
    <glyph glyph-name="Idotaccent" unicode="&#x130;" horiz-adv-x="547" 
d="M204.5 1721.5q-21.5 21.5 -21.5 53.5q0 33 21.5 54t54.5 21q34 0 54.5 -21t20.5 -54t-21.5 -54t-53.5 -21q-33 0 -54.5 21.5zM210 1449h98v-1449h-98v1449z" />
    <glyph glyph-name="Igrave" unicode="&#xcc;" horiz-adv-x="547" 
d="M44 1904l71 38l252 -300l-47 -31zM210 1449h98v-1449h-98v1449z" />
    <glyph glyph-name="Imacron" unicode="&#x12a;" horiz-adv-x="547" 
d="M-27 1810h572v-64h-572v64zM210 1449h98v-1449h-98v1449z" />
    <glyph glyph-name="Iogonek" unicode="&#x12e;" horiz-adv-x="547" 
d="M150 -419q-43 22 -67 60t-24 84q0 75 53 129l140 146h-42v1449h98v-1449l-157 -186q-31 -37 -31 -85q0 -53 37.5 -83.5t91.5 -30.5q41 0 71.5 20t47.5 52l25 -61q-27 -31 -64 -49t-80 -18q-56 0 -99 22z" />
    <glyph glyph-name="Itilde" unicode="&#x128;" horiz-adv-x="547" 
d="M320 1706q-31 13 -74 43q-38 26 -63 37t-52 11q-37 0 -66 -22t-45 -59l-47 39q25 51 65.5 79.5t92.5 28.5q36 0 66.5 -13t74.5 -43q41 -27 65 -37.5t51 -10.5q35 0 64 22t46 58l48 -38q-27 -51 -67.5 -79.5t-91.5 -28.5q-36 0 -67 13zM210 1449h98v-1449h-98v1449z" />
    <glyph glyph-name="J" unicode="J" horiz-adv-x="1272" 
d="M264.5 27q-116.5 58 -179.5 169.5t-63 266.5h99q0 -127 52.5 -217.5t147 -137.5t220.5 -47q128 0 222.5 48t146 139t51.5 215v986h98v-986q0 -158 -63.5 -269t-180.5 -168t-274 -57q-160 0 -276.5 58z" />
    <glyph glyph-name="Jcircumflex" unicode="&#x134;" horiz-adv-x="1272" 
d="M697 1652l236 280h89l235 -280l-47 -32l-233 252l-232 -252zM264.5 27q-116.5 58 -179.5 169.5t-63 266.5h99q0 -127 52.5 -217.5t147 -137.5t220.5 -47q128 0 222.5 48t146 139t51.5 215v986h98v-986q0 -158 -63.5 -269t-180.5 -168t-274 -57q-160 0 -276.5 58z" />
    <glyph glyph-name="K" unicode="K" horiz-adv-x="1245" 
d="M215 1449h99v-676l763 676h141l-807 -708l834 -741h-152l-779 703v-703h-99v1449z" />
    <glyph glyph-name="uni0136" unicode="&#x136;" horiz-adv-x="1245" 
d="M215 1449h99v-676l763 676h141l-807 -708l834 -741h-152l-779 703v-703h-99v1449zM715 -215h94l-109 -226h-56z" />
    <glyph glyph-name="L" unicode="L" horiz-adv-x="1179" 
d="M209 1449h98v-1358h879v-91h-977v1449z" />
    <glyph glyph-name="Lacute" unicode="&#x139;" horiz-adv-x="1179" 
d="M590 1642l252 300l71 -38l-277 -293zM209 1449h98v-1358h879v-91h-977v1449z" />
    <glyph glyph-name="Lcaron" unicode="&#x13d;" horiz-adv-x="1179" 
d="M209 1449h98v-1358h879v-91h-977v1449zM1087 1449h99l-112 -234h-60z" />
    <glyph glyph-name="uni013B" unicode="&#x13b;" horiz-adv-x="1179" 
d="M209 1449h98v-1358h879v-91h-977v1449zM682 -215h94l-108 -226h-57z" />
    <glyph glyph-name="Ldot" unicode="&#x13f;" horiz-adv-x="1179" 
d="M209 1449h98v-1358h879v-91h-977v1449zM607 672.5q-22 22.5 -22 57.5t22.5 57.5t57.5 22.5t58 -22.5t23 -57.5q0 -36 -23 -58t-58 -22q-36 0 -58 22.5z" />
    <glyph glyph-name="uni1E36" unicode="&#x1e36;" horiz-adv-x="1179" 
d="M209 1449h98v-1358h879v-91h-977v1449zM639.5 -324.5q-20.5 20.5 -20.5 52.5t21 52.5t53 20.5t52.5 -20.5t20.5 -52.5t-20.5 -52.5t-52.5 -20.5q-33 0 -53.5 20.5z" />
    <glyph glyph-name="uni1E38" unicode="&#x1e38;" horiz-adv-x="1179" 
d="M209 1810h571v-64h-571v64zM209 1449h98v-1358h879v-91h-977v1449zM639.5 -324.5q-20.5 20.5 -20.5 52.5t21 52.5t53 20.5t52.5 -20.5t20.5 -52.5t-20.5 -52.5t-52.5 -20.5q-33 0 -53.5 20.5z" />
    <glyph glyph-name="Lslash" unicode="&#x141;" horiz-adv-x="1179" 
d="M209 602l-153 -88l-31 52l184 106v777h98v-720l443 256l31 -53l-474 -273v-568h879v-91h-977v602z" />
    <glyph glyph-name="M" unicode="M" horiz-adv-x="1783" 
d="M209 1449h111l522 -1217l35 -96l36 96l520 1217h113v-1449h-97v1173l5 91l-547 -1264h-60l-547 1264l6 -91v-1173h-97v1449z" />
    <glyph glyph-name="uni1E40" unicode="&#x1e40;" horiz-adv-x="1783" 
d="M823 1720.5q-21 21.5 -21 53.5q0 33 21 53.5t54 20.5q35 0 55.5 -20.5t20.5 -53.5t-21.5 -54t-54.5 -21t-54 21.5zM209 1449h111l522 -1217l35 -96l36 96l520 1217h113v-1449h-97v1183l5 91l-547 -1274h-60l-547 1274l6 -91v-1183h-97v1449z" />
    <glyph glyph-name="uni1E42" unicode="&#x1e42;" horiz-adv-x="1783" 
d="M209 1449h111l522 -1217l35 -96l36 96l520 1217h113v-1449h-97v1183l5 91l-547 -1274h-60l-547 1274l6 -91v-1183h-97v1449zM824.5 -324.5q-20.5 20.5 -20.5 52.5t20.5 52.5t52.5 20.5t53 -20.5t21 -52.5t-21 -52.5t-53 -20.5t-52.5 20.5z" />
    <glyph glyph-name="N" unicode="N" horiz-adv-x="1613" 
d="M209 1449h99l980 -1298l-6 64v1234h99v-1449h-99l-980 1299l6 -64v-1235h-99v1449z" />
    <glyph glyph-name="Nacute" unicode="&#x143;" horiz-adv-x="1613" 
d="M688 1642l252 300l71 -38l-277 -293zM209 1449h99l980 -1298l-6 64v1234h99v-1449h-99l-980 1299l6 -64v-1235h-99v1449z" />
    <glyph glyph-name="Ncaron" unicode="&#x147;" horiz-adv-x="1613" 
d="M516 1901l46 31l233 -252l233 252l46 -31l-235 -281h-88zM209 1449h99l980 -1298l-6 64v1234h99v-1449h-99l-980 1299l6 -64v-1235h-99v1449z" />
    <glyph glyph-name="uni0145" unicode="&#x145;" horiz-adv-x="1613" 
d="M209 1449h99l980 -1298l-6 64v1234h99v-1449h-99l-980 1299l6 -64v-1235h-99v1449zM780 -215h94l-109 -226h-56z" />
    <glyph glyph-name="uni1E44" unicode="&#x1e44;" horiz-adv-x="1613" 
d="M740.5 1721.5q-21.5 21.5 -21.5 53.5q0 33 21.5 54t54.5 21q34 0 55 -21t21 -54t-21.5 -54t-54.5 -21t-54.5 21.5zM209 1449h99l980 -1298l-6 64v1234h99v-1449h-99l-980 1299l6 -64v-1235h-99v1449z" />
    <glyph glyph-name="uni1E46" unicode="&#x1e46;" horiz-adv-x="1613" 
d="M209 1449h99l980 -1298l-6 64v1234h99v-1449h-99l-980 1299l6 -64v-1235h-99v1449zM742 -324.5q-21 20.5 -21 52.5t20.5 52.5t53.5 20.5q32 0 53 -20.5t21 -52.5t-21 -52.5t-53 -20.5t-53 20.5z" />
    <glyph glyph-name="Eng" unicode="&#x14a;" horiz-adv-x="1613" 
d="M1099 -361q53 0 96.5 23.5t69 67.5t25.5 102v163l-988 1304l6 -64v-1235h-99v1449h99l980 -1298l-6 64v1234h99v-1615q0 -84 -36.5 -146t-99.5 -95t-143 -33h-105v79h102z" />
    <glyph glyph-name="Ntilde" unicode="&#xd1;" horiz-adv-x="1613" 
d="M856.5 1705.5q-30.5 12.5 -74.5 43.5q-41 27 -65 37.5t-51 10.5q-35 0 -64 -22t-46 -59l-47 39q25 51 66 79.5t92 28.5q36 0 66.5 -12.5t74.5 -43.5q41 -27 65 -37.5t51 -10.5q35 0 64 22t47 58l46 -38q-25 -51 -66 -79.5t-92 -28.5q-36 0 -66.5 12.5zM209 1449h99
l980 -1298l-6 64v1234h99v-1449h-99l-980 1299l6 -64v-1235h-99v1449z" />
    <glyph glyph-name="O" unicode="O" horiz-adv-x="1588" 
d="M443 38.5q-143 69.5 -220 190.5t-77 271v450q0 158 81 278t224.5 186t324.5 66q190 0 333 -69t220 -189.5t77 -271.5v-450q0 -158 -81 -278.5t-224.5 -186.5t-324.5 -66q-190 0 -333 69.5zM1055.5 119q120.5 58 186 158t65.5 223v450q0 130 -69 229.5t-190 154t-272 54.5
q-159 0 -279.5 -57.5t-186 -157.5t-65.5 -223v-450q0 -131 69.5 -231t190.5 -154t271 -54q159 0 279.5 58z" />
    <glyph glyph-name="Oacute" unicode="&#xd3;" horiz-adv-x="1588" 
d="M668 1642l252 300l71 -38l-277 -293zM443 38.5q-143 69.5 -220 190.5t-77 271v450q0 158 81 278t224.5 186t324.5 66q190 0 333 -69t220 -189.5t77 -271.5v-450q0 -158 -81 -278.5t-224.5 -186.5t-324.5 -66q-190 0 -333 69.5zM1055.5 119q120.5 58 186 158t65.5 223v450
q0 130 -69 229.5t-190 154t-272 54.5q-159 0 -279.5 -57.5t-186 -157.5t-65.5 -223v-450q0 -131 69.5 -231t190.5 -154t271 -54q159 0 279.5 58z" />
    <glyph glyph-name="Obreve" unicode="&#x14e;" horiz-adv-x="1588" 
d="M631 1674.5q-64 39.5 -100.5 105t-36.5 140.5h56q0 -62 31 -112t83 -78.5t110 -28.5q62 0 113.5 30t80.5 80.5t29 108.5h61q0 -81 -39.5 -146t-105 -102t-139.5 -37q-79 0 -143 39.5zM443 38.5q-143 69.5 -220 190.5t-77 271v450q0 158 81 278t224.5 186t324.5 66
q190 0 333 -69t220 -189.5t77 -271.5v-450q0 -158 -81 -278.5t-224.5 -186.5t-324.5 -66q-190 0 -333 69.5zM1055.5 119q120.5 58 186 158t65.5 223v450q0 130 -69 229.5t-190 154t-272 54.5q-159 0 -279.5 -57.5t-186 -157.5t-65.5 -223v-450q0 -131 69.5 -231t190.5 -154
t271 -54q159 0 279.5 58z" />
    <glyph glyph-name="Ocircumflex" unicode="&#xd4;" horiz-adv-x="1588" 
d="M497 1652l234 280h89l235 -280l-46 -32l-233 252l-233 -252zM443 38.5q-143 69.5 -220 190.5t-77 271v450q0 158 81 278t224.5 186t324.5 66q190 0 333 -69t220 -189.5t77 -271.5v-450q0 -158 -81 -278.5t-224.5 -186.5t-324.5 -66q-190 0 -333 69.5zM1055.5 119
q120.5 58 186 158t65.5 223v450q0 130 -69 229.5t-190 154t-272 54.5q-159 0 -279.5 -57.5t-186 -157.5t-65.5 -223v-450q0 -131 69.5 -231t190.5 -154t271 -54q159 0 279.5 58z" />
    <glyph glyph-name="Odieresis" unicode="&#xd6;" horiz-adv-x="1588" 
d="M558 1721q-21 21 -21 54t21.5 54t53.5 21q34 0 54.5 -21t20.5 -54t-21.5 -54t-53.5 -21q-33 0 -54 21zM885 1721.5q-21 21.5 -21 53.5q0 33 21.5 54t53.5 21q34 0 55 -21t21 -54t-21.5 -54t-54.5 -21t-54 21.5zM443 38.5q-143 69.5 -220 190.5t-77 271v450q0 158 81 278
t224.5 186t324.5 66q190 0 333 -69t220 -189.5t77 -271.5v-450q0 -158 -81 -278.5t-224.5 -186.5t-324.5 -66q-190 0 -333 69.5zM1055.5 119q120.5 58 186 158t65.5 223v450q0 130 -69 229.5t-190 154t-272 54.5q-159 0 -279.5 -57.5t-186 -157.5t-65.5 -223v-450
q0 -131 69.5 -231t190.5 -154t271 -54q159 0 279.5 58z" />
    <glyph glyph-name="Ograve" unicode="&#xd2;" horiz-adv-x="1588" 
d="M560 1904l71 38l252 -300l-46 -31zM443 38.5q-143 69.5 -220 190.5t-77 271v450q0 158 81 278t224.5 186t324.5 66q190 0 333 -69t220 -189.5t77 -271.5v-450q0 -158 -81 -278.5t-224.5 -186.5t-324.5 -66q-190 0 -333 69.5zM1055.5 119q120.5 58 186 158t65.5 223v450
q0 130 -69 229.5t-190 154t-272 54.5q-159 0 -279.5 -57.5t-186 -157.5t-65.5 -223v-450q0 -131 69.5 -231t190.5 -154t271 -54q159 0 279.5 58z" />
    <glyph glyph-name="Ohungarumlaut" unicode="&#x150;" horiz-adv-x="1588" 
d="M388 1642l252 300l72 -38l-277 -293zM842 1642l252 300l71 -38l-276 -293zM443 38.5q-143 69.5 -220 190.5t-77 271v450q0 158 81 278t224.5 186t324.5 66q190 0 333 -69t220 -189.5t77 -271.5v-450q0 -158 -81 -278.5t-224.5 -186.5t-324.5 -66q-190 0 -333 69.5z
M1055.5 119q120.5 58 186 158t65.5 223v450q0 130 -69 229.5t-190 154t-272 54.5q-159 0 -279.5 -57.5t-186 -157.5t-65.5 -223v-450q0 -131 69.5 -231t190.5 -154t271 -54q159 0 279.5 58z" />
    <glyph glyph-name="Omacron" unicode="&#x14c;" horiz-adv-x="1588" 
d="M490 1810h571v-64h-571v64zM443 38.5q-143 69.5 -220 190.5t-77 271v450q0 158 81 278t224.5 186t324.5 66q190 0 333 -69t220 -189.5t77 -271.5v-450q0 -158 -81 -278.5t-224.5 -186.5t-324.5 -66q-190 0 -333 69.5zM1055.5 119q120.5 58 186 158t65.5 223v450
q0 130 -69 229.5t-190 154t-272 54.5q-159 0 -279.5 -57.5t-186 -157.5t-65.5 -223v-450q0 -131 69.5 -231t190.5 -154t271 -54q159 0 279.5 58z" />
    <glyph glyph-name="Oslash" unicode="&#xd8;" horiz-adv-x="1588" 
d="M372 79q-107 71 -166.5 179t-59.5 242v449q0 158 81.5 278.5t225 186.5t324.5 66q196 0 345 -79l61 106l58 -31l-61 -106q107 -71 166.5 -179t59.5 -242v-449q0 -157 -81 -278t-224 -187t-324 -66q-196 0 -347 80l-60 -107l-58 31zM777 1388q-160 0 -282 -57.5t-188 -157
t-66 -223.5v-451q0 -103 47.5 -188t131.5 -141l657 1146q-130 72 -300 72zM1058.5 118.5q121.5 57.5 187 157.5t65.5 223v451q0 103 -47.5 188t-131.5 141l-657 -1146q131 -72 302 -72q160 0 281.5 57.5z" />
    <glyph glyph-name="Otilde" unicode="&#xd5;" horiz-adv-x="1588" 
d="M837.5 1705.5q-30.5 12.5 -75.5 43.5q-37 26 -62.5 37t-52.5 11q-35 0 -64 -22t-47 -59l-46 39q25 51 66 79.5t92 28.5q36 0 66.5 -12.5t74.5 -43.5q41 -27 65 -37.5t51 -10.5q35 0 64 22t46 58l46 -38q-24 -51 -65 -79.5t-92 -28.5q-36 0 -66.5 12.5zM443 38.5
q-143 69.5 -220 190.5t-77 271v450q0 158 81 278t224.5 186t324.5 66q190 0 333 -69t220 -189.5t77 -271.5v-450q0 -158 -81 -278.5t-224.5 -186.5t-324.5 -66q-190 0 -333 69.5zM1055.5 119q120.5 58 186 158t65.5 223v450q0 130 -69 229.5t-190 154t-272 54.5
q-159 0 -279.5 -57.5t-186 -157.5t-65.5 -223v-450q0 -131 69.5 -231t190.5 -154t271 -54q159 0 279.5 58z" />
    <glyph glyph-name="OE" unicode="&#x152;" horiz-adv-x="2386" 
d="M440 38.5q-141 69.5 -217.5 190t-76.5 271.5v450q0 157 80 277.5t222 186.5t321 66q127 0 234.5 -35t185 -100t119.5 -152v256h1019v-91h-920v-580h795v-80h-795v-607h920v-91h-1019v257q-41 -86 -118 -151t-184.5 -101t-236.5 -36q-188 0 -329 69.5zM1056.5 119
q120.5 58 186 158t65.5 223v450q0 130 -69 229.5t-190 154t-272 54.5q-159 0 -279.5 -57.5t-186 -157.5t-65.5 -223v-450q0 -130 69 -230t190 -154.5t272 -54.5q159 0 279.5 58z" />
    <glyph glyph-name="P" unicode="P" horiz-adv-x="1457" 
d="M906 1449q241 0 357 -104.5t116 -308.5q0 -138 -59.5 -230.5t-165.5 -138t-248 -45.5h-592v-622h-98v1449h690zM1094 750q86 36 135.5 108t49.5 178q0 157 -95 239.5t-286 82.5h-584v-644h584q110 0 196 36z" />
    <glyph glyph-name="Thorn" unicode="&#xde;" horiz-adv-x="1471" 
d="M313 1449v-311h592q474 0 474 -413q0 -138 -59.5 -231t-166 -138t-248.5 -45h-592v-311h-98v1449h98zM1093 437.5q86 35.5 135.5 108t49.5 179.5q0 158 -94.5 240t-286.5 82h-584v-645h584q110 0 196 35.5z" />
    <glyph glyph-name="Q" unicode="Q" horiz-adv-x="1589" 
d="M445 38.5q-143 69.5 -220 190t-77 271.5v450q0 157 81 277.5t224 186.5t325 66q190 0 333 -69t220 -189.5t77 -271.5v-450q0 -140 -67.5 -250.5t-186 -178t-268.5 -82.5l247 -247l-64 -64l-291 291q-190 0 -333 69.5zM1058.5 119q120.5 58 185.5 158t65 223v450
q0 131 -69 230.5t-190 153.5t-272 54q-159 0 -280 -57.5t-186.5 -157.5t-65.5 -223v-450q0 -130 69.5 -230t191 -154.5t271.5 -54.5q160 0 280.5 58z" />
    <glyph glyph-name="R" unicode="R" horiz-adv-x="1497" 
d="M888 1449q231 0 352 -103t121 -310q0 -184 -104 -284.5t-282 -117.5l407 -634h-121l-392 622h-561v-622h-98v1449h678zM1076.5 750q85.5 36 134.5 108.5t49 177.5q0 322 -379 322h-573v-645l573 1q110 0 195.5 36z" />
    <glyph glyph-name="Racute" unicode="&#x154;" horiz-adv-x="1497" 
d="M688 1642l252 300l71 -38l-277 -293zM888 1449q231 0 352 -103t121 -310q0 -184 -104 -284.5t-282 -117.5l407 -634h-121l-392 622h-561v-622h-98v1449h678zM1076.5 750q85.5 36 134.5 108.5t49 177.5q0 322 -379 322h-573v-645l573 1q110 0 195.5 36z" />
    <glyph glyph-name="Rcaron" unicode="&#x158;" horiz-adv-x="1497" 
d="M516 1901l46 31l234 -252l232 252l46 -31l-235 -281h-88zM888 1449q231 0 352 -103t121 -310q0 -184 -104 -284.5t-282 -117.5l407 -634h-121l-392 622h-561v-622h-98v1449h678zM1076.5 750q85.5 36 134.5 108.5t49 177.5q0 322 -379 322h-573v-645l573 1q110 0 195.5 36
z" />
    <glyph glyph-name="uni0156" unicode="&#x156;" horiz-adv-x="1497" 
d="M888 1449q231 0 352 -103t121 -310q0 -184 -104 -284.5t-282 -117.5l407 -634h-121l-392 622h-561v-622h-98v1449h678zM1076.5 750q85.5 36 134.5 108.5t49 177.5q0 322 -379 322h-573v-645l573 1q110 0 195.5 36zM780 -215h94l-108 -226h-57z" />
    <glyph glyph-name="uni1E5A" unicode="&#x1e5a;" horiz-adv-x="1497" 
d="M888 1449q231 0 352 -103t121 -310q0 -184 -104 -284.5t-282 -117.5l407 -634h-121l-392 622h-561v-622h-98v1449h678zM1076.5 750q85.5 36 134.5 108.5t49 177.5q0 322 -379 322h-573v-645l573 1q110 0 195.5 36zM737.5 -324.5q-20.5 20.5 -20.5 52.5t21 52.5t53 20.5
t52.5 -20.5t20.5 -52.5t-20.5 -52.5t-52.5 -20.5q-33 0 -53.5 20.5z" />
    <glyph glyph-name="uni1E5C" unicode="&#x1e5c;" horiz-adv-x="1497" 
d="M510 1810h571v-64h-571v64zM888 1449q231 0 352 -103t121 -310q0 -184 -104 -284.5t-282 -117.5l407 -634h-121l-392 622h-561v-622h-98v1449h678zM1076.5 750q85.5 36 134.5 108.5t49 177.5q0 322 -379 322h-573v-645l573 1q110 0 195.5 36zM737.5 -324.5
q-20.5 20.5 -20.5 52.5t21 52.5t53 20.5t52.5 -20.5t20.5 -52.5t-20.5 -52.5t-52.5 -20.5q-33 0 -53.5 20.5z" />
    <glyph glyph-name="S" unicode="S" horiz-adv-x="1405" 
d="M379.5 26.5q-126.5 55.5 -199 155.5t-94.5 233h110q22 -112 87.5 -191.5t167.5 -121t232 -41.5q137 0 248 37.5t175.5 110t64.5 172.5t-54.5 160.5t-159 95.5t-288.5 68q-197 35 -311.5 75.5t-175 111.5t-60.5 188t70.5 208t197 141.5t287.5 50.5q156 0 280 -51
t202.5 -144.5t99.5 -217.5h-105q-24 98 -89.5 171t-165 112.5t-222.5 39.5q-136 0 -237 -41.5t-155.5 -112t-54.5 -156.5q0 -88 50 -141t148 -84.5t272 -62.5q207 -37 329 -80.5t187 -121.5t65 -209q0 -129 -78.5 -221.5t-214 -140.5t-305.5 -48q-177 0 -303.5 55.5z" />
    <glyph glyph-name="Sacute" unicode="&#x15a;" horiz-adv-x="1405" 
d="M577 1642l252 300l71 -38l-277 -293zM379.5 26.5q-126.5 55.5 -199 155.5t-94.5 233h110q22 -112 87.5 -191.5t167.5 -121t232 -41.5q137 0 248 37.5t175.5 110t64.5 172.5t-54.5 160.5t-159 95.5t-288.5 68q-197 35 -311.5 75.5t-175 111.5t-60.5 188t70.5 208
t197 141.5t287.5 50.5q156 0 280 -51t202.5 -144.5t99.5 -217.5h-105q-24 98 -89.5 171t-165 112.5t-222.5 39.5q-136 0 -237 -41.5t-155.5 -112t-54.5 -156.5q0 -88 50 -141t148 -84.5t272 -62.5q207 -37 329 -80.5t187 -121.5t65 -209q0 -129 -78.5 -221.5t-214 -140.5
t-305.5 -48q-177 0 -303.5 55.5z" />
    <glyph glyph-name="Scaron" unicode="&#x160;" horiz-adv-x="1405" 
d="M405 1901l46 31l233 -252l233 252l46 -31l-235 -281h-88zM379.5 26.5q-126.5 55.5 -199 155.5t-94.5 233h110q22 -112 87.5 -191.5t167.5 -121t232 -41.5q137 0 248 37.5t175.5 110t64.5 172.5t-54.5 160.5t-159 95.5t-288.5 68q-197 35 -311.5 75.5t-175 111.5
t-60.5 188t70.5 208t197 141.5t287.5 50.5q156 0 280 -51t202.5 -144.5t99.5 -217.5h-105q-24 98 -89.5 171t-165 112.5t-222.5 39.5q-136 0 -237 -41.5t-155.5 -112t-54.5 -156.5q0 -88 50 -141t148 -84.5t272 -62.5q207 -37 329 -80.5t187 -121.5t65 -209
q0 -129 -78.5 -221.5t-214 -140.5t-305.5 -48q-177 0 -303.5 55.5z" />
    <glyph glyph-name="Scedilla" unicode="&#x15e;" horiz-adv-x="1405" 
d="M516 -374l26 61q41 -72 118 -72q37 0 67 17.5t46.5 46t16.5 60.5q0 33 -17.5 62t-47 46t-65.5 17q-27 0 -48 -9l48 116q-170 3 -291.5 59.5t-191.5 155t-91 229.5h110q36 -174 166 -264t321 -90q139 0 249.5 37t174.5 109.5t64 173.5q0 99 -53.5 159.5t-158.5 96.5
t-290 69q-199 36 -313.5 76.5t-174 110.5t-59.5 187q0 119 70 209.5t196 140.5t289 50q154 0 277 -50t202 -143t103 -220h-105q-24 97 -88 169.5t-163 113t-226 40.5q-138 0 -239.5 -41.5t-154.5 -112.5t-53 -156q0 -88 50 -141t148 -84.5t272 -62.5q207 -37 329 -80.5
t187 -121.5t65 -209q0 -126 -73 -217t-202.5 -140t-295.5 -53l-26 -63q47 -2 85.5 -25.5t60 -62t21.5 -82.5q0 -50 -25 -91t-68.5 -64.5t-96.5 -23.5q-87 0 -145 67z" />
    <glyph glyph-name="Scircumflex" unicode="&#x15c;" horiz-adv-x="1405" 
d="M405 1652l235 280h88l235 -280l-46 -32l-233 252l-233 -252zM379.5 26.5q-126.5 55.5 -199 155.5t-94.5 233h110q22 -112 87.5 -191.5t167.5 -121t232 -41.5q137 0 248 37.5t175.5 110t64.5 172.5t-54.5 160.5t-159 95.5t-288.5 68q-197 35 -311.5 75.5t-175 111.5
t-60.5 188t70.5 208t197 141.5t287.5 50.5q156 0 280 -51t202.5 -144.5t99.5 -217.5h-105q-24 98 -89.5 171t-165 112.5t-222.5 39.5q-136 0 -237 -41.5t-155.5 -112t-54.5 -156.5q0 -88 50 -141t148 -84.5t272 -62.5q207 -37 329 -80.5t187 -121.5t65 -209
q0 -129 -78.5 -221.5t-214 -140.5t-305.5 -48q-177 0 -303.5 55.5z" />
    <glyph glyph-name="uni0218" unicode="&#x218;" horiz-adv-x="1405" 
d="M379.5 26.5q-126.5 55.5 -199 155.5t-94.5 233h110q22 -112 87.5 -191.5t167.5 -121t232 -41.5q137 0 248 37.5t175.5 110t64.5 172.5t-54.5 160.5t-159 95.5t-288.5 68q-197 35 -311.5 75.5t-175 111.5t-60.5 188t70.5 208t197 141.5t287.5 50.5q156 0 280 -51
t202.5 -144.5t99.5 -217.5h-105q-24 98 -89.5 171t-165 112.5t-222.5 39.5q-136 0 -237 -41.5t-155.5 -112t-54.5 -156.5q0 -88 50 -141t148 -84.5t272 -62.5q207 -37 329 -80.5t187 -121.5t65 -209q0 -129 -78.5 -221.5t-214 -140.5t-305.5 -48q-177 0 -303.5 55.5z
M669 -215h94l-109 -226h-56z" />
    <glyph glyph-name="uni1E62" unicode="&#x1e62;" horiz-adv-x="1405" 
d="M379.5 26.5q-126.5 55.5 -199 155.5t-94.5 233h110q22 -112 87.5 -191.5t167.5 -121t232 -41.5q137 0 248 37.5t175.5 110t64.5 172.5t-54.5 160.5t-159 95.5t-288.5 68q-197 35 -311.5 75.5t-175 111.5t-60.5 188t70.5 208t197 141.5t287.5 50.5q156 0 280 -51
t202.5 -144.5t99.5 -217.5h-105q-24 98 -89.5 171t-165 112.5t-222.5 39.5q-136 0 -237 -41.5t-155.5 -112t-54.5 -156.5q0 -88 50 -141t148 -84.5t272 -62.5q207 -37 329 -80.5t187 -121.5t65 -209q0 -129 -78.5 -221.5t-214 -140.5t-305.5 -48q-177 0 -303.5 55.5z
M631.5 -324.5q-20.5 20.5 -20.5 52.5t20.5 52.5t52.5 20.5q33 0 53.5 -20.5t20.5 -52.5t-21 -52.5t-53 -20.5t-52.5 20.5z" />
    <glyph glyph-name="uni1E9E" unicode="&#x1e9e;" horiz-adv-x="1471" 
d="M244 1238q58 101 160.5 156t231.5 55h603v-82l-393 -511h90q117 0 215.5 -50t157.5 -146t59 -226q0 -120 -57 -219t-162 -157t-244 -58h-229v88h229q98 0 181.5 44t133 122.5t49.5 177.5q0 92 -44 170.5t-127 126t-195 47.5h-166v78l391 508h-492q-106 0 -185.5 -48
t-122.5 -130t-43 -181v-1003h-99v1005q0 132 58 233z" />
    <glyph glyph-name="T" unicode="T" horiz-adv-x="1158" 
d="M568 1358h-533v91h1165v-91h-533v-1358h-99v1358z" />
    <glyph glyph-name="Tbar" unicode="&#x166;" horiz-adv-x="1158" 
d="M568 681h-309v61h309v616h-533v91h1165v-91h-533v-616h310v-61h-310v-681h-99v681z" />
    <glyph glyph-name="Tcaron" unicode="&#x164;" horiz-adv-x="1158" 
d="M338 1901l46 31l234 -252l232 252l47 -31l-236 -281h-88zM568 1358h-533v91h1165v-91h-533v-1358h-99v1358z" />
    <glyph glyph-name="uni0162" unicode="&#x162;" horiz-adv-x="1158" 
d="M438 -374l25 61q41 -72 118 -72q37 0 67 17.5t46.5 46t16.5 60.5q0 33 -17.5 62t-47 46t-65.5 17q-27 0 -48 -9l61 145h-26v1358h-533v91h1165v-91h-533v-1358h-24l-38 -92q48 -2 87 -25.5t60.5 -62t21.5 -82.5q0 -49 -25 -90t-69 -65t-98 -24q-87 0 -144 67z" />
    <glyph glyph-name="uni021A" unicode="&#x21a;" horiz-adv-x="1158" 
d="M568 1358h-533v91h1165v-91h-533v-1358h-99v1358zM603 -215h93l-108 -226h-56z" />
    <glyph glyph-name="uni1E6C" unicode="&#x1e6c;" horiz-adv-x="1158" 
d="M568 1358h-533v91h1165v-91h-533v-1358h-99v1358zM564.5 -324.5q-20.5 20.5 -20.5 52.5t21 52.5t53 20.5t52.5 -20.5t20.5 -52.5t-20.5 -52.5t-52.5 -20.5q-33 0 -53.5 20.5z" />
    <glyph glyph-name="U" unicode="U" horiz-adv-x="1597" 
d="M480 38.5q-136 69.5 -209.5 190.5t-73.5 271v949h99v-947q0 -131 65.5 -230.5t179.5 -154t256 -54.5q150 0 263.5 57.5t175 157.5t61.5 224v947h98v-949q0 -157 -76.5 -278t-213 -187t-308.5 -66q-181 0 -317 69.5z" />
    <glyph glyph-name="Uacute" unicode="&#xda;" horiz-adv-x="1597" 
d="M689 1642l252 300l71 -38l-277 -293zM480 38.5q-136 69.5 -209.5 190.5t-73.5 271v949h99v-947q0 -131 65.5 -230.5t179.5 -154t256 -54.5q150 0 263.5 57.5t175 157.5t61.5 224v947h98v-949q0 -157 -76.5 -278t-213 -187t-308.5 -66q-181 0 -317 69.5z" />
    <glyph glyph-name="Ubreve" unicode="&#x16c;" horiz-adv-x="1597" 
d="M651.5 1674.5q-64.5 39.5 -101 105t-36.5 140.5h57q0 -62 31 -112t83 -78.5t110 -28.5q62 0 113.5 30t80.5 80.5t29 108.5h60q0 -80 -39 -145.5t-104 -102.5t-140 -37q-79 0 -143.5 39.5zM480 38.5q-136 69.5 -209.5 190.5t-73.5 271v949h99v-947q0 -131 65.5 -230.5
t179.5 -154t256 -54.5q150 0 263.5 57.5t175 157.5t61.5 224v947h98v-949q0 -157 -76.5 -278t-213 -187t-308.5 -66q-181 0 -317 69.5z" />
    <glyph glyph-name="Ucircumflex" unicode="&#xdb;" horiz-adv-x="1597" 
d="M517 1652l235 280h88l235 -280l-46 -32l-232 252l-234 -252zM480 38.5q-136 69.5 -209.5 190.5t-73.5 271v949h99v-947q0 -131 65.5 -230.5t179.5 -154t256 -54.5q150 0 263.5 57.5t175 157.5t61.5 224v947h98v-949q0 -157 -76.5 -278t-213 -187t-308.5 -66
q-181 0 -317 69.5z" />
    <glyph glyph-name="Udieresis" unicode="&#xdc;" horiz-adv-x="1597" 
d="M579 1721q-21 21 -21 54q0 34 21.5 54.5t53.5 20.5q33 0 54 -21t21 -54t-21.5 -54t-53.5 -21q-33 0 -54 21zM905.5 1721.5q-21.5 21.5 -21.5 53.5q0 33 21 54t55 21t55 -21t21 -54t-21.5 -54t-54.5 -21t-54.5 21.5zM480 38.5q-136 69.5 -209.5 190.5t-73.5 271v949h99
v-947q0 -131 65.5 -230.5t179.5 -154t256 -54.5q150 0 263.5 57.5t175 157.5t61.5 224v947h98v-949q0 -157 -76.5 -278t-213 -187t-308.5 -66q-181 0 -317 69.5z" />
    <glyph glyph-name="Ugrave" unicode="&#xd9;" horiz-adv-x="1597" 
d="M581 1904l71 38l252 -300l-46 -31zM480 38.5q-136 69.5 -209.5 190.5t-73.5 271v949h99v-947q0 -131 65.5 -230.5t179.5 -154t256 -54.5q150 0 263.5 57.5t175 157.5t61.5 224v947h98v-949q0 -157 -76.5 -278t-213 -187t-308.5 -66q-181 0 -317 69.5z" />
    <glyph glyph-name="Uhungarumlaut" unicode="&#x170;" horiz-adv-x="1597" 
d="M409 1642l252 300l72 -38l-277 -293zM863 1642l252 300l71 -38l-276 -293zM480 38.5q-136 69.5 -209.5 190.5t-73.5 271v949h99v-947q0 -131 65.5 -230.5t179.5 -154t256 -54.5q150 0 263.5 57.5t175 157.5t61.5 224v947h98v-949q0 -157 -76.5 -278t-213 -187t-308.5 -66
q-181 0 -317 69.5z" />
    <glyph glyph-name="Umacron" unicode="&#x16a;" horiz-adv-x="1597" 
d="M511 1810h571v-64h-571v64zM480 38.5q-136 69.5 -209.5 190.5t-73.5 271v949h99v-947q0 -131 65.5 -230.5t179.5 -154t256 -54.5q150 0 263.5 57.5t175 157.5t61.5 224v947h98v-949q0 -157 -76.5 -278t-213 -187t-308.5 -66q-181 0 -317 69.5z" />
    <glyph glyph-name="Uogonek" unicode="&#x172;" horiz-adv-x="1597" 
d="M724.5 -421q-43.5 20 -69 57.5t-25.5 88.5q0 74 53 129l110 115q-180 0 -315 69t-208 190t-73 272v949h99v-947q0 -130 65 -230t179 -154.5t257 -54.5q150 0 263.5 57.5t175 157t61.5 224.5v947h98v-949q0 -148 -68 -264t-190.5 -184.5t-280.5 -78.5l-134 -159
q-31 -35 -31 -85q0 -52 37.5 -83t92.5 -31q79 0 119 72l25 -61q-58 -67 -145 -67q-52 0 -95.5 20z" />
    <glyph glyph-name="Uring" unicode="&#x16e;" horiz-adv-x="1597" 
d="M699.5 1589q-43.5 26 -68 70t-24.5 94q0 52 25.5 95t69 68.5t95.5 25.5t96 -25.5t69 -69t25 -94.5q0 -54 -26.5 -97.5t-70 -68t-93.5 -24.5q-54 0 -97.5 26zM864.5 1636.5q30.5 18.5 48.5 49.5t18 67q0 37 -18.5 68t-49.5 48.5t-66 17.5q-38 0 -69 -18.5t-48.5 -49
t-17.5 -66.5q0 -37 18.5 -68t49.5 -49t67 -18q37 0 67.5 18.5zM480 38.5q-136 69.5 -209.5 190.5t-73.5 271v949h99v-947q0 -131 65.5 -230.5t179.5 -154t256 -54.5q150 0 263.5 57.5t175 157.5t61.5 224v947h98v-949q0 -157 -76.5 -278t-213 -187t-308.5 -66
q-181 0 -317 69.5z" />
    <glyph glyph-name="Utilde" unicode="&#x168;" horiz-adv-x="1597" 
d="M858.5 1705.5q-29.5 12.5 -75.5 43.5q-41 27 -65 37.5t-51 10.5q-35 0 -63.5 -22t-46.5 -59l-47 39q25 50 66.5 79t91.5 29q36 0 67 -13t75 -43q37 -26 62.5 -37t52.5 -11q36 0 65 22t46 58l46 -38q-25 -50 -66 -79t-92 -29q-36 0 -65.5 12.5zM480 38.5
q-136 69.5 -209.5 190.5t-73.5 271v949h99v-947q0 -131 65.5 -230.5t179.5 -154t256 -54.5q150 0 263.5 57.5t175 157.5t61.5 224v947h98v-949q0 -157 -76.5 -278t-213 -187t-308.5 -66q-181 0 -317 69.5z" />
    <glyph glyph-name="V" unicode="V" horiz-adv-x="1334" 
d="M50 1449h110l507 -1256l23 -73l23 73l508 1256h110l-586 -1449h-109z" />
    <glyph glyph-name="W" unicode="W" horiz-adv-x="1934" 
d="M73 1449h107l332 -1225l21 -92l25 92l386 1225h78l385 -1225l25 -92l21 92l332 1225h107l-402 -1449h-106l-401 1289l-402 -1289h-106z" />
    <glyph glyph-name="Wacute" unicode="&#x1e82;" horiz-adv-x="1934" 
d="M875 1640l252 299l71 -38l-277 -293zM73 1449h107l332 -1225l21 -92l25 92l386 1225h78l385 -1225l25 -92l21 92l332 1225h107l-402 -1449h-106l-401 1289l-402 -1289h-106z" />
    <glyph glyph-name="Wcircumflex" unicode="&#x174;" horiz-adv-x="1934" 
d="M704 1649l235 281h88l235 -281l-46 -31l-233 252l-233 -252zM73 1449h107l332 -1225l21 -92l25 92l386 1225h78l385 -1225l25 -92l21 92l332 1225h107l-402 -1449h-106l-401 1289l-402 -1289h-106z" />
    <glyph glyph-name="Wdieresis" unicode="&#x1e84;" horiz-adv-x="1934" 
d="M764.5 1720.5q-21.5 21.5 -21.5 53.5q0 33 21.5 53.5t54.5 20.5q34 0 54.5 -20.5t20.5 -53.5t-21.5 -54t-53.5 -21q-33 0 -54.5 21.5zM1092 1720.5q-21 21.5 -21 53.5q0 34 21.5 54t53.5 20q33 0 54.5 -21t21.5 -53q0 -33 -21.5 -54t-54.5 -21t-54 21.5zM73 1449h107
l332 -1225l21 -92l25 92l386 1225h78l385 -1225l25 -92l21 92l332 1225h107l-402 -1449h-106l-401 1289l-402 -1289h-106z" />
    <glyph glyph-name="Wgrave" unicode="&#x1e80;" horiz-adv-x="1934" 
d="M767 1901l71 38l252 -299l-46 -32zM73 1449h107l332 -1225l21 -92l25 92l386 1225h78l385 -1225l25 -92l21 92l332 1225h107l-402 -1449h-106l-401 1289l-402 -1289h-106z" />
    <glyph glyph-name="X" unicode="X" horiz-adv-x="1284" 
d="M585 726l-523 723h120l454 -620l18 -34l18 34l453 620h121l-523 -723l524 -726h-122l-454 621l-17 34l-18 -34l-453 -621h-122z" />
    <glyph glyph-name="Y" unicode="Y" horiz-adv-x="1149" 
d="M566 687l-544 762h122l436 -605l35 -56l33 56l438 605h121l-543 -762v-687h-98v687z" />
    <glyph glyph-name="Yacute" unicode="&#xdd;" horiz-adv-x="1149" 
d="M507 1640l252 299l71 -38l-277 -293zM566 687l-544 762h122l436 -605l35 -56l33 56l438 605h121l-543 -762v-687h-98v687z" />
    <glyph glyph-name="Ycircumflex" unicode="&#x176;" horiz-adv-x="1149" 
d="M336 1649l235 281h88l236 -281l-47 -31l-232 252l-234 -252zM566 687l-544 762h122l436 -605l35 -56l33 56l438 605h121l-543 -762v-687h-98v687z" />
    <glyph glyph-name="Ydieresis" unicode="&#x178;" horiz-adv-x="1149" 
d="M397 1720.5q-21 21.5 -21 53.5q0 33 21 53.5t54 20.5q34 0 55 -20.5t21 -53.5t-21.5 -54t-54.5 -21t-54 21.5zM724 1720.5q-21 21.5 -21 53.5q0 34 21.5 54t53.5 20q33 0 54.5 -21t21.5 -53q0 -33 -21.5 -54t-54.5 -21t-54 21.5zM566 687l-544 762h122l436 -605l35 -56
l33 56l438 605h121l-543 -762v-687h-98v687z" />
    <glyph glyph-name="Ygrave" unicode="&#x1ef2;" horiz-adv-x="1149" 
d="M399 1901l72 38l252 -299l-47 -32zM566 687l-544 762h122l436 -605l35 -56l33 56l438 605h121l-543 -762v-687h-98v687z" />
    <glyph glyph-name="Z" unicode="Z" horiz-adv-x="1156" 
d="M82 66l895 1292h-895v91h1029v-66l-896 -1292h896v-91h-1029v66z" />
    <glyph glyph-name="Zacute" unicode="&#x179;" horiz-adv-x="1156" 
d="M488 1642l252 300l71 -38l-276 -293zM82 66l895 1292h-895v91h1029v-66l-896 -1292h896v-91h-1029v66z" />
    <glyph glyph-name="Zcaron" unicode="&#x17d;" horiz-adv-x="1156" 
d="M317 1901l47 31l232 -252l233 252l47 -31l-236 -281h-88zM82 66l895 1292h-895v91h1029v-66l-896 -1292h896v-91h-1029v66z" />
    <glyph glyph-name="Zdotaccent" unicode="&#x17b;" horiz-adv-x="1156" 
d="M542 1721q-21 21 -21 54t21.5 54t53.5 21q34 0 54.5 -21t20.5 -54t-21.5 -54t-53.5 -21q-33 0 -54 21zM82 66l895 1292h-895v91h1029v-66l-896 -1292h896v-91h-1029v66z" />
    <glyph glyph-name="uni0232" unicode="&#x232;" horiz-adv-x="1149" 
d="M329 1806h572v-64h-572v64zM566 687l-544 762h122l436 -605l35 -56l33 56l438 605h121l-543 -762v-687h-98v687z" />
    <glyph glyph-name="uni1E32" unicode="&#x1e32;" horiz-adv-x="1245" 
d="M215 1449h99v-676l763 676h141l-807 -708l834 -741h-152l-779 703v-703h-99v1449zM672 -324.5q-21 20.5 -21 52.5t20.5 52.5t53.5 20.5t53.5 -20.5t20.5 -52.5t-21 -52.5t-53 -20.5t-53 20.5z" />
    <glyph glyph-name="uni1E3A" unicode="&#x1e3a;" horiz-adv-x="1179" 
d="M209 1449h98v-1358h879v-91h-977v1449zM412 -244h571v-65h-571v65z" />
    <glyph glyph-name="uni1E48" unicode="&#x1e48;" horiz-adv-x="1613" 
d="M209 1449h99l980 -1298l-6 64v1234h99v-1449h-99l-980 1299l6 -64v-1235h-99v1449zM510 -243h571v-64h-571v64z" />
    <glyph glyph-name="uni1E58" unicode="&#x1e58;" horiz-adv-x="1497" 
d="M734 1721.5q-21 21.5 -21 53.5q0 34 21.5 54.5t53.5 20.5q34 0 55 -21t21 -54t-21.5 -54t-54.5 -21t-54 21.5zM888 1449q231 0 352 -103t121 -310q0 -184 -104 -284.5t-282 -117.5l407 -634h-121l-392 622h-561v-622h-98v1449h678zM1076.5 750q85.5 36 134.5 108.5
t49 177.5q0 322 -379 322h-573v-645l573 1q110 0 195.5 36z" />
    <glyph glyph-name="uni1E5E" unicode="&#x1e5e;" horiz-adv-x="1497" 
d="M888 1449q231 0 352 -103t121 -310q0 -184 -104 -284.5t-282 -117.5l407 -634h-121l-392 622h-561v-622h-98v1449h678zM1076.5 750q85.5 36 134.5 108.5t49 177.5q0 322 -379 322h-573v-645l573 1q110 0 195.5 36zM510 -243h571v-64h-571v64z" />
    <glyph glyph-name="uni1E88" unicode="&#x1e88;" horiz-adv-x="1934" 
d="M73 1449h107l332 -1225l21 -92l25 92l386 1225h78l385 -1225l25 -92l21 92l332 1225h107l-402 -1449h-106l-401 1289l-402 -1289h-106zM929.5 -324.5q-20.5 20.5 -20.5 52.5t20.5 52.5t52.5 20.5q33 0 53.5 -20.5t20.5 -52.5t-21 -52.5t-53 -20.5t-52.5 20.5z" />
    <glyph glyph-name="uni1E92" unicode="&#x1e92;" horiz-adv-x="1156" 
d="M82 66l895 1292h-895v91h1029v-66l-896 -1292h896v-91h-1029v66zM542.5 -324.5q-20.5 20.5 -20.5 52.5t21 52.5t53 20.5q34 0 54 -20.5t20 -52.5t-21 -52.5t-53 -20.5q-33 0 -53.5 20.5z" />
    <glyph glyph-name="uni1EBC" unicode="&#x1ebc;" horiz-adv-x="1287" 
d="M779.5 1705.5q-30.5 12.5 -74.5 43.5q-41 27 -65 37.5t-51 10.5q-35 0 -64 -22t-46 -59l-47 39q25 50 66.5 79t91.5 29q36 0 65 -12.5t77 -43.5q41 -27 64.5 -37.5t50.5 -10.5q35 0 64.5 22t46.5 58l46 -38q-25 -50 -66 -79t-92 -29q-36 0 -66.5 12.5zM209 1449h1018v-91
h-920v-580h795v-80h-795v-607h920v-91h-1018v1449z" />
    <glyph glyph-name="uni1EF4" unicode="&#x1ef4;" horiz-adv-x="1149" 
d="M566 687l-544 762h122l436 -605l35 -56l33 56l438 605h121l-543 -762v-687h-98v687zM561.5 -324.5q-20.5 20.5 -20.5 52.5t21 52.5t53 20.5t52.5 -20.5t20.5 -52.5t-20.5 -52.5t-52.5 -20.5q-33 0 -53.5 20.5z" />
    <glyph glyph-name="a" unicode="a" horiz-adv-x="1353" 
d="M354.5 39.5q-118.5 70.5 -183 193t-64.5 273.5q0 161 68.5 283t187 188.5t265.5 66.5q159 0 277.5 -77.5t174.5 -207.5l4 254h83v-1013h-60l-21 247q-60 -128 -180 -203t-278 -75q-155 0 -273.5 70.5zM868 114q100 59 155 162t55 230q0 134 -57.5 237t-158 159t-224.5 56
q-131 0 -231.5 -59.5t-155 -162.5t-54.5 -230q0 -134 57.5 -236.5t158 -158.5t225.5 -56q130 0 230 59z" />
    <glyph glyph-name="aacute" unicode="&#xe1;" horiz-adv-x="1353" 
d="M529 1203l252 300l71 -38l-277 -293zM354.5 39.5q-118.5 70.5 -183 193t-64.5 273.5q0 161 68.5 283t187 188.5t265.5 66.5q159 0 277.5 -77.5t174.5 -207.5l4 254h83v-1013h-60l-21 247q-60 -128 -180 -203t-278 -75q-155 0 -273.5 70.5zM868 114q100 59 155 162t55 230
q0 134 -57.5 237t-158 159t-224.5 56q-131 0 -231.5 -59.5t-155 -162.5t-54.5 -230q0 -134 57.5 -236.5t158 -158.5t225.5 -56q130 0 230 59z" />
    <glyph glyph-name="abreve" unicode="&#x103;" horiz-adv-x="1353" 
d="M491.5 1234.5q-64.5 39.5 -101 105t-36.5 140.5h57q0 -62 31 -112t83 -78.5t110 -28.5q62 0 113.5 30t81 80.5t29.5 108.5h59q0 -80 -39 -145.5t-104 -102.5t-140 -37q-79 0 -143.5 39.5zM354.5 39.5q-118.5 70.5 -183 193t-64.5 273.5q0 161 68.5 283t187 188.5
t265.5 66.5q159 0 277.5 -77.5t174.5 -207.5l4 254h83v-1013h-60l-21 247q-60 -128 -180 -203t-278 -75q-155 0 -273.5 70.5zM868 114q100 59 155 162t55 230q0 134 -57.5 237t-158 159t-224.5 56q-131 0 -231.5 -59.5t-155 -162.5t-54.5 -230q0 -134 57.5 -236.5
t158 -158.5t225.5 -56q130 0 230 59z" />
    <glyph glyph-name="acircumflex" unicode="&#xe2;" horiz-adv-x="1353" 
d="M357 1213l235 281h88l236 -281l-47 -31l-232 252l-234 -252zM354.5 39.5q-118.5 70.5 -183 193t-64.5 273.5q0 161 68.5 283t187 188.5t265.5 66.5q159 0 277.5 -77.5t174.5 -207.5l4 254h83v-1013h-60l-21 247q-60 -128 -180 -203t-278 -75q-155 0 -273.5 70.5zM868 114
q100 59 155 162t55 230q0 134 -57.5 237t-158 159t-224.5 56q-131 0 -231.5 -59.5t-155 -162.5t-54.5 -230q0 -134 57.5 -236.5t158 -158.5t225.5 -56q130 0 230 59z" />
    <glyph glyph-name="adieresis" unicode="&#xe4;" horiz-adv-x="1353" 
d="M419 1284q-21 21 -21 54q0 34 21.5 54t53.5 20q33 0 54.5 -21t21.5 -53q0 -33 -21.5 -54t-54.5 -21t-54 21zM745.5 1284q-21.5 21 -21.5 54t21 53.5t55 20.5q33 0 54.5 -21t21.5 -53q0 -33 -21.5 -54t-54.5 -21t-54.5 21zM354.5 39.5q-118.5 70.5 -183 193t-64.5 273.5
q0 161 68.5 283t187 188.5t265.5 66.5q159 0 277.5 -77.5t174.5 -207.5l4 254h83v-1013h-60l-21 247q-60 -128 -180 -203t-278 -75q-155 0 -273.5 70.5zM868 114q100 59 155 162t55 230q0 134 -57.5 237t-158 159t-224.5 56q-131 0 -231.5 -59.5t-155 -162.5t-54.5 -230
q0 -134 57.5 -236.5t158 -158.5t225.5 -56q130 0 230 59z" />
    <glyph glyph-name="agrave" unicode="&#xe0;" horiz-adv-x="1353" 
d="M421 1465l71 38l252 -300l-46 -31zM354.5 39.5q-118.5 70.5 -183 193t-64.5 273.5q0 161 68.5 283t187 188.5t265.5 66.5q159 0 277.5 -77.5t174.5 -207.5l4 254h83v-1013h-60l-21 247q-60 -128 -180 -203t-278 -75q-155 0 -273.5 70.5zM868 114q100 59 155 162t55 230
q0 134 -57.5 237t-158 159t-224.5 56q-131 0 -231.5 -59.5t-155 -162.5t-54.5 -230q0 -134 57.5 -236.5t158 -158.5t225.5 -56q130 0 230 59z" />
    <glyph glyph-name="amacron" unicode="&#x101;" horiz-adv-x="1353" 
d="M351 1370h571v-64h-571v64zM354.5 39.5q-118.5 70.5 -183 193t-64.5 273.5q0 161 68.5 283t187 188.5t265.5 66.5q159 0 277.5 -77.5t174.5 -207.5l4 254h83v-1013h-60l-21 247q-60 -128 -180 -203t-278 -75q-155 0 -273.5 70.5zM868 114q100 59 155 162t55 230
q0 134 -57.5 237t-158 159t-224.5 56q-131 0 -231.5 -59.5t-155 -162.5t-54.5 -230q0 -134 57.5 -236.5t158 -158.5t225.5 -56q130 0 230 59z" />
    <glyph glyph-name="aogonek" unicode="&#x105;" horiz-adv-x="1353" 
d="M1011.5 -421q-43.5 20 -69.5 58t-26 88q0 75 54 129l147 146h-10l-21 247q-62 -129 -180 -203.5t-278 -74.5q-157 0 -275.5 71t-182 193t-63.5 273q0 160 68 282t186.5 189t266.5 67q159 0 277 -77t175 -208l4 254h83v-1013l-159 -186q-30 -36 -30 -85q0 -52 37.5 -83
t92.5 -31q78 0 118 72l26 -61q-58 -67 -145 -67q-52 0 -95.5 20zM871 115q100 60 153.5 162.5t53.5 228.5q0 134 -57 236.5t-157.5 159t-225.5 56.5q-133 0 -233 -59t-154 -162t-54 -231q0 -133 57.5 -235.5t158 -159t225.5 -56.5q133 0 233 60z" />
    <glyph glyph-name="aring" unicode="&#xe5;" horiz-adv-x="1353" 
d="M539.5 1152q-43.5 26 -68 70t-24.5 94q0 52 25.5 95t69 68.5t95.5 25.5t96 -25.5t69 -69t25 -94.5q0 -54 -26.5 -97.5t-70 -68t-93.5 -24.5q-54 0 -97.5 26zM704.5 1199.5q30.5 18.5 48.5 49.5t18 67q0 37 -18.5 68t-49.5 48.5t-66 17.5q-38 0 -69 -18.5t-48.5 -49
t-17.5 -66.5q0 -37 18.5 -68t49.5 -49t67 -18q37 0 67.5 18.5zM354.5 39.5q-118.5 70.5 -183 193t-64.5 273.5q0 161 68.5 283t187 188.5t265.5 66.5q159 0 277.5 -77.5t174.5 -207.5l4 254h83v-1013h-60l-21 247q-60 -128 -180 -203t-278 -75q-155 0 -273.5 70.5zM868 114
q100 59 155 162t55 230q0 134 -57.5 237t-158 159t-224.5 56q-131 0 -231.5 -59.5t-155 -162.5t-54.5 -230q0 -134 57.5 -236.5t158 -158.5t225.5 -56q130 0 230 59z" />
    <glyph glyph-name="atilde" unicode="&#xe3;" horiz-adv-x="1353" 
d="M698.5 1265.5q-29.5 12.5 -75.5 43.5q-40 27 -64 37.5t-52 10.5q-35 0 -63.5 -22t-46.5 -59l-47 39q26 51 67 79.5t91 28.5q36 0 67 -13t75 -43q37 -26 62.5 -37t52.5 -11q36 0 65 22t46 58l46 -38q-25 -51 -65.5 -79.5t-92.5 -28.5q-36 0 -65.5 12.5zM354.5 39.5
q-118.5 70.5 -183 193t-64.5 273.5q0 161 68.5 283t187 188.5t265.5 66.5q159 0 277.5 -77.5t174.5 -207.5l4 254h83v-1013h-60l-21 247q-60 -128 -180 -203t-278 -75q-155 0 -273.5 70.5zM868 114q100 59 155 162t55 230q0 134 -57.5 237t-158 159t-224.5 56
q-131 0 -231.5 -59.5t-155 -162.5t-54.5 -230q0 -134 57.5 -236.5t158 -158.5t225.5 -56q130 0 230 59z" />
    <glyph glyph-name="ae" unicode="&#xe6;" horiz-adv-x="2228" 
d="M354.5 39.5q-118.5 70.5 -183 193t-64.5 273.5q0 160 68.5 282t187 188.5t265.5 66.5q156 0 276 -76t176 -208l4 254h83v-267q58 139 178.5 218t279.5 79q140 0 255 -59t182 -173.5t67 -272.5q0 -38 -2 -50h-942q0 -131 57.5 -231.5t157 -155.5t222.5 -55q133 0 233.5 61
t153.5 165l80 -35q-62 -122 -185 -195t-282 -73t-279 80t-176 217v-266h-60l-21 247q-60 -128 -180 -203t-278 -75q-155 0 -273.5 70.5zM1979.5 772.5q-54.5 92.5 -147.5 143t-211 50.5q-123 0 -219 -53t-151.5 -145.5t-63.5 -209.5h850q-3 122 -57.5 214.5zM868 114
q100 59 155 162t55 230q0 134 -57.5 236.5t-158 158.5t-224.5 56q-132 0 -232 -59t-154.5 -162t-54.5 -230q0 -134 57.5 -236.5t158 -158.5t225.5 -56q130 0 230 59z" />
    <glyph glyph-name="b" unicode="b" horiz-adv-x="1374" 
d="M451 44q-120 75 -180 203l-20 -247h-60v1449h90v-689q57 131 173.5 207.5t275.5 76.5q156 0 274.5 -70.5t182.5 -193t64 -274.5q0 -160 -68.5 -282t-187 -188.5t-265.5 -66.5q-159 0 -279 75zM951 114q100 59 154.5 162t54.5 230q0 134 -57.5 237t-158 159t-224.5 56
q-131 0 -231.5 -59.5t-155 -162.5t-54.5 -230q0 -134 57.5 -236.5t158 -158.5t225.5 -56q131 0 231 59z" />
    <glyph glyph-name="c" unicode="c" horiz-adv-x="1192" 
d="M357.5 39.5q-120.5 70.5 -186 193t-65.5 273.5q0 161 69.5 283t190 188.5t269.5 66.5q163 0 282 -76.5t181 -209.5l-83 -30q-55 108 -151 169t-229 61q-131 0 -231 -59.5t-155 -162.5t-55 -230q0 -134 58 -236.5t158.5 -158.5t224.5 -56q134 0 236 62.5t155 167.5l82 -30
q-62 -131 -185.5 -208.5t-287.5 -77.5q-157 0 -277.5 70.5z" />
    <glyph glyph-name="cacute" unicode="&#x107;" horiz-adv-x="1192" 
d="M499 1203l252 300l71 -38l-276 -293zM357.5 39.5q-120.5 70.5 -186 193t-65.5 273.5q0 161 69.5 283t190 188.5t269.5 66.5q163 0 282 -76.5t181 -209.5l-83 -30q-55 108 -151 169t-229 61q-131 0 -231 -59.5t-155 -162.5t-55 -230q0 -134 58 -236.5t158.5 -158.5
t224.5 -56q134 0 236 62.5t155 167.5l82 -30q-62 -131 -185.5 -208.5t-287.5 -77.5q-157 0 -277.5 70.5z" />
    <glyph glyph-name="ccaron" unicode="&#x10d;" horiz-adv-x="1192" 
d="M328 1462l46 32l233 -252l233 252l47 -32l-236 -280h-88zM357.5 39.5q-120.5 70.5 -186 193t-65.5 273.5q0 161 69.5 283t190 188.5t269.5 66.5q163 0 282 -76.5t181 -209.5l-83 -30q-55 108 -151 169t-229 61q-131 0 -231 -59.5t-155 -162.5t-55 -230q0 -134 58 -236.5
t158.5 -158.5t224.5 -56q134 0 236 62.5t155 167.5l82 -30q-62 -131 -185.5 -208.5t-287.5 -77.5q-157 0 -277.5 70.5z" />
    <glyph glyph-name="ccedilla" unicode="&#xe7;" horiz-adv-x="1192" 
d="M457 -374l25 61q41 -72 119 -72q37 0 67 17.5t46.5 46t16.5 60.5q0 33 -17.5 62t-47 46t-65.5 17q-26 0 -49 -9l48 115q-149 8 -261 80.5t-172.5 191.5t-60.5 264q0 160 69.5 282t190 189t269.5 67q164 0 281.5 -76t181.5 -210l-83 -30q-54 108 -151 169t-229 61
q-129 0 -229.5 -58t-156 -160.5t-55.5 -233.5q0 -137 59 -239t159.5 -157t222.5 -55q135 0 236 61.5t155 168.5l82 -30q-65 -136 -185.5 -208.5t-272.5 -76.5l-25 -62q47 -2 85.5 -25.5t60 -62t21.5 -82.5q0 -50 -25 -91t-68.5 -64.5t-96.5 -23.5q-87 0 -145 67z" />
    <glyph glyph-name="ccircumflex" unicode="&#x109;" horiz-adv-x="1192" 
d="M328 1213l235 281h88l236 -281l-47 -31l-233 252l-233 -252zM357.5 39.5q-120.5 70.5 -186 193t-65.5 273.5q0 161 69.5 283t190 188.5t269.5 66.5q163 0 282 -76.5t181 -209.5l-83 -30q-55 108 -151 169t-229 61q-131 0 -231 -59.5t-155 -162.5t-55 -230
q0 -134 58 -236.5t158.5 -158.5t224.5 -56q134 0 236 62.5t155 167.5l82 -30q-62 -131 -185.5 -208.5t-287.5 -77.5q-157 0 -277.5 70.5z" />
    <glyph glyph-name="cdotaccent" unicode="&#x10b;" horiz-adv-x="1192" 
d="M552.5 1284.5q-21.5 21.5 -21.5 53.5q0 33 21.5 53.5t54.5 20.5q34 0 54.5 -20.5t20.5 -53.5t-21.5 -54t-53.5 -21q-33 0 -54.5 21.5zM357.5 39.5q-120.5 70.5 -186 193t-65.5 273.5q0 161 69.5 283t190 188.5t269.5 66.5q163 0 282 -76.5t181 -209.5l-83 -30
q-55 108 -151 169t-229 61q-131 0 -231 -59.5t-155 -162.5t-55 -230q0 -134 58 -236.5t158.5 -158.5t224.5 -56q134 0 236 62.5t155 167.5l82 -30q-62 -131 -185.5 -208.5t-287.5 -77.5q-157 0 -277.5 70.5z" />
    <glyph glyph-name="d" unicode="d" horiz-adv-x="1377" 
d="M354.5 39.5q-118.5 70.5 -183 193t-64.5 273.5q0 161 68.5 283t187 188.5t265.5 66.5q157 0 274.5 -76.5t173.5 -207.5v689h91v-1449h-60l-21 247q-59 -128 -179 -203t-279 -75q-155 0 -273.5 70.5zM868 114q100 59 155 162t55 230q0 134 -57.5 237t-158 159t-224.5 56
q-131 0 -231.5 -59.5t-155 -162.5t-54.5 -230q0 -134 57.5 -236.5t158 -158.5t225.5 -56q130 0 230 59z" />
    <glyph glyph-name="eth" unicode="&#xf0;" horiz-adv-x="1286" 
d="M345.5 39.5q-120.5 70.5 -186.5 193t-66 273.5q0 159 69.5 280.5t189.5 187.5t266 66q92 0 170.5 -28.5t139.5 -81.5l-164 362l-368 -98l-16 58l358 96l-59 132h95l49 -108l278 73l15 -58l-267 -72l251 -555q55 -125 55 -254q0 -160 -69.5 -282t-190.5 -188.5t-271 -66.5
q-158 0 -278.5 70.5zM855 114q100 59 155 162t55 230q0 134 -58 236.5t-158.5 158.5t-224.5 56q-131 0 -231.5 -59t-155 -162t-54.5 -230q0 -134 57.5 -236.5t158 -158.5t225.5 -56q131 0 231 59z" />
    <glyph glyph-name="dcaron" unicode="&#x10f;" horiz-adv-x="1772" 
d="M354.5 39.5q-118.5 70.5 -183 193t-64.5 273.5q0 161 68.5 283t187 188.5t265.5 66.5q157 0 274.5 -76.5t173.5 -207.5v689h91v-1449h-60l-21 247q-59 -128 -179 -203t-279 -75q-155 0 -273.5 70.5zM1566 1449h98l-111 -234h-60zM868 114q100 59 155 162t55 230
q0 134 -57.5 237t-158 159t-224.5 56q-131 0 -231.5 -59.5t-155 -162.5t-54.5 -230q0 -134 57.5 -236.5t158 -158.5t225.5 -56q130 0 230 59z" />
    <glyph glyph-name="dcroat" unicode="&#x111;" horiz-adv-x="1377" 
d="M353.5 39.5q-118.5 70.5 -182.5 193t-64 273.5q0 160 68.5 282.5t187 189t265.5 66.5q159 0 275.5 -77t172.5 -207v440h-433v61h433v188h91v-188h169v-61h-169v-1200h-60l-21 247q-62 -129 -180 -203.5t-278 -74.5q-156 0 -274.5 70.5zM869 114q100 59 154.5 162
t54.5 230q0 135 -57.5 238t-157.5 158.5t-225 55.5q-130 0 -230 -57.5t-155.5 -160.5t-55.5 -234q0 -126 54 -229t154 -162.5t233 -59.5q131 0 231 59z" />
    <glyph glyph-name="uni1E0D" unicode="&#x1e0d;" horiz-adv-x="1377" 
d="M354.5 39.5q-118.5 70.5 -183 193t-64.5 273.5q0 161 68.5 283t187 188.5t265.5 66.5q157 0 274.5 -76.5t173.5 -207.5v689h91v-1449h-60l-21 247q-59 -128 -179 -203t-279 -75q-155 0 -273.5 70.5zM868 114q100 59 155 162t55 230q0 134 -57.5 237t-158 159t-224.5 56
q-131 0 -231.5 -59.5t-155 -162.5t-54.5 -230q0 -134 57.5 -236.5t158 -158.5t225.5 -56q130 0 230 59zM583.5 -324.5q-20.5 20.5 -20.5 52.5t21 52.5t53 20.5q34 0 53.5 -20.5t19.5 -52.5t-20.5 -52.5t-52.5 -20.5q-33 0 -53.5 20.5z" />
    <glyph glyph-name="e" unicode="e" horiz-adv-x="1242" 
d="M359.5 38.5q-120.5 69.5 -187 192t-66.5 275.5q0 160 69.5 282.5t190 189t269.5 66.5q142 0 257.5 -59.5t183.5 -174t68 -272.5q0 -28 -2 -50h-943q1 -132 58.5 -232.5t156.5 -155t222 -54.5q132 0 232 60.5t155 165.5l81 -35q-62 -122 -186 -195t-283 -73
q-155 0 -275.5 69.5zM995 769q-52 93 -145.5 145.5t-214.5 52.5q-122 0 -218 -53t-152 -146t-65 -210h850q-3 118 -55 211z" />
    <glyph glyph-name="eacute" unicode="&#xe9;" horiz-adv-x="1242" 
d="M517 1203l252 300l71 -38l-276 -293zM359.5 38.5q-120.5 69.5 -187 192t-66.5 275.5q0 160 69.5 282.5t190 189t269.5 66.5q142 0 257.5 -59.5t183.5 -174t68 -272.5q0 -28 -2 -50h-943q1 -132 58.5 -232.5t156.5 -155t222 -54.5q132 0 232 60.5t155 165.5l81 -35
q-62 -122 -186 -195t-283 -73q-155 0 -275.5 69.5zM995 769q-52 93 -145.5 145.5t-214.5 52.5q-122 0 -218 -53t-152 -146t-65 -210h850q-3 118 -55 211z" />
    <glyph glyph-name="ebreve" unicode="&#x115;" horiz-adv-x="1242" 
d="M480.5 1234.5q-63.5 39.5 -100 105t-36.5 140.5h56q0 -62 31 -112t82.5 -78.5t109.5 -28.5q63 0 114 30t80.5 80.5t29.5 108.5h60q0 -81 -39 -146t-104.5 -102t-140.5 -37q-79 0 -142.5 39.5zM359.5 38.5q-120.5 69.5 -187 192t-66.5 275.5q0 160 69.5 282.5t190 189
t269.5 66.5q142 0 257.5 -59.5t183.5 -174t68 -272.5q0 -28 -2 -50h-943q1 -132 58.5 -232.5t156.5 -155t222 -54.5q132 0 232 60.5t155 165.5l81 -35q-62 -122 -186 -195t-283 -73q-155 0 -275.5 69.5zM995 769q-52 93 -145.5 145.5t-214.5 52.5q-122 0 -218 -53t-152 -146
t-65 -210h850q-3 118 -55 211z" />
    <glyph glyph-name="ecaron" unicode="&#x11b;" horiz-adv-x="1242" 
d="M346 1462l46 32l233 -252l233 252l47 -32l-236 -280h-88zM359.5 38.5q-120.5 69.5 -187 192t-66.5 275.5q0 160 69.5 282.5t190 189t269.5 66.5q142 0 257.5 -59.5t183.5 -174t68 -272.5q0 -28 -2 -50h-943q1 -132 58.5 -232.5t156.5 -155t222 -54.5q132 0 232 60.5
t155 165.5l81 -35q-62 -122 -186 -195t-283 -73q-155 0 -275.5 69.5zM995 769q-52 93 -145.5 145.5t-214.5 52.5q-122 0 -218 -53t-152 -146t-65 -210h850q-3 118 -55 211z" />
    <glyph glyph-name="ecircumflex" unicode="&#xea;" horiz-adv-x="1242" 
d="M346 1213l235 281h88l236 -281l-47 -31l-233 252l-233 -252zM359.5 38.5q-120.5 69.5 -187 192t-66.5 275.5q0 160 69.5 282.5t190 189t269.5 66.5q142 0 257.5 -59.5t183.5 -174t68 -272.5q0 -28 -2 -50h-943q1 -132 58.5 -232.5t156.5 -155t222 -54.5q132 0 232 60.5
t155 165.5l81 -35q-62 -122 -186 -195t-283 -73q-155 0 -275.5 69.5zM995 769q-52 93 -145.5 145.5t-214.5 52.5q-122 0 -218 -53t-152 -146t-65 -210h850q-3 118 -55 211z" />
    <glyph glyph-name="edieresis" unicode="&#xeb;" horiz-adv-x="1242" 
d="M407 1284.5q-21 21.5 -21 53.5q0 33 21 53.5t54 20.5q35 0 55.5 -20.5t20.5 -53.5t-21.5 -54t-54.5 -21t-54 21.5zM734.5 1284.5q-21.5 21.5 -21.5 53.5q0 33 21.5 53.5t54.5 20.5t54 -21t21 -53q0 -33 -21 -54t-54 -21t-54.5 21.5zM359.5 38.5q-120.5 69.5 -187 192
t-66.5 275.5q0 160 69.5 282.5t190 189t269.5 66.5q142 0 257.5 -59.5t183.5 -174t68 -272.5q0 -28 -2 -50h-943q1 -132 58.5 -232.5t156.5 -155t222 -54.5q132 0 232 60.5t155 165.5l81 -35q-62 -122 -186 -195t-283 -73q-155 0 -275.5 69.5zM995 769q-52 93 -145.5 145.5
t-214.5 52.5q-122 0 -218 -53t-152 -146t-65 -210h850q-3 118 -55 211z" />
    <glyph glyph-name="edotaccent" unicode="&#x117;" horiz-adv-x="1242" 
d="M571 1284q-21 21 -21 54t21 53.5t54 20.5q34 0 54.5 -20.5t20.5 -53.5t-21.5 -54t-53.5 -21q-33 0 -54 21zM359.5 38.5q-120.5 69.5 -187 192t-66.5 275.5q0 160 69.5 282.5t190 189t269.5 66.5q142 0 257.5 -59.5t183.5 -174t68 -272.5q0 -28 -2 -50h-943
q1 -132 58.5 -232.5t156.5 -155t222 -54.5q132 0 232 60.5t155 165.5l81 -35q-62 -122 -186 -195t-283 -73q-155 0 -275.5 69.5zM995 769q-52 93 -145.5 145.5t-214.5 52.5q-122 0 -218 -53t-152 -146t-65 -210h850q-3 118 -55 211z" />
    <glyph glyph-name="egrave" unicode="&#xe8;" horiz-adv-x="1242" 
d="M410 1465l71 38l252 -300l-47 -31zM359.5 38.5q-120.5 69.5 -187 192t-66.5 275.5q0 160 69.5 282.5t190 189t269.5 66.5q142 0 257.5 -59.5t183.5 -174t68 -272.5q0 -28 -2 -50h-943q1 -132 58.5 -232.5t156.5 -155t222 -54.5q132 0 232 60.5t155 165.5l81 -35
q-62 -122 -186 -195t-283 -73q-155 0 -275.5 69.5zM995 769q-52 93 -145.5 145.5t-214.5 52.5q-122 0 -218 -53t-152 -146t-65 -210h850q-3 118 -55 211z" />
    <glyph glyph-name="emacron" unicode="&#x113;" horiz-adv-x="1242" 
d="M339 1370h572v-64h-572v64zM359.5 38.5q-120.5 69.5 -187 192t-66.5 275.5q0 160 69.5 282.5t190 189t269.5 66.5q142 0 257.5 -59.5t183.5 -174t68 -272.5q0 -28 -2 -50h-943q1 -132 58.5 -232.5t156.5 -155t222 -54.5q132 0 232 60.5t155 165.5l81 -35
q-62 -122 -186 -195t-283 -73q-155 0 -275.5 69.5zM995 769q-52 93 -145.5 145.5t-214.5 52.5q-122 0 -218 -53t-152 -146t-65 -210h850q-3 118 -55 211z" />
    <glyph glyph-name="eogonek" unicode="&#x119;" horiz-adv-x="1242" 
d="M762.5 -421q-43.5 20 -69 57.5t-25.5 88.5q0 71 53 129l157 171q-107 -56 -243 -56q-158 0 -278 70t-185.5 192.5t-65.5 274.5q0 163 70 285.5t191 187.5t268 65q143 0 258.5 -59.5t183 -174t67.5 -272.5q0 -24 -2 -50h-943q1 -132 57.5 -232t155.5 -155t224 -55
q134 0 232.5 60.5t154.5 165.5l81 -35q-28 -53 -61 -91l-283 -332q-31 -37 -31 -85q0 -52 37.5 -83t92.5 -31q77 0 119 72l25 -61q-57 -67 -145 -67q-52 0 -95.5 20zM993 774.5q-54 92.5 -147.5 142.5t-210.5 50q-124 0 -219 -53t-150 -145.5t-66 -210.5h850
q-3 124 -57 216.5z" />
    <glyph glyph-name="f" unicode="f" horiz-adv-x="655" 
d="M69 934v79h182v164q0 82 35 143.5t97 95t141 33.5h64v-79h-54q-57 0 -100.5 -25.5t-67.5 -69.5t-24 -98v-164h246v-79h-246v-934h-91v934h-182z" />
    <glyph glyph-name="g" unicode="g" horiz-adv-x="1380" 
d="M366.5 -365.5q-121.5 74.5 -185.5 202.5l83 29q54 -105 154 -166t233 -61q127 0 225.5 44.5t154.5 132t56 210.5v228q-61 -132 -173.5 -206.5t-275.5 -74.5q-156 0 -274 69.5t-182.5 191t-64.5 272.5q0 161 68.5 283t187 188.5t265.5 66.5q158 0 277 -77t175 -208l5 254
h82v-988q0 -146 -65.5 -251t-184 -159.5t-276.5 -54.5q-163 0 -284.5 74.5zM879 114q100 59 155 162t55 230q0 134 -58 237t-158.5 159t-224.5 56q-131 0 -231.5 -59.5t-155 -162.5t-54.5 -230q0 -134 57.5 -236.5t158 -158.5t225.5 -56q131 0 231 59z" />
    <glyph glyph-name="gbreve" unicode="&#x11f;" horiz-adv-x="1380" 
d="M503 1234.5q-64 39.5 -100.5 105t-36.5 140.5h57q0 -63 31 -113t82 -78t110 -28q62 0 113.5 30t80.5 80.5t29 108.5h61q0 -80 -39 -145.5t-104.5 -102.5t-140.5 -37q-79 0 -143 39.5zM366.5 -365.5q-121.5 74.5 -185.5 202.5l83 29q54 -105 154 -166t233 -61
q127 0 225.5 44.5t154.5 132t56 210.5v228q-61 -132 -173.5 -206.5t-275.5 -74.5q-156 0 -274 69.5t-182.5 191t-64.5 272.5q0 161 68.5 283t187 188.5t265.5 66.5q158 0 277 -77t175 -208l5 254h82v-988q0 -146 -65.5 -251t-184 -159.5t-276.5 -54.5q-163 0 -284.5 74.5z
M879 114q100 59 155 162t55 230q0 134 -58 237t-158.5 159t-224.5 56q-131 0 -231.5 -59.5t-155 -162.5t-54.5 -230q0 -134 57.5 -236.5t158 -158.5t225.5 -56q131 0 231 59z" />
    <glyph glyph-name="gcircumflex" unicode="&#x11d;" horiz-adv-x="1380" 
d="M368 1213l236 281h88l235 -281l-47 -31l-233 252l-232 -252zM366.5 -365.5q-121.5 74.5 -185.5 202.5l83 29q54 -105 154 -166t233 -61q127 0 225.5 44.5t154.5 132t56 210.5v228q-61 -132 -173.5 -206.5t-275.5 -74.5q-156 0 -274 69.5t-182.5 191t-64.5 272.5
q0 161 68.5 283t187 188.5t265.5 66.5q158 0 277 -77t175 -208l5 254h82v-988q0 -146 -65.5 -251t-184 -159.5t-276.5 -54.5q-163 0 -284.5 74.5zM879 114q100 59 155 162t55 230q0 134 -58 237t-158.5 159t-224.5 56q-131 0 -231.5 -59.5t-155 -162.5t-54.5 -230
q0 -134 57.5 -236.5t158 -158.5t225.5 -56q131 0 231 59z" />
    <glyph glyph-name="uni0123" unicode="&#x123;" horiz-adv-x="1380" 
d="M673 1374h61l-74 -234h-99zM366.5 -365.5q-121.5 74.5 -185.5 202.5l83 29q54 -105 154 -166t233 -61q127 0 225.5 44.5t154.5 132t56 210.5v228q-61 -132 -173.5 -206.5t-275.5 -74.5q-156 0 -274 69.5t-182.5 191t-64.5 272.5q0 161 68.5 283t187 188.5t265.5 66.5
q158 0 277 -77t175 -208l5 254h82v-988q0 -146 -65.5 -251t-184 -159.5t-276.5 -54.5q-163 0 -284.5 74.5zM879 114q100 59 155 162t55 230q0 134 -58 237t-158.5 159t-224.5 56q-131 0 -231.5 -59.5t-155 -162.5t-54.5 -230q0 -134 57.5 -236.5t158 -158.5t225.5 -56
q131 0 231 59z" />
    <glyph glyph-name="gdotaccent" unicode="&#x121;" horiz-adv-x="1380" 
d="M593 1284.5q-21 21.5 -21 53.5q0 33 21 53.5t54 20.5q35 0 55.5 -20.5t20.5 -53.5t-21.5 -54t-54.5 -21t-54 21.5zM366.5 -365.5q-121.5 74.5 -185.5 202.5l83 29q54 -105 154 -166t233 -61q127 0 225.5 44.5t154.5 132t56 210.5v228q-61 -132 -173.5 -206.5
t-275.5 -74.5q-156 0 -274 69.5t-182.5 191t-64.5 272.5q0 161 68.5 283t187 188.5t265.5 66.5q158 0 277 -77t175 -208l5 254h82v-988q0 -146 -65.5 -251t-184 -159.5t-276.5 -54.5q-163 0 -284.5 74.5zM879 114q100 59 155 162t55 230q0 134 -58 237t-158.5 159t-224.5 56
q-131 0 -231.5 -59.5t-155 -162.5t-54.5 -230q0 -134 57.5 -236.5t158 -158.5t225.5 -56q131 0 231 59z" />
    <glyph glyph-name="h" unicode="h" horiz-adv-x="1250" 
d="M287 1449v-667q32 76 89 135.5t133.5 93t163.5 33.5q121 0 213.5 -55.5t143 -150.5t50.5 -210v-628h-91v626q0 91 -42.5 166.5t-118.5 120t-170 44.5q-104 0 -189 -51t-133.5 -136t-48.5 -182v-588h-90v1449h90z" />
    <glyph glyph-name="hbar" unicode="&#x127;" horiz-adv-x="1250" 
d="M-24 1200v61h221v188h90v-188h383v-61h-383v-418q51 120 154.5 191t231.5 71q122 0 214.5 -55.5t142.5 -150.5t50 -210v-628h-91v626q0 90 -41.5 165.5t-117 120.5t-172.5 45q-106 0 -191 -51t-132.5 -136t-47.5 -182v-588h-90v1200h-221z" />
    <glyph glyph-name="hcircumflex" unicode="&#x125;" horiz-adv-x="1250" 
d="M-38 1652l235 280h88l236 -280l-47 -32l-233 252l-233 -252zM287 1449v-667q51 120 154.5 191t231.5 71q121 0 213.5 -55.5t143 -150.5t50.5 -210v-628h-91v626q0 90 -41.5 165.5t-117 120.5t-172.5 45q-106 0 -191 -51t-132.5 -136t-47.5 -182v-588h-90v1449h90z" />
    <glyph glyph-name="uni1E25" unicode="&#x1e25;" horiz-adv-x="1250" 
d="M287 1449v-667q32 76 89 135.5t133.5 93t163.5 33.5q121 0 213.5 -55.5t143 -150.5t50.5 -210v-628h-91v626q0 91 -42.5 166.5t-118.5 120t-170 44.5q-104 0 -189 -51t-133.5 -136t-48.5 -182v-588h-90v1449h90zM585.5 -324.5q-20.5 20.5 -20.5 52.5t21 52.5t53 20.5
t52.5 -20.5t20.5 -52.5t-20.5 -52.5t-52.5 -20.5q-33 0 -53.5 20.5z" />
    <glyph glyph-name="i" unicode="i" horiz-adv-x="460" 
d="M173.5 1278.5q-22.5 22.5 -22.5 57.5q0 36 23 58t57 22q36 0 58.5 -22.5t22.5 -57.5t-23 -57.5t-58 -22.5t-57.5 22.5zM186 1013h91v-1013h-91v1013z" />
    <glyph glyph-name="dotlessi" unicode="&#x131;" horiz-adv-x="460" 
d="M186 1013h91v-1013h-91v1013z" />
    <glyph glyph-name="iacute" unicode="&#xed;" horiz-adv-x="460" 
d="M124 1203l252 300l71 -38l-277 -293zM186 1013h91v-1013h-91v1013z" />
    <glyph glyph-name="ibreve" unicode="&#x12d;" horiz-adv-x="460" 
d="M87.5 1234.5q-64.5 39.5 -101 105t-36.5 140.5h57q0 -62 31 -112t82.5 -78.5t110.5 -28.5q63 0 113.5 30t79.5 80.5t29 108.5h61q0 -80 -39 -145.5t-104.5 -102.5t-139.5 -37q-79 0 -143.5 39.5zM186 1013h91v-1013h-91v1013z" />
    <glyph glyph-name="icircumflex" unicode="&#xee;" horiz-adv-x="460" 
d="M-48 1213l236 281h88l235 -281l-46 -31l-233 252l-233 -252zM186 1013h91v-1013h-91v1013z" />
    <glyph glyph-name="idieresis" unicode="&#xef;" horiz-adv-x="460" 
d="M18.5 1284.5q-20.5 21.5 -20.5 53.5q0 33 21 53.5t52 20.5q33 0 53 -20.5t20 -53.5t-20.5 -54t-52.5 -21t-52.5 21.5zM340 1284q-20 21 -20 54q0 34 20.5 54t51.5 20q32 0 52.5 -21t20.5 -53q0 -33 -20.5 -54t-52.5 -21t-52 21zM186 1013h91v-1013h-91v1013z" />
    <glyph glyph-name="igrave" unicode="&#xec;" horiz-adv-x="460" 
d="M16 1465l71 38l252 -300l-46 -31zM186 1013h91v-1013h-91v1013z" />
    <glyph glyph-name="imacron" unicode="&#x12b;" horiz-adv-x="460" 
d="M-54 1370h571v-64h-571v64zM186 1013h91v-1013h-91v1013z" />
    <glyph glyph-name="iogonek" unicode="&#x12f;" horiz-adv-x="460" 
d="M173 1278.5q-22 22.5 -22 57.5q0 37 23 58.5t57 21.5q35 0 58 -22.5t23 -57.5q0 -36 -22.5 -58t-58.5 -22t-58 22.5zM118 -419q-43 22 -67 60t-24 84q0 68 53 129l140 146h-34v1013h91v-1013l-158 -186q-31 -37 -31 -85q0 -52 38 -83t92 -31q40 0 71 19.5t48 52.5l24 -61
q-27 -31 -63.5 -49t-80.5 -18q-56 0 -99 22z" />
    <glyph glyph-name="itilde" unicode="&#x129;" horiz-adv-x="460" 
d="M292 1266q-31 13 -74 43q-37 26 -62.5 37t-52.5 11q-36 0 -65.5 -22t-45.5 -59l-46 39q24 50 65 79t93 29q36 0 66.5 -13t74.5 -43q41 -27 65 -37.5t51 -10.5q35 0 64 22t46 58l47 -38q-26 -51 -67 -79.5t-91 -28.5q-37 0 -68 13zM186 1013h91v-1013h-91v1013z" />
    <glyph glyph-name="j" unicode="j" horiz-adv-x="538" 
d="M236 1278.5q-23 22.5 -23 57.5t22.5 57.5t58.5 22.5q35 0 58 -22.5t23 -57.5t-23 -57.5t-58 -22.5t-58 22.5zM56 -361q57 0 101 25.5t68 69.5t24 98v1181h90v-1179q0 -84 -36 -146t-99.5 -95t-143.5 -33h-105v79h101z" />
    <glyph glyph-name="uni0237" unicode="&#x237;" horiz-adv-x="538" 
d="M56 -361q57 0 101 25.5t68 69.5t24 98v1181h90v-1179q0 -84 -36 -146t-99.5 -95t-143.5 -33h-105v79h101z" />
    <glyph glyph-name="jcircumflex" unicode="&#x135;" horiz-adv-x="538" 
d="M12 1213l236 281h87l236 -281l-47 -31l-232 252l-233 -252zM56 -361q57 0 101 25.5t68 69.5t24 98v1181h90v-1179q0 -84 -36 -146t-99.5 -95t-143.5 -33h-105v79h101z" />
    <glyph glyph-name="k" unicode="k" horiz-adv-x="1064" 
d="M190 1449h90v-901l598 465h132l-638 -495l668 -518h-139l-621 479v-479h-90v1449z" />
    <glyph glyph-name="uni0137" unicode="&#x137;" horiz-adv-x="1064" 
d="M190 1449h90v-901l598 465h132l-638 -495l668 -518h-139l-621 479v-479h-90v1449zM600 -215h93l-107 -226h-57z" />
    <glyph glyph-name="kgreenlandic" unicode="&#x138;" horiz-adv-x="1064" 
d="M190 1013h90v-465l598 465h132l-638 -495l668 -518h-139l-621 479v-479h-90v1013z" />
    <glyph glyph-name="l" unicode="l" horiz-adv-x="496" 
d="M197 1449h91v-1449h-91v1449z" />
    <glyph glyph-name="lacute" unicode="&#x13a;" horiz-adv-x="496" 
d="M81 1626l252 300l71 -38l-277 -293zM197 1449h91v-1449h-91v1449z" />
    <glyph glyph-name="lcaron" unicode="&#x13e;" horiz-adv-x="890" 
d="M197 1449h91v-1449h-91v1449zM684 1449h98l-111 -234h-61z" />
    <glyph glyph-name="uni013C" unicode="&#x13c;" horiz-adv-x="496" 
d="M197 1449h91v-1449h-91v1449zM228 -215h93l-107 -226h-57z" />
    <glyph glyph-name="ldot" unicode="&#x140;" horiz-adv-x="706" 
d="M197 1449h91v-1449h-91v1449zM510.5 667.5q-22.5 22.5 -22.5 57.5t22.5 57.5t57.5 22.5q36 0 58.5 -22.5t22.5 -57.5t-22.5 -57.5t-58.5 -22.5q-35 0 -57.5 22.5z" />
    <glyph glyph-name="uni1E37" unicode="&#x1e37;" horiz-adv-x="496" 
d="M197 1449h91v-1449h-91v1449zM189.5 -324.5q-20.5 20.5 -20.5 52.5t21 52.5t53 20.5t52.5 -20.5t20.5 -52.5t-20.5 -52.5t-52.5 -20.5q-33 0 -53.5 20.5z" />
    <glyph glyph-name="uni1E39" unicode="&#x1e39;" horiz-adv-x="496" 
d="M-43 1810h571v-64h-571v64zM197 1449h91v-1449h-91v1449zM189.5 -324.5q-20.5 20.5 -20.5 52.5t21 52.5t53 20.5t52.5 -20.5t20.5 -52.5t-20.5 -52.5t-52.5 -20.5q-33 0 -53.5 20.5z" />
    <glyph glyph-name="lslash" unicode="&#x142;" horiz-adv-x="726" 
d="M313 664l-262 -152l-31 53l293 168v716h91v-663l262 152l30 -53l-292 -169v-716h-91v664z" />
    <glyph glyph-name="m" unicode="m" horiz-adv-x="1896" 
d="M267 1013l4 -213q27 76 81 131t125 84t148 29q123 0 215.5 -65t128.5 -182q50 120 147 183.5t220 63.5q109 0 196 -48.5t137 -138.5t50 -209v-648h-90v647q0 92 -40.5 162.5t-109 109t-149.5 38.5q-87 0 -163.5 -44.5t-123 -124t-46.5 -180.5v-608h-90v647
q0 93 -40 163.5t-108 108.5t-149 38q-89 0 -166 -45t-123 -125t-46 -179v-608h-91v1013h83z" />
    <glyph glyph-name="uni1E41" unicode="&#x1e41;" horiz-adv-x="1896" 
d="M898 1284q-21 21 -21 54t21 53.5t54 20.5q34 0 55 -21t21 -53q0 -34 -21.5 -54.5t-54.5 -20.5t-54 21zM267 1013l4 -213q27 76 81 131t125 84t148 29q123 0 215.5 -65t128.5 -182q50 120 147 183.5t220 63.5q109 0 196 -48.5t137 -138.5t50 -209v-648h-90v647
q0 92 -40.5 162.5t-109 109t-149.5 38.5q-87 0 -163.5 -44.5t-123 -124t-46.5 -180.5v-608h-90v647q0 93 -40 163.5t-108 108.5t-149 38q-89 0 -166 -45t-123 -125t-46 -179v-608h-91v1013h83z" />
    <glyph glyph-name="uni1E43" unicode="&#x1e43;" horiz-adv-x="1896" 
d="M267 1013l4 -213q27 76 81 131t125 84t148 29q123 0 215.5 -65t128.5 -182q50 120 147 183.5t220 63.5q109 0 196 -48.5t137 -138.5t50 -209v-648h-90v647q0 92 -40.5 162.5t-109 109t-149.5 38.5q-87 0 -163.5 -44.5t-123 -124t-46.5 -180.5v-608h-90v647
q0 93 -40 163.5t-108 108.5t-149 38q-89 0 -166 -45t-123 -125t-46 -179v-608h-91v1013h83zM898.5 -324.5q-20.5 20.5 -20.5 52.5t21 52.5t53 20.5q34 0 54 -20.5t20 -52.5q0 -33 -21 -53t-53 -20q-33 0 -53.5 20.5z" />
    <glyph glyph-name="n" unicode="n" horiz-adv-x="1242" 
d="M267 1013l4 -233q32 78 91 138t137 93t163 33q121 0 213 -55.5t142.5 -150.5t50.5 -210v-628h-90v626q0 94 -44.5 170t-120.5 118.5t-166 42.5q-104 0 -189.5 -51t-134 -136t-48.5 -182v-588h-91v1013h83z" />
    <glyph glyph-name="nacute" unicode="&#x144;" horiz-adv-x="1242" 
d="M518 1203l252 300l72 -38l-277 -293zM267 1013l4 -233q32 78 91 138t137 93t163 33q121 0 213 -55.5t142.5 -150.5t50.5 -210v-628h-90v626q0 94 -44.5 170t-120.5 118.5t-166 42.5q-104 0 -189.5 -51t-134 -136t-48.5 -182v-588h-91v1013h83z" />
    <glyph glyph-name="napostrophe" unicode="&#x149;" horiz-adv-x="1264" 
d="M194 1374h98l-111 -234h-60zM289 1013l4 -233q32 78 91 138t137 93t163 33q121 0 213 -55.5t142.5 -150.5t50.5 -210v-628h-90v626q0 94 -44.5 170t-120.5 118.5t-166 42.5q-102 0 -187 -50t-135 -135t-50 -184v-588h-91v1013h83z" />
    <glyph glyph-name="ncaron" unicode="&#x148;" horiz-adv-x="1242" 
d="M346 1462l48 32l232 -252l233 252l47 -32l-235 -280h-89zM267 1013l4 -233q32 78 91 138t137 93t163 33q121 0 213 -55.5t142.5 -150.5t50.5 -210v-628h-90v626q0 94 -44.5 170t-120.5 118.5t-166 42.5q-104 0 -189.5 -51t-134 -136t-48.5 -182v-588h-91v1013h83z" />
    <glyph glyph-name="uni0146" unicode="&#x146;" horiz-adv-x="1242" 
d="M267 1013l4 -233q32 78 91 138t137 93t163 33q121 0 213 -55.5t142.5 -150.5t50.5 -210v-628h-90v626q0 94 -44.5 170t-120.5 118.5t-166 42.5q-104 0 -189.5 -51t-134 -136t-48.5 -182v-588h-91v1013h83zM612 -215h92l-107 -226h-57z" />
    <glyph glyph-name="uni1E45" unicode="&#x1e45;" horiz-adv-x="1242" 
d="M572 1284.5q-21 21.5 -21 53.5q0 33 21 53.5t54 20.5t54.5 -21t21.5 -53q0 -33 -21.5 -54t-54.5 -21t-54 21.5zM267 1013l4 -233q32 78 91 138t137 93t163 33q121 0 213 -55.5t142.5 -150.5t50.5 -210v-628h-90v626q0 94 -44.5 170t-120.5 118.5t-166 42.5
q-104 0 -189.5 -51t-134 -136t-48.5 -182v-588h-91v1013h83z" />
    <glyph glyph-name="uni1E47" unicode="&#x1e47;" horiz-adv-x="1242" 
d="M267 1013l4 -233q32 78 91 138t137 93t163 33q121 0 213 -55.5t142.5 -150.5t50.5 -210v-628h-90v626q0 94 -44.5 170t-120.5 118.5t-166 42.5q-104 0 -189.5 -51t-134 -136t-48.5 -182v-588h-91v1013h83zM573.5 -324.5q-20.5 20.5 -20.5 52.5t20.5 52.5t52.5 20.5
t53 -20.5t21 -52.5t-21 -52.5t-53 -20.5t-52.5 20.5z" />
    <glyph glyph-name="eng" unicode="&#x14b;" horiz-adv-x="1242" 
d="M785 -361q54 0 98 23.5t69.5 67t25.5 102.5v794q0 90 -42 165.5t-117.5 120.5t-171.5 45q-105 0 -190 -51t-133.5 -135.5t-48.5 -182.5v-588h-91v1013h83l4 -233q50 121 155 192.5t236 71.5q122 0 214 -55.5t142 -150.5t50 -210v-794q0 -84 -36.5 -146t-100 -95
t-142.5 -33h-105v79h101z" />
    <glyph glyph-name="ntilde" unicode="&#xf1;" horiz-adv-x="1242" 
d="M688 1266q-31 13 -75 43q-41 27 -65 37.5t-51 10.5q-35 0 -64 -22t-46 -59l-47 39q25 51 66 79.5t92 28.5q36 0 66.5 -13t74.5 -43q41 -27 65 -37.5t51 -10.5q36 0 64.5 22t46.5 58l46 -38q-25 -50 -66 -79t-91 -29q-36 0 -67 13zM267 1013l4 -233q32 78 91 138t137 93
t163 33q121 0 213 -55.5t142.5 -150.5t50.5 -210v-628h-90v626q0 94 -44.5 170t-120.5 118.5t-166 42.5q-104 0 -189.5 -51t-134 -136t-48.5 -182v-588h-91v1013h83z" />
    <glyph glyph-name="o" unicode="o" horiz-adv-x="1289" 
d="M358.5 39.5q-120.5 70.5 -186.5 193t-66 273.5q0 161 69.5 283t190.5 188.5t271 66.5q159 0 279.5 -71t186 -193.5t65.5 -273.5q0 -160 -69.5 -282t-190.5 -188.5t-271 -66.5q-158 0 -278.5 70.5zM868 114q100 59 155 162t55 230q0 134 -58 237t-158.5 159t-224.5 56
q-131 0 -231 -59.5t-155 -162.5t-55 -230q0 -134 57.5 -236.5t158 -158.5t225.5 -56q131 0 231 59z" />
    <glyph glyph-name="oacute" unicode="&#xf3;" horiz-adv-x="1289" 
d="M529 1203l252 300l71 -38l-276 -293zM358.5 39.5q-120.5 70.5 -186.5 193t-66 273.5q0 161 69.5 283t190.5 188.5t271 66.5q159 0 279.5 -71t186 -193.5t65.5 -273.5q0 -160 -69.5 -282t-190.5 -188.5t-271 -66.5q-158 0 -278.5 70.5zM868 114q100 59 155 162t55 230
q0 134 -58 237t-158.5 159t-224.5 56q-131 0 -231 -59.5t-155 -162.5t-55 -230q0 -134 57.5 -236.5t158 -158.5t225.5 -56q131 0 231 59z" />
    <glyph glyph-name="obreve" unicode="&#x14f;" horiz-adv-x="1289" 
d="M492.5 1234.5q-64.5 39.5 -101 105t-36.5 140.5h57q0 -62 31 -112t82.5 -78.5t109.5 -28.5q63 0 114 30t80.5 80.5t29.5 108.5h60q0 -81 -39 -146t-104.5 -102t-140.5 -37q-78 0 -142.5 39.5zM358.5 39.5q-120.5 70.5 -186.5 193t-66 273.5q0 161 69.5 283t190.5 188.5
t271 66.5q159 0 279.5 -71t186 -193.5t65.5 -273.5q0 -160 -69.5 -282t-190.5 -188.5t-271 -66.5q-158 0 -278.5 70.5zM868 114q100 59 155 162t55 230q0 134 -58 237t-158.5 159t-224.5 56q-131 0 -231 -59.5t-155 -162.5t-55 -230q0 -134 57.5 -236.5t158 -158.5
t225.5 -56q131 0 231 59z" />
    <glyph glyph-name="ocircumflex" unicode="&#xf4;" horiz-adv-x="1289" 
d="M357 1213l236 281h88l236 -281l-48 -31l-232 252l-232 -252zM358.5 39.5q-120.5 70.5 -186.5 193t-66 273.5q0 161 69.5 283t190.5 188.5t271 66.5q159 0 279.5 -71t186 -193.5t65.5 -273.5q0 -160 -69.5 -282t-190.5 -188.5t-271 -66.5q-158 0 -278.5 70.5zM868 114
q100 59 155 162t55 230q0 134 -58 237t-158.5 159t-224.5 56q-131 0 -231 -59.5t-155 -162.5t-55 -230q0 -134 57.5 -236.5t158 -158.5t225.5 -56q131 0 231 59z" />
    <glyph glyph-name="odieresis" unicode="&#xf6;" horiz-adv-x="1289" 
d="M419 1284.5q-21 21.5 -21 53.5q0 33 21 53.5t54 20.5q35 0 55.5 -20.5t20.5 -53.5t-21.5 -54t-54.5 -21t-54 21.5zM746.5 1284.5q-21.5 21.5 -21.5 53.5q0 34 21.5 54t54.5 20t54 -21t21 -53q0 -33 -21 -54t-54 -21t-54.5 21.5zM358.5 39.5q-120.5 70.5 -186.5 193
t-66 273.5q0 161 69.5 283t190.5 188.5t271 66.5q159 0 279.5 -71t186 -193.5t65.5 -273.5q0 -160 -69.5 -282t-190.5 -188.5t-271 -66.5q-158 0 -278.5 70.5zM868 114q100 59 155 162t55 230q0 134 -58 237t-158.5 159t-224.5 56q-131 0 -231 -59.5t-155 -162.5t-55 -230
q0 -134 57.5 -236.5t158 -158.5t225.5 -56q131 0 231 59z" />
    <glyph glyph-name="ograve" unicode="&#xf2;" horiz-adv-x="1289" 
d="M422 1465l71 38l252 -300l-47 -31zM358.5 39.5q-120.5 70.5 -186.5 193t-66 273.5q0 161 69.5 283t190.5 188.5t271 66.5q159 0 279.5 -71t186 -193.5t65.5 -273.5q0 -160 -69.5 -282t-190.5 -188.5t-271 -66.5q-158 0 -278.5 70.5zM868 114q100 59 155 162t55 230
q0 134 -58 237t-158.5 159t-224.5 56q-131 0 -231 -59.5t-155 -162.5t-55 -230q0 -134 57.5 -236.5t158 -158.5t225.5 -56q131 0 231 59z" />
    <glyph glyph-name="ohungarumlaut" unicode="&#x151;" horiz-adv-x="1289" 
d="M250 1203l252 300l71 -38l-277 -293zM704 1203l252 300l71 -38l-277 -293zM358.5 39.5q-120.5 70.5 -186.5 193t-66 273.5q0 161 69.5 283t190.5 188.5t271 66.5q159 0 279.5 -71t186 -193.5t65.5 -273.5q0 -160 -69.5 -282t-190.5 -188.5t-271 -66.5q-158 0 -278.5 70.5
zM868 114q100 59 155 162t55 230q0 134 -58 237t-158.5 159t-224.5 56q-131 0 -231 -59.5t-155 -162.5t-55 -230q0 -134 57.5 -236.5t158 -158.5t225.5 -56q131 0 231 59z" />
    <glyph glyph-name="omacron" unicode="&#x14d;" horiz-adv-x="1289" 
d="M351 1370h572v-64h-572v64zM358.5 39.5q-120.5 70.5 -186.5 193t-66 273.5q0 161 69.5 283t190.5 188.5t271 66.5q159 0 279.5 -71t186 -193.5t65.5 -273.5q0 -160 -69.5 -282t-190.5 -188.5t-271 -66.5q-158 0 -278.5 70.5zM868 114q100 59 155 162t55 230
q0 134 -58 237t-158.5 159t-224.5 56q-131 0 -231 -59.5t-155 -162.5t-55 -230q0 -134 57.5 -236.5t158 -158.5t225.5 -56q131 0 231 59z" />
    <glyph glyph-name="oslash" unicode="&#xf8;" horiz-adv-x="1289" 
d="M284 95q-84 71 -131 176.5t-47 234.5q0 160 69.5 282t190.5 188.5t271 66.5q170 0 300 -86l60 80l52 -41l-59 -79q83 -70 130.5 -176t47.5 -235q0 -159 -70 -281t-191 -189t-270 -67q-171 0 -301 86l-60 -80l-51 42zM770 943.5q-63 18.5 -133 18.5q-133 0 -234.5 -60
t-156.5 -164t-55 -232q0 -108 39.5 -195.5t109.5 -146.5l543 727q-50 34 -113 52.5zM871 110q101 60 156 164t55 232q0 108 -39.5 195.5t-109.5 146.5l-543 -727q107 -71 247 -71q133 0 234 60z" />
    <glyph glyph-name="otilde" unicode="&#xf5;" horiz-adv-x="1289" 
d="M699 1266q-31 13 -75 43q-41 27 -65 37.5t-51 10.5q-36 0 -64.5 -22t-45.5 -59l-47 39q25 50 66 79t91 29q36 0 67 -13t75 -43q41 -27 65 -37.5t51 -10.5q35 0 64 22t46 58l47 -38q-25 -50 -66 -79t-91 -29q-36 0 -67 13zM358.5 39.5q-120.5 70.5 -186.5 193t-66 273.5
q0 161 69.5 283t190.5 188.5t271 66.5q159 0 279.5 -71t186 -193.5t65.5 -273.5q0 -160 -69.5 -282t-190.5 -188.5t-271 -66.5q-158 0 -278.5 70.5zM868 114q100 59 155 162t55 230q0 134 -58 237t-158.5 159t-224.5 56q-131 0 -231 -59.5t-155 -162.5t-55 -230
q0 -134 57.5 -236.5t158 -158.5t225.5 -56q131 0 231 59z" />
    <glyph glyph-name="oe" unicode="&#x153;" horiz-adv-x="2213" 
d="M1391 12q-98 43 -167 120.5t-102 179.5q-34 -106 -104.5 -183.5t-168.5 -118.5t-212 -41q-158 0 -278.5 70.5t-186.5 193t-66 273.5q0 161 69.5 283t190.5 188.5t271 66.5q118 0 216 -43t167 -120.5t102 -179.5q34 106 105 183.5t168.5 118.5t211.5 41q142 0 257.5 -59.5
t183 -174t67.5 -272.5q0 -28 -2 -50h-943q0 -131 57.5 -231.5t157 -155.5t222.5 -55q133 0 233.5 61t153.5 165l81 -35q-62 -122 -185.5 -195t-282.5 -73q-118 0 -216 43zM1966.5 769q-52.5 93 -145.5 145.5t-214 52.5q-123 0 -219 -53t-152 -146t-65 -210h851
q-3 118 -55.5 211zM868 114q100 59 155 162t55 230q0 134 -57.5 237t-158 159t-225.5 56q-131 0 -231 -59.5t-155 -162.5t-55 -230q0 -134 57.5 -236.5t158 -158.5t225.5 -56q131 0 231 59z" />
    <glyph glyph-name="p" unicode="p" horiz-adv-x="1381" 
d="M285 1013l4 -255q57 132 175.5 209t277.5 77q156 0 274.5 -70.5t182.5 -193t64 -274.5q0 -160 -68.5 -282t-187 -188.5t-265.5 -66.5q-155 0 -273 73t-176 215v-667h-90v1423h82zM962 114q100 59 155 162t55 230q0 134 -57.5 237t-158 159t-224.5 56q-131 0 -231.5 -59.5
t-155 -162.5t-54.5 -230q0 -134 57.5 -236.5t158 -158.5t225.5 -56q130 0 230 59z" />
    <glyph glyph-name="thorn" unicode="&#xfe;" horiz-adv-x="1400" 
d="M308 1449v-690q57 131 175.5 208t277.5 77q156 0 274.5 -70.5t182.5 -193t64 -274.5q0 -160 -68.5 -282t-187 -188.5t-265.5 -66.5q-155 0 -273 72.5t-176 213.5v-665h-90v1859h86zM981 114q100 59 155 162t55 230q0 134 -57.5 237t-158 159t-224.5 56q-132 0 -232 -59.5
t-154 -162.5t-54 -230q0 -134 57.5 -236.5t157.5 -158.5t225 -56q130 0 230 59z" />
    <glyph glyph-name="q" unicode="q" horiz-adv-x="1369" 
d="M900 41.5q-118 -72.5 -272 -72.5q-155 0 -273.5 70.5t-183 193t-64.5 273.5q0 161 68.5 283t187 188.5t265.5 66.5q158 0 276.5 -77t175.5 -208l4 254h83v-1423h-91v666q-58 -142 -176 -214.5zM868.5 114q99.5 59 154 162t54.5 230q0 135 -57.5 237.5t-157.5 158.5
t-224 56q-131 0 -231.5 -59.5t-155 -162.5t-54.5 -230q0 -134 57.5 -236.5t158 -158.5t225.5 -56q131 0 230.5 59z" />
    <glyph glyph-name="r" unicode="r" horiz-adv-x="749" 
d="M266 1013l5 -233q32 80 91.5 139.5t137 92t162.5 32.5h59v-90h-75q-105 0 -190 -51.5t-133.5 -136.5t-48.5 -183v-583h-90v1013h82z" />
    <glyph glyph-name="racute" unicode="&#x155;" horiz-adv-x="749" 
d="M345 1203l252 300l72 -38l-278 -293zM266 1013l5 -233q32 80 91.5 139.5t137 92t162.5 32.5h59v-90h-75q-105 0 -190 -51.5t-133.5 -136.5t-48.5 -183v-583h-90v1013h82z" />
    <glyph glyph-name="rcaron" unicode="&#x159;" horiz-adv-x="755" 
d="M177 1462l46 32l233 -252l233 252l47 -32l-236 -280h-88zM270 1013l4 -233q33 80 92.5 139.5t137 92t161.5 32.5h60v-90h-75q-105 0 -190 -51.5t-133.5 -136.5t-48.5 -183v-583h-90v1013h82z" />
    <glyph glyph-name="uni0157" unicode="&#x157;" horiz-adv-x="749" 
d="M266 1013l5 -233q32 80 91.5 139.5t137 92t162.5 32.5h59v-90h-75q-105 0 -190 -51.5t-133.5 -136.5t-48.5 -183v-583h-90v1013h82zM442 -215h93l-108 -226h-57z" />
    <glyph glyph-name="uni1E5B" unicode="&#x1e5b;" horiz-adv-x="749" 
d="M266 1013l5 -233q32 80 91.5 139.5t137 92t162.5 32.5h59v-90h-75q-105 0 -190 -51.5t-133.5 -136.5t-48.5 -183v-583h-90v1013h82zM307.5 -324.5q-20.5 20.5 -20.5 52.5t21 52.5t53 20.5q34 0 54 -20.5t20 -52.5q0 -33 -21 -53t-53 -20q-33 0 -53.5 20.5z" />
    <glyph glyph-name="uni1E5D" unicode="&#x1e5d;" horiz-adv-x="754" 
d="M169 1370h573v-64h-573v64zM269 1013l5 -233q32 80 91.5 139.5t137 92t162.5 32.5h59v-90h-75q-105 0 -190 -51.5t-133.5 -136.5t-48.5 -183v-583h-90v1013h82zM310.5 -324.5q-20.5 20.5 -20.5 52.5t20.5 52.5t52.5 20.5q34 0 54.5 -21t20.5 -52q0 -33 -21 -53t-54 -20
q-32 0 -52.5 20.5z" />
    <glyph glyph-name="s" unicode="s" horiz-adv-x="1022" 
d="M252.5 27q-112.5 58 -169.5 178l87 28q48 -93 140.5 -140t205.5 -47q99 0 170 31.5t107 81.5t36 103q-1 83 -55.5 132.5t-164.5 71.5l-230 47q-135 27 -199 86.5t-64 163.5q0 77 43.5 140.5t133 102t221.5 38.5q137 0 233.5 -52t153.5 -160l-86 -27q-87 162 -298 162
q-103 0 -172 -28t-102 -74.5t-33 -101.5q0 -73 48.5 -114.5t156.5 -63.5l227 -46q143 -28 212 -93.5t69 -183.5q0 -77 -45 -144t-137 -108t-226 -41q-150 0 -262.5 58z" />
    <glyph glyph-name="sacute" unicode="&#x15b;" horiz-adv-x="1022" 
d="M396 1203l252 300l71 -38l-277 -293zM252.5 27q-112.5 58 -169.5 178l87 28q48 -93 140.5 -140t205.5 -47q99 0 170 31.5t107 81.5t36 103q-1 83 -55.5 132.5t-164.5 71.5l-230 47q-135 27 -199 86.5t-64 163.5q0 77 43.5 140.5t133 102t221.5 38.5q137 0 233.5 -52
t153.5 -160l-86 -27q-87 162 -298 162q-103 0 -172 -28t-102 -74.5t-33 -101.5q0 -73 48.5 -114.5t156.5 -63.5l227 -46q143 -28 212 -93.5t69 -183.5q0 -77 -45 -144t-137 -108t-226 -41q-150 0 -262.5 58z" />
    <glyph glyph-name="scaron" unicode="&#x161;" horiz-adv-x="1022" 
d="M224 1462l46 32l233 -252l233 252l46 -32l-235 -280h-88zM252.5 27q-112.5 58 -169.5 178l87 28q48 -93 140.5 -140t205.5 -47q99 0 170 31.5t107 81.5t36 103q-1 83 -55.5 132.5t-164.5 71.5l-230 47q-135 27 -199 86.5t-64 163.5q0 77 43.5 140.5t133 102t221.5 38.5
q137 0 233.5 -52t153.5 -160l-86 -27q-87 162 -298 162q-103 0 -172 -28t-102 -74.5t-33 -101.5q0 -73 48.5 -114.5t156.5 -63.5l227 -46q143 -28 212 -93.5t69 -183.5q0 -77 -45 -144t-137 -108t-226 -41q-150 0 -262.5 58z" />
    <glyph glyph-name="scedilla" unicode="&#x15f;" horiz-adv-x="1022" 
d="M335 -374l26 61q39 -72 118 -72q37 0 67 17.5t46.5 46t16.5 60.5q0 33 -17.5 62t-47 46t-65.5 17q-27 0 -48 -9l52 115q-145 4 -245 64t-155 171l87 28q49 -93 140 -140t206 -47q100 0 170.5 31.5t106.5 81.5t36 103q0 85 -55.5 134.5t-164.5 69.5l-230 47
q-135 27 -199 87t-64 163q0 76 44 140t133.5 102.5t220.5 38.5q137 0 233.5 -51.5t153.5 -160.5l-86 -27q-44 83 -118 122.5t-180 39.5q-103 0 -172 -28.5t-102 -74.5t-33 -101q0 -72 49 -114t156 -64l227 -46q142 -27 211.5 -93.5t69.5 -183.5q0 -76 -42 -142t-130 -107
t-219 -43l-29 -62q47 -2 85.5 -25.5t60 -62t21.5 -82.5q0 -50 -25 -91t-68.5 -64.5t-96.5 -23.5q-87 0 -145 67z" />
    <glyph glyph-name="scircumflex" unicode="&#x15d;" horiz-adv-x="1022" 
d="M224 1213l235 281h88l235 -281l-46 -31l-233 252l-233 -252zM252.5 27q-112.5 58 -169.5 178l87 28q48 -93 140.5 -140t205.5 -47q99 0 170 31.5t107 81.5t36 103q-1 83 -55.5 132.5t-164.5 71.5l-230 47q-135 27 -199 86.5t-64 163.5q0 77 43.5 140.5t133 102
t221.5 38.5q137 0 233.5 -52t153.5 -160l-86 -27q-87 162 -298 162q-103 0 -172 -28t-102 -74.5t-33 -101.5q0 -73 48.5 -114.5t156.5 -63.5l227 -46q143 -28 212 -93.5t69 -183.5q0 -77 -45 -144t-137 -108t-226 -41q-150 0 -262.5 58z" />
    <glyph glyph-name="uni0219" unicode="&#x219;" horiz-adv-x="1022" 
d="M252.5 27q-112.5 58 -169.5 178l87 28q48 -93 140.5 -140t205.5 -47q99 0 170 31.5t107 81.5t36 103q-1 83 -55.5 132.5t-164.5 71.5l-230 47q-135 27 -199 86.5t-64 163.5q0 77 43.5 140.5t133 102t221.5 38.5q137 0 233.5 -52t153.5 -160l-86 -27q-87 162 -298 162
q-103 0 -172 -28t-102 -74.5t-33 -101.5q0 -73 48.5 -114.5t156.5 -63.5l227 -46q143 -28 212 -93.5t69 -183.5q0 -77 -45 -144t-137 -108t-226 -41q-150 0 -262.5 58zM488 -215h94l-109 -226h-56z" />
    <glyph glyph-name="uni1E63" unicode="&#x1e63;" horiz-adv-x="1022" 
d="M252.5 27q-112.5 58 -169.5 178l87 28q48 -93 140.5 -140t205.5 -47q99 0 170 31.5t107 81.5t36 103q-1 83 -55.5 132.5t-164.5 71.5l-230 47q-135 27 -199 86.5t-64 163.5q0 77 43.5 140.5t133 102t221.5 38.5q137 0 233.5 -52t153.5 -160l-86 -27q-87 162 -298 162
q-103 0 -172 -28t-102 -74.5t-33 -101.5q0 -73 48.5 -114.5t156.5 -63.5l227 -46q143 -28 212 -93.5t69 -183.5q0 -77 -45 -144t-137 -108t-226 -41q-150 0 -262.5 58zM450.5 -324.5q-20.5 20.5 -20.5 52.5t20.5 52.5t52.5 20.5q33 0 53.5 -20.5t20.5 -52.5t-21 -52.5
t-53 -20.5t-52.5 20.5z" />
    <glyph glyph-name="germandbls" unicode="&#xdf;" horiz-adv-x="1296" 
d="M247.5 1281q54.5 97 153 148t226.5 51q100 0 184.5 -44t134 -123.5t49.5 -182.5q0 -90 -49 -169.5t-124 -120.5q102 -13 185 -64.5t131.5 -140t48.5 -206.5t-54.5 -216t-158 -155.5t-244.5 -57.5h-221v79h220q98 0 182 44t134.5 124t50.5 182q0 95 -44 175t-127.5 128
t-195.5 48h-158v78h68q72 0 133.5 38t97.5 100t36 130q0 80 -39 142.5t-103 97.5t-137 35q-105 0 -183 -45.5t-119.5 -125.5t-41.5 -180v-1050h-90v1051q0 133 54.5 230z" />
    <glyph glyph-name="longs" unicode="&#x17f;" horiz-adv-x="661" 
d="M66 934v79h187v164q0 82 34.5 143.5t96.5 95t142 33.5h67v-79h-58q-57 0 -100.5 -25.5t-67.5 -69.5t-24 -98v-1177h-90v934h-187z" />
    <glyph glyph-name="t" unicode="t" horiz-adv-x="738" 
d="M409.5 34.5q-62.5 34.5 -96 96.5t-33.5 142v661h-219v79h220l20 247h69v-247h293v-79h-293v-661q0 -58 25 -102t68.5 -68t98.5 -24h101v-79h-108q-83 0 -145.5 34.5z" />
    <glyph glyph-name="tbar" unicode="&#x167;" horiz-adv-x="738" 
d="M411 34.5q-62 34.5 -96.5 96.5t-34.5 142v200h-219v61h219v400h-219v79h220l20 247h69v-247h293v-79h-293v-400h264v-61h-264v-199q0 -59 25.5 -103.5t69 -68t97.5 -23.5h101v-79h-108q-82 0 -144 34.5z" />
    <glyph glyph-name="tcaron" unicode="&#x165;" horiz-adv-x="1088" 
d="M883 1449h98l-111 -234h-61zM409.5 34.5q-62.5 34.5 -96 96.5t-33.5 142v661h-219v79h220l20 247h69v-247h293v-79h-293v-661q0 -58 25 -102t68.5 -68t98.5 -24h101v-79h-108q-83 0 -145.5 34.5z" />
    <glyph glyph-name="uni0163" unicode="&#x163;" horiz-adv-x="740" 
d="M317 -374l25 61q41 -72 119 -72q37 0 66.5 17.5t46.5 46t17 60.5q0 33 -17.5 62t-47 46t-65.5 17q-28 0 -49 -9l65 155q-89 21 -143 90t-54 173v661h-219v79h220l20 247h69v-247h293v-79h-293v-661q0 -59 25.5 -103t69 -67.5t97.5 -23.5h101v-79h-108q-25 0 -32 1
l-39 -93q47 -2 85.5 -25.5t60.5 -62t22 -82.5q0 -50 -25 -91t-69 -64.5t-97 -23.5q-87 0 -144 67z" />
    <glyph glyph-name="uni021B" unicode="&#x21b;" horiz-adv-x="738" 
d="M409.5 34.5q-62.5 34.5 -96 96.5t-33.5 142v661h-219v79h220l20 247h69v-247h293v-79h-293v-661q0 -58 25 -102t68.5 -68t98.5 -24h101v-79h-108q-83 0 -145.5 34.5zM348 -215h93l-108 -226h-57z" />
    <glyph glyph-name="uni1E6D" unicode="&#x1e6d;" horiz-adv-x="738" 
d="M409.5 34.5q-62.5 34.5 -96 96.5t-33.5 142v661h-219v79h220l20 247h69v-247h293v-79h-293v-661q0 -58 25 -102t68.5 -68t98.5 -24h101v-79h-108q-83 0 -145.5 34.5zM312 -324.5q-21 20.5 -21 52.5t21 52.5t53 20.5q34 0 53.5 -20.5t19.5 -52.5t-20.5 -52.5t-52.5 -20.5
t-53 20.5z" />
    <glyph glyph-name="u" unicode="u" horiz-adv-x="1212" 
d="M366 26.5q-100 57.5 -153.5 158t-53.5 228.5v600h90v-599q0 -107 46.5 -188.5t126.5 -125.5t178 -44q103 0 183 47t124 128.5t44 182.5v599h91v-600q0 -135 -57 -235.5t-157.5 -154.5t-227.5 -54q-134 0 -234 57.5z" />
    <glyph glyph-name="uacute" unicode="&#xfa;" horiz-adv-x="1212" 
d="M493 1203l252 300l71 -38l-277 -293zM366 26.5q-100 57.5 -153.5 158t-53.5 228.5v600h90v-599q0 -107 46.5 -188.5t126.5 -125.5t178 -44q103 0 183 47t124 128.5t44 182.5v599h91v-600q0 -135 -57 -235.5t-157.5 -154.5t-227.5 -54q-134 0 -234 57.5z" />
    <glyph glyph-name="ubreve" unicode="&#x16d;" horiz-adv-x="1212" 
d="M456.5 1234.5q-64.5 39.5 -101.5 105t-37 140.5h57q0 -62 31 -112t82.5 -78.5t110.5 -28.5q62 0 113.5 30t80.5 80.5t29 108.5h61q0 -81 -39.5 -146t-105 -102t-139.5 -37q-78 0 -142.5 39.5zM366 26.5q-100 57.5 -153.5 158t-53.5 228.5v600h90v-599q0 -107 46.5 -188.5
t126.5 -125.5t178 -44q103 0 183 47t124 128.5t44 182.5v599h91v-600q0 -135 -57 -235.5t-157.5 -154.5t-227.5 -54q-134 0 -234 57.5z" />
    <glyph glyph-name="ucircumflex" unicode="&#xfb;" horiz-adv-x="1212" 
d="M321 1213l235 281h89l235 -281l-47 -31l-233 252l-232 -252zM366 26.5q-100 57.5 -153.5 158t-53.5 228.5v600h90v-599q0 -107 46.5 -188.5t126.5 -125.5t178 -44q103 0 183 47t124 128.5t44 182.5v599h91v-600q0 -135 -57 -235.5t-157.5 -154.5t-227.5 -54
q-134 0 -234 57.5z" />
    <glyph glyph-name="udieresis" unicode="&#xfc;" horiz-adv-x="1212" 
d="M382.5 1284.5q-21.5 21.5 -21.5 53.5q0 33 21.5 53.5t54.5 20.5q34 0 54.5 -20.5t20.5 -53.5t-21 -54t-54 -21t-54.5 21.5zM709.5 1284.5q-21.5 21.5 -21.5 53.5q0 34 22 54t54 20q33 0 54 -21t21 -53q0 -33 -21.5 -54t-53.5 -21q-33 0 -54.5 21.5zM366 26.5
q-100 57.5 -153.5 158t-53.5 228.5v600h90v-599q0 -107 46.5 -188.5t126.5 -125.5t178 -44q103 0 183 47t124 128.5t44 182.5v599h91v-600q0 -135 -57 -235.5t-157.5 -154.5t-227.5 -54q-134 0 -234 57.5z" />
    <glyph glyph-name="ugrave" unicode="&#xf9;" horiz-adv-x="1212" 
d="M385 1465l71 38l252 -300l-46 -31zM366 26.5q-100 57.5 -153.5 158t-53.5 228.5v600h90v-599q0 -107 46.5 -188.5t126.5 -125.5t178 -44q103 0 183 47t124 128.5t44 182.5v599h91v-600q0 -135 -57 -235.5t-157.5 -154.5t-227.5 -54q-134 0 -234 57.5z" />
    <glyph glyph-name="uhungarumlaut" unicode="&#x171;" horiz-adv-x="1212" 
d="M213 1203l252 300l71 -38l-276 -293zM667 1203l252 300l71 -38l-277 -293zM366 26.5q-100 57.5 -153.5 158t-53.5 228.5v600h90v-599q0 -107 46.5 -188.5t126.5 -125.5t178 -44q103 0 183 47t124 128.5t44 182.5v599h91v-600q0 -135 -57 -235.5t-157.5 -154.5t-227.5 -54
q-134 0 -234 57.5z" />
    <glyph glyph-name="umacron" unicode="&#x16b;" horiz-adv-x="1212" 
d="M315 1370h571v-64h-571v64zM366 26.5q-100 57.5 -153.5 158t-53.5 228.5v600h90v-599q0 -107 46.5 -188.5t126.5 -125.5t178 -44q103 0 183 47t124 128.5t44 182.5v599h91v-600q0 -135 -57 -235.5t-157.5 -154.5t-227.5 -54q-134 0 -234 57.5z" />
    <glyph glyph-name="uni0233" unicode="&#x233;" horiz-adv-x="1043" 
d="M230 1370h571v-64h-571v64zM160 -361q95 0 151 31.5t85 103.5l92 221l-446 1018h101l364 -836l24 -70l23 70l334 836h101l-507 -1260q-41 -101 -114 -147t-194 -46h-69v79h55z" />
    <glyph glyph-name="uni1E33" unicode="&#x1e33;" horiz-adv-x="1064" 
d="M190 1449h90v-901l598 465h132l-638 -495l668 -518h-139l-621 479v-479h-90v1449zM556.5 -324.5q-20.5 20.5 -20.5 52.5t21 52.5t53 20.5q34 0 53.5 -20.5t19.5 -52.5t-20.5 -52.5t-52.5 -20.5q-33 0 -53.5 20.5z" />
    <glyph glyph-name="uni1E3B" unicode="&#x1e3b;" horiz-adv-x="604" 
d="M252 1449h90v-1449h-90v1449zM11 -244h572v-65h-572v65z" />
    <glyph glyph-name="uni1E49" unicode="&#x1e49;" horiz-adv-x="1242" 
d="M267 1013l4 -233q32 78 91 138t137 93t163 33q121 0 213 -55.5t142.5 -150.5t50.5 -210v-628h-90v626q0 94 -44.5 170t-120.5 118.5t-166 42.5q-104 0 -189.5 -51t-134 -136t-48.5 -182v-588h-91v1013h83zM340 -243h572v-64h-572v64z" />
    <glyph glyph-name="uni1E59" unicode="&#x1e59;" horiz-adv-x="749" 
d="M398 1284.5q-21 21.5 -21 53.5q0 33 21 53.5t54 20.5q35 0 56 -21t21 -53q0 -33 -22 -54t-55 -21t-54 21.5zM266 1013l5 -233q32 80 91.5 139.5t137 92t162.5 32.5h59v-90h-75q-105 0 -190 -51.5t-133.5 -136.5t-48.5 -183v-583h-90v1013h82z" />
    <glyph glyph-name="uni1E5F" unicode="&#x1e5f;" horiz-adv-x="771" 
d="M288 1013l5 -233q32 80 91.5 139.5t137 92t162.5 32.5h59v-90h-75q-105 0 -190 -51.5t-133.5 -136.5t-48.5 -183v-583h-90v1013h82zM118 -244h572v-65h-572v65z" />
    <glyph glyph-name="uni1E89" unicode="&#x1e89;" horiz-adv-x="1604" 
d="M67 1013h99l226 -818l19 -90l27 90l323 818h74l321 -818l28 -90l19 90l227 818h98l-290 -1013h-95l-345 887l-346 -887h-95zM744.5 -324.5q-20.5 20.5 -20.5 52.5t21 52.5t53 20.5t52.5 -20.5t20.5 -52.5t-20.5 -52.5t-52.5 -20.5q-33 0 -53.5 20.5z" />
    <glyph glyph-name="uni1E93" unicode="&#x1e93;" horiz-adv-x="947" 
d="M85 61l635 838l31 32h-666v83h788v-62l-635 -837l-31 -32h666v-83h-788v61zM425.5 -324.5q-20.5 20.5 -20.5 52.5t21 52.5t53 20.5q34 0 53.5 -20.5t19.5 -52.5t-20.5 -52.5t-52.5 -20.5q-33 0 -53.5 20.5z" />
    <glyph glyph-name="uni1EBD" unicode="&#x1ebd;" horiz-adv-x="1242" 
d="M686.5 1266q-30.5 13 -74.5 43q-38 26 -63 37t-52 11q-37 0 -65.5 -22t-45.5 -59l-47 39q25 51 66 79.5t92 28.5q36 0 66.5 -13t74.5 -43q41 -27 65 -37.5t51 -10.5q35 0 64 22t46 58l48 -38q-26 -51 -67 -79.5t-92 -28.5q-36 0 -66.5 13zM359.5 38.5
q-120.5 69.5 -187 192t-66.5 275.5q0 160 69.5 282.5t190 189t269.5 66.5q142 0 257.5 -59.5t183.5 -174t68 -272.5q0 -28 -2 -50h-943q1 -132 58.5 -232.5t156.5 -155t222 -54.5q132 0 232 60.5t155 165.5l81 -35q-62 -122 -186 -195t-283 -73q-155 0 -275.5 69.5zM995 769
q-52 93 -145.5 145.5t-214.5 52.5q-122 0 -218 -53t-152 -146t-65 -210h850q-3 118 -55 211z" />
    <glyph glyph-name="uni1EF5" unicode="&#x1ef5;" horiz-adv-x="1043" 
d="M160 -361q95 0 151 31.5t85 103.5l92 221l-446 1018h101l364 -836l24 -70l23 70l334 836h101l-507 -1260q-41 -101 -114 -147t-194 -46h-69v79h55zM689.5 -324.5q-20.5 20.5 -20.5 52.5t20.5 52.5t52.5 20.5q33 0 53.5 -20.5t20.5 -52.5t-21 -52.5t-53 -20.5t-52.5 20.5z
" />
    <glyph glyph-name="uogonek" unicode="&#x173;" horiz-adv-x="1212" 
d="M527.5 -420.5q-43.5 20.5 -69 58.5t-25.5 87q0 73 54 129l110 115q-133 0 -232 57t-152.5 158t-53.5 229v600h90v-599q1 -109 48 -190t126.5 -124.5t176.5 -43.5q103 0 183 47t124 128.5t44 182.5v599h91v-600q0 -123 -49 -219t-136 -153.5t-197 -66.5l-135 -160
q-31 -35 -31 -85q0 -52 37.5 -83t92.5 -31q79 0 119 72l26 -61q-58 -67 -146 -67q-52 0 -95.5 20.5z" />
    <glyph glyph-name="uring" unicode="&#x16f;" horiz-adv-x="1212" 
d="M502.5 1152q-43.5 26 -68 70t-24.5 94q0 52 25.5 95t69 68.5t95.5 25.5t96 -25.5t69 -69t25 -94.5q0 -54 -26.5 -97.5t-70 -68t-93.5 -24.5q-54 0 -97.5 26zM668 1199.5q31 18.5 49 49.5t18 67q0 38 -18.5 68.5t-49.5 48t-67 17.5q-38 0 -68.5 -18.5t-48 -49t-17.5 -66.5
q0 -37 18.5 -68t49.5 -49t66 -18q37 0 68 18.5zM366 26.5q-100 57.5 -153.5 158t-53.5 228.5v600h90v-599q0 -107 46.5 -188.5t126.5 -125.5t178 -44q103 0 183 47t124 128.5t44 182.5v599h91v-600q0 -135 -57 -235.5t-157.5 -154.5t-227.5 -54q-134 0 -234 57.5z" />
    <glyph glyph-name="utilde" unicode="&#x169;" horiz-adv-x="1212" 
d="M662 1266q-31 13 -75 43q-41 27 -65 37.5t-51 10.5q-35 0 -64 -22t-46 -59l-46 39q24 51 65 79.5t92 28.5q36 0 66.5 -12.5t75.5 -43.5q40 -27 64 -37.5t52 -10.5q35 0 63.5 22t46.5 58l46 -38q-25 -51 -66 -79.5t-91 -28.5q-36 0 -67 13zM366 26.5q-100 57.5 -153.5 158
t-53.5 228.5v600h90v-599q0 -107 46.5 -188.5t126.5 -125.5t178 -44q103 0 183 47t124 128.5t44 182.5v599h91v-600q0 -135 -57 -235.5t-157.5 -154.5t-227.5 -54q-134 0 -234 57.5z" />
    <glyph glyph-name="v" unicode="v" horiz-adv-x="1044" 
d="M42 1013h100l353 -839l24 -72l23 72l353 839h101l-428 -1013h-99z" />
    <glyph glyph-name="w" unicode="w" horiz-adv-x="1604" 
d="M67 1013h99l226 -818l19 -90l27 90l323 818h74l321 -818l28 -90l19 90l227 818h98l-290 -1013h-95l-345 887l-346 -887h-95z" />
    <glyph glyph-name="wacute" unicode="&#x1e83;" horiz-adv-x="1604" 
d="M690 1203l252 300l71 -38l-276 -293zM67 1013h99l226 -818l19 -90l27 90l323 818h74l321 -818l28 -90l19 90l227 818h98l-290 -1013h-95l-345 887l-346 -887h-95z" />
    <glyph glyph-name="wcircumflex" unicode="&#x175;" horiz-adv-x="1604" 
d="M518 1213l236 281h87l236 -281l-47 -31l-232 252l-233 -252zM67 1013h99l226 -818l19 -90l27 90l323 818h74l321 -818l28 -90l19 90l227 818h98l-290 -1013h-95l-345 887l-346 -887h-95z" />
    <glyph glyph-name="wdieresis" unicode="&#x1e85;" horiz-adv-x="1604" 
d="M580 1284q-21 21 -21 54t21 53.5t54 20.5q34 0 55 -20.5t21 -53.5t-21.5 -54t-54.5 -21t-54 21zM907 1284q-21 21 -21 54q0 34 21.5 54t53.5 20q33 0 54.5 -21t21.5 -53q0 -33 -21.5 -54t-54.5 -21t-54 21zM67 1013h99l226 -818l19 -90l27 90l323 818h74l321 -818l28 -90
l19 90l227 818h98l-290 -1013h-95l-345 887l-346 -887h-95z" />
    <glyph glyph-name="wgrave" unicode="&#x1e81;" horiz-adv-x="1604" 
d="M582 1465l72 38l252 -300l-47 -31zM67 1013h99l226 -818l19 -90l27 90l323 818h74l321 -818l28 -90l19 90l227 818h98l-290 -1013h-95l-345 887l-346 -887h-95z" />
    <glyph glyph-name="x" unicode="x" horiz-adv-x="1021" 
d="M447 507l-381 506h113l293 -387l39 -62l40 62l293 387h113l-381 -506l382 -507h-113l-293 388l-41 63l-40 -63l-293 -388h-113z" />
    <glyph glyph-name="y" unicode="y" horiz-adv-x="1043" 
d="M160 -361q95 0 151 31.5t85 103.5l92 221l-446 1018h101l364 -836l24 -70l23 70l334 836h101l-507 -1260q-41 -101 -114 -147t-194 -46h-69v79h55z" />
    <glyph glyph-name="yacute" unicode="&#xfd;" horiz-adv-x="1043" 
d="M408 1203l252 300l71 -38l-277 -293zM160 -361q95 0 151 31.5t85 103.5l92 221l-446 1018h101l364 -836l24 -70l23 70l334 836h101l-507 -1260q-41 -101 -114 -147t-194 -46h-69v79h55z" />
    <glyph glyph-name="ycircumflex" unicode="&#x177;" horiz-adv-x="1043" 
d="M237 1213l235 281h88l235 -281l-46 -31l-232 252l-234 -252zM160 -361q95 0 151 31.5t85 103.5l92 221l-446 1018h101l364 -836l24 -70l23 70l334 836h101l-507 -1260q-41 -101 -114 -147t-194 -46h-69v79h55z" />
    <glyph glyph-name="ydieresis" unicode="&#xff;" horiz-adv-x="1043" 
d="M298 1284q-21 21 -21 54t21 53.5t54 20.5q34 0 54.5 -20.5t20.5 -53.5t-21.5 -54t-53.5 -21q-33 0 -54 21zM625 1284.5q-21 21.5 -21 53.5q0 34 21.5 54t53.5 20q33 0 54.5 -21t21.5 -53q0 -33 -21.5 -54t-54.5 -21t-54 21.5zM160 -361q95 0 151 31.5t85 103.5l92 221
l-446 1018h101l364 -836l24 -70l23 70l334 836h101l-507 -1260q-41 -101 -114 -147t-194 -46h-69v79h55z" />
    <glyph glyph-name="ygrave" unicode="&#x1ef3;" horiz-adv-x="1043" 
d="M300 1465l71 38l252 -300l-46 -31zM160 -361q95 0 151 31.5t85 103.5l92 221l-446 1018h101l364 -836l24 -70l23 70l334 836h101l-507 -1260q-41 -101 -114 -147t-194 -46h-69v79h55z" />
    <glyph glyph-name="z" unicode="z" horiz-adv-x="947" 
d="M85 61l627 829l36 41h-663v83h788v-62l-627 -828l-37 -41h664v-83h-788v61z" />
    <glyph glyph-name="zacute" unicode="&#x17a;" horiz-adv-x="947" 
d="M371 1203l252 300l71 -38l-277 -293zM85 61l627 829l36 41h-663v83h788v-62l-627 -828l-37 -41h664v-83h-788v61z" />
    <glyph glyph-name="zcaron" unicode="&#x17e;" horiz-adv-x="947" 
d="M200 1462l46 32l234 -252l232 252l47 -32l-236 -280h-88zM85 61l627 829l36 41h-663v83h788v-62l-627 -828l-37 -41h664v-83h-788v61z" />
    <glyph glyph-name="zdotaccent" unicode="&#x17c;" horiz-adv-x="947" 
d="M424.5 1284.5q-21.5 21.5 -21.5 53.5q0 33 21.5 53.5t54.5 20.5q34 0 54.5 -20.5t20.5 -53.5t-21.5 -54t-53.5 -21q-33 0 -54.5 21.5zM85 61l627 829l36 41h-663v83h788v-62l-627 -828l-37 -41h664v-83h-788v61z" />
    <glyph glyph-name="ordfeminine" unicode="&#xaa;" horiz-adv-x="930" 
d="M267.5 774.5q-83.5 49.5 -128.5 135.5t-45 192q0 112 48 198t131.5 133t186.5 47q112 0 190.5 -51t121.5 -134l3 163h62v-712h-48l-13 159q-21 -41 -62.5 -82t-106 -69.5t-147.5 -28.5q-109 0 -192.5 49.5zM626 833q69 41 106.5 111.5t37.5 157.5q0 93 -40 163.5
t-109 109t-154 38.5q-90 0 -159 -40.5t-106.5 -111.5t-37.5 -159q0 -92 40 -162.5t109 -109t154 -38.5q90 0 159 41z" />
    <glyph glyph-name="ordmasculine" unicode="&#xba;" horiz-adv-x="934" 
d="M271 774.5q-85 49.5 -131 135.5t-46 192q0 112 49 198t134 133t191 47q111 0 195.5 -49.5t131 -136t46.5 -192.5q0 -113 -49 -198.5t-134 -132t-190 -46.5q-112 0 -197 49.5zM627 833q69 41 106.5 111.5t37.5 157.5q0 93 -40 163.5t-109 109t-154 38.5q-91 0 -160 -40.5
t-106.5 -111.5t-37.5 -159q0 -92 40 -162.5t109.5 -109t154.5 -38.5q90 0 159 41z" />
    <glyph glyph-name="pi" unicode="&#x3c0;" horiz-adv-x="1525" 
d="M94 934v79h1338v-79h-268v-661q0 -58 25 -102t68.5 -68t98.5 -24h59v-79h-69q-83 0 -144.5 35.5t-94.5 97.5t-33 140v661h-669v-934h-90v934h-221z" />
    <glyph glyph-name="zero" unicode="0" 
d="M475.5 27q-106.5 57 -164.5 154t-58 214v659q0 116 57.5 213.5t164 155t246.5 57.5q139 0 245.5 -57t164.5 -154.5t58 -214.5v-659q0 -116 -57.5 -213t-164 -154.5t-246.5 -57.5q-139 0 -245.5 57zM916 107.5q84 46.5 129 123.5t46 164v659q-1 87 -46 164t-129 124
t-195 47t-195.5 -47t-129.5 -124t-45 -164v-659q0 -87 45 -163.5t129 -123.5t196 -47q111 0 195 46.5z" />
    <glyph glyph-name="one" unicode="1" horiz-adv-x="671" 
d="M357 1343l-310 -179v106l310 179h99v-1449h-99v1343z" />
    <glyph glyph-name="two" unicode="2" horiz-adv-x="1171" 
d="M710 642q85 84 136.5 148t80 130t28.5 139q0 86 -44.5 162t-127 122t-191.5 46q-110 0 -192 -46.5t-126 -122.5t-44 -161v-64h-99v64q0 116 57 212.5t161.5 152.5t242.5 56t243 -56t161.5 -152t56.5 -213q0 -91 -33.5 -170.5t-91 -150.5t-147.5 -157l-516 -494h775v-87
h-909v83z" />
    <glyph glyph-name="three" unicode="3" horiz-adv-x="1159" 
d="M332.5 25.5q-104.5 55.5 -161.5 151.5t-57 212h98q0 -85 43.5 -161t126 -123t193.5 -47q101 0 184 44t131.5 123t48.5 177q0 92 -43.5 170.5t-126.5 126t-195 47.5h-135v78l426 538h-708v87h821v-85l-431 -538h59q117 0 215.5 -50t157.5 -146t59 -226q0 -120 -56.5 -219
t-162 -157t-244.5 -58q-138 0 -242.5 55.5z" />
    <glyph glyph-name="four" unicode="4" horiz-adv-x="1119" 
d="M807 353h-709v87l694 1009h107l-691 -1008h604v409h89v-409h133v-88h-133v-353h-94v353z" />
    <glyph glyph-name="five" unicode="5" horiz-adv-x="1210" 
d="M391 25.5q-105 55.5 -162 151.5t-57 212h98q0 -85 43.5 -161t126.5 -123t194 -47q98 0 181.5 43.5t133 122t49.5 178.5q0 93 -38.5 171t-116 125.5t-188.5 47.5h-429l67 703h744v-87h-656l-55 -529h348q119 0 215 -49t152 -146t56 -234q0 -120 -57 -219t-162 -157
t-244 -58q-138 0 -243 55.5z" />
    <glyph glyph-name="six" unicode="6" horiz-adv-x="1177" 
d="M390.5 21q-105.5 51 -167 149.5t-61.5 233.5q0 137 66 243l488 802h109l-420 -681q103 65 240 65q123 0 223.5 -50.5t159.5 -147.5t59 -231q0 -135 -61 -233t-166 -149.5t-235 -51.5q-129 0 -234.5 51zM808 103q83 42 131.5 120t48.5 182t-48.5 182t-131.5 120t-183 42
q-102 0 -185 -42.5t-131 -120.5t-48 -181q0 -104 48.5 -182t131.5 -120t184 -42q100 0 183 42z" />
    <glyph glyph-name="seven" unicode="7" horiz-adv-x="1055" 
d="M901 1362h-731v-208h-91v295h927v-86l-670 -1363h-109z" />
    <glyph glyph-name="eight" unicode="8" horiz-adv-x="1292" 
d="M433.5 25q-105.5 55 -162.5 149.5t-57 209.5q0 146 72.5 243t196.5 134q-104 36 -165 123t-61 216q0 105 51.5 191.5t147 137.5t221.5 51t221 -50.5t146.5 -137.5t51.5 -192q0 -129 -61 -216t-164 -123q123 -37 196 -134.5t73 -242.5q0 -113 -56 -207.5t-161 -150.5
t-246 -56q-138 0 -243.5 55zM843.5 832.5q73.5 32.5 116 100t42.5 166.5q0 87 -44.5 154.5t-119 105t-161.5 37.5q-91 0 -165.5 -38.5t-117.5 -106.5t-43 -152q0 -97 41.5 -164t115 -101t169.5 -34q93 0 166.5 32.5zM858.5 99q83.5 41 133 115.5t49.5 169.5
q0 106 -46.5 179.5t-128.5 110.5t-189 37q-105 0 -187 -36t-129.5 -109.5t-47.5 -181.5q0 -96 50 -170.5t133.5 -115t180.5 -40.5q98 0 181.5 41z" />
    <glyph glyph-name="nine" unicode="9" horiz-adv-x="1133" 
d="M546 617q-123 0 -224 50.5t-160 148t-59 230.5q0 135 61 233t166 149.5t235 51.5q129 0 234.5 -51t167 -149.5t61.5 -233.5q0 -136 -66 -243l-488 -803h-109l420 682q-101 -65 -239 -65zM748 743q83 42 132 120t49 182t-48.5 182t-131.5 120t-184 42q-100 0 -183 -42
t-131.5 -120t-48.5 -182t48.5 -182t131.5 -120t183 -42t183 42z" />
    <glyph glyph-name="zero.tab" horiz-adv-x="1367" 
d="M475.5 27q-106.5 57 -165 154t-58.5 214v659q0 116 57.5 213.5t164 155t246.5 57.5q139 0 245.5 -57t164.5 -154.5t58 -214.5v-659q0 -116 -57.5 -213t-164 -154.5t-246.5 -57.5q-138 0 -244.5 57zM915.5 107.5q84.5 46.5 129.5 123.5t45 164v659q0 87 -45 164
t-129.5 124t-195.5 47t-195 -47t-129 -124t-45 -164v-659q0 -87 45 -163.5t128.5 -123.5t195.5 -47q111 0 195.5 46.5z" />
    <glyph glyph-name="one.tab" 
d="M335 87h310v1256l-310 -179v106l310 179h99v-1362h299v-87h-708v87z" />
    <glyph glyph-name="two.tab" 
d="M807 642q126 123 185 217t59 200q0 86 -44 162t-126.5 122t-191.5 46q-110 0 -192 -46.5t-126 -122.5t-44 -161v-64h-99v64q0 116 57 212.5t161.5 152.5t242.5 56t243 -56t161.5 -152t56.5 -213q0 -90 -33.5 -170t-92 -152.5t-147.5 -155.5l-516 -494h776v-87h-909v83z
" />
    <glyph glyph-name="three.tab" 
d="M435.5 25.5q-105.5 55.5 -162 151t-56.5 212.5h99q0 -85 44 -161t127 -123t193 -47q98 0 181 43.5t132.5 122t49.5 178.5q0 92 -43.5 171t-126.5 126t-195 47h-136v78l427 538h-708v87h821v-85l-432 -538h60q118 0 216.5 -50.5t157 -146t58.5 -225.5q0 -119 -56.5 -218.5
t-161.5 -157.5t-244 -58t-244.5 55.5z" />
    <glyph glyph-name="four.tab" 
d="M929 353h-708v87l692 1009h108l-691 -1008h605v409h88v-409h134v-88h-134v-353h-94v353z" />
    <glyph glyph-name="five.tab" 
d="M469 25.5q-105 55.5 -161.5 151.5t-56.5 212h98q0 -85 44 -161t127 -123t193 -47q98 0 181.5 44t132.5 122.5t49 177.5q0 94 -38.5 172t-116 125t-188.5 47h-428l68 703h743v-87h-657l-54 -529h348q118 0 214 -49t152 -146t56 -234q0 -119 -56.5 -218.5t-161.5 -157.5
t-244 -58t-244 55.5z" />
    <glyph glyph-name="six.tab" 
d="M484 21q-105 51 -166.5 149.5t-61.5 233.5q0 137 66 243l488 802h108l-419 -681q103 65 239 65q123 0 223.5 -50.5t159.5 -147.5t59 -231q0 -135 -61 -233t-166 -149.5t-235 -51.5q-129 0 -234 51zM902 103q83 42 131.5 120t48.5 182t-49 182t-132 120t-183 42
q-101 0 -184 -42.5t-131.5 -120.5t-48.5 -181q0 -104 48.5 -182t131.5 -120t184 -42t184 42z" />
    <glyph glyph-name="seven.tab" 
d="M1057 1362h-731v-208h-91v295h927v-86l-670 -1363h-108z" />
    <glyph glyph-name="eight.tab" 
d="M467 25q-105 55 -161.5 149.5t-56.5 209.5q0 145 73 242.5t196 134.5q-104 36 -164.5 123t-60.5 216q0 105 51 191.5t146.5 137.5t221.5 51t221 -50.5t146.5 -137.5t51.5 -192q0 -129 -61 -216t-165 -123q124 -37 196.5 -134t72.5 -243q0 -114 -56 -208.5t-161 -150
t-245 -55.5t-245 55zM880 833.5q73 33.5 115 100.5t42 165q0 87 -45 155t-119.5 105t-160.5 37q-91 0 -165.5 -38.5t-117.5 -106.5t-43 -152q0 -97 41.5 -164t115 -101t169.5 -34q95 0 168 33.5zM892.5 99q83.5 41 133.5 115.5t50 169.5q0 106 -46.5 179.5t-128.5 110.5
t-189 37q-104 0 -186.5 -36t-130 -109.5t-47.5 -181.5q0 -96 50 -170.5t133.5 -115t180.5 -40.5t180.5 41z" />
    <glyph glyph-name="nine.tab" 
d="M790 633.5q-61 -16.5 -128 -16.5q-124 0 -224.5 50.5t-159.5 148t-59 230.5q0 135 61.5 233.5t167 149.5t234.5 51q128 0 233.5 -51t167 -149t61.5 -234q0 -137 -66 -243l-488 -803h-109l420 682q-50 -32 -111 -48.5zM865 743q83 42 131.5 120t48.5 182t-48.5 182
t-131.5 120t-183 42t-183 -42t-132 -120t-49 -182t48.5 -182t131.5 -120t184 -42q100 0 183 42z" />
    <glyph glyph-name="zero.subs" horiz-adv-x="667" 
d="M207 -1q-55 29 -85 79t-30 112v315q0 63 30.5 113t85.5 78.5t126 28.5t126 -29t85.5 -79t30.5 -112v-315q0 -62 -30.5 -112.5t-85.5 -79t-126 -28.5q-72 0 -127 29zM424 57.5q39 21.5 59.5 57t20.5 75.5v315q0 41 -21 76t-60 56t-89 21q-52 0 -90.5 -21.5t-59 -56.5
t-20.5 -75v-315q0 -40 20.5 -75.5t59.5 -57t90 -21.5t90 21.5z" />
    <glyph glyph-name="one.subs" horiz-adv-x="667" 
d="M373 633l-151 -87v77l151 86h72v-724h-72v648z" />
    <glyph glyph-name="two.subs" horiz-adv-x="667" 
d="M385 317q59 56 86 99.5t27 91.5q0 39 -20 73.5t-57.5 55.5t-86.5 21q-50 0 -87 -21t-57 -55.5t-20 -73.5v-32h-72v32q0 61 29.5 110.5t83 78t123.5 28.5t123.5 -28t83 -77.5t29.5 -111.5t-33 -115.5t-102 -117.5l-239 -228h368v-62h-466v57z" />
    <glyph glyph-name="three.subs" horiz-adv-x="667" 
d="M210 -2.5q-54 27.5 -83.5 76.5t-29.5 110h72q0 -39 20 -74t57.5 -56t87.5 -21q45 0 82.5 20t60 55.5t22.5 81.5q0 43 -20.5 78.5t-58 56t-87.5 20.5h-75v55l200 247h-338v62h420v-61l-205 -247h27q56 0 103.5 -25t76.5 -72.5t29 -112.5q0 -62 -29.5 -112.5t-83.5 -79.5
t-124 -29t-124 27.5z" />
    <glyph glyph-name="four.subs" horiz-adv-x="667" 
d="M442 150h-348v63l338 496h77l-335 -496h273v189h63v-189h64v-63h-64v-165h-68v165z" />
    <glyph glyph-name="five.subs" horiz-adv-x="667" 
d="M210 -2.5q-54 27.5 -83.5 76.5t-29.5 110h72q0 -39 20 -74t57.5 -56t87.5 -21q45 0 82.5 20t60 55.5t22.5 81.5q0 66 -41 110.5t-115 44.5h-219l33 364h384v-62h-320l-25 -239h164q59 0 107 -25t76 -74t28 -118q0 -62 -29.5 -112.5t-83.5 -79.5t-124 -29t-124 27.5z" />
    <glyph glyph-name="six.subs" horiz-adv-x="667" 
d="M214 -4q-54 26 -85.5 76t-31.5 119q0 71 36 128l237 390h79l-205 -329q44 28 107 28q62 0 112 -25.5t79 -74.5t29 -117q0 -69 -31.5 -119t-85.5 -76t-120 -26t-120 26zM452.5 79q46.5 43 46.5 113q0 47 -22.5 82.5t-60 54.5t-82.5 19q-71 0 -118 -43t-47 -114
q0 -47 22.5 -82t60 -54t82.5 -19q72 0 118.5 43z" />
    <glyph glyph-name="seven.subs" horiz-adv-x="667" 
d="M494 647h-331v-98h-66v160h473v-62l-327 -662h-79z" />
    <glyph glyph-name="eight.subs" horiz-adv-x="667" 
d="M208.5 -2.5q-53.5 27.5 -83 75.5t-29.5 108q0 71 34.5 118.5t93.5 66.5q-49 19 -77.5 61t-28.5 103q0 56 26.5 100.5t75.5 69.5t113 25q65 0 113.5 -25t75 -69.5t26.5 -100.5q0 -61 -28 -103t-77 -61q59 -19 93.5 -66.5t34.5 -118.5q0 -60 -29.5 -108t-83.5 -75.5
t-125 -27.5t-124.5 27.5zM440.5 429.5q40.5 34.5 40.5 100.5q0 39 -20 70t-54 48t-74 17q-41 0 -75 -18t-53.5 -49t-19.5 -68q0 -66 40.5 -100.5t107.5 -34.5t107.5 34.5zM415 52q38 19 60.5 53t22.5 76q0 73 -45 111t-120 38t-120 -37.5t-45 -111.5q0 -44 23 -77.5t61 -52
t81 -18.5q44 0 82 19z" />
    <glyph glyph-name="nine.subs" horiz-adv-x="667" 
d="M317 286q-62 0 -112 25.5t-79 74.5t-29 117q0 69 31 119t85 76.5t121 26.5q66 0 120 -26t85.5 -76t31.5 -120q0 -69 -36 -128l-237 -390h-79l205 330q-46 -29 -107 -29zM452 389.5q47 42.5 47 113.5q0 47 -22.5 82.5t-60 54.5t-82.5 19q-71 0 -118 -43t-47 -113
q0 -72 47 -114t118 -42t118 42.5z" />
    <glyph glyph-name="uni00B9" unicode="&#xb9;" horiz-adv-x="667" 
d="M373 1388l-151 -87v77l151 86h72v-724h-72v648z" />
    <glyph glyph-name="uni00B2" unicode="&#xb2;" horiz-adv-x="667" 
d="M385 1072q59 56 86 99.5t27 91.5q0 39 -20 73.5t-57.5 55.5t-86.5 21q-50 0 -87 -21t-57 -55.5t-20 -73.5v-32h-72v32q0 61 29.5 110.5t83 78t123.5 28.5t123.5 -28t83 -77.5t29.5 -111.5t-33 -115.5t-102 -117.5l-239 -228h368v-62h-466v57z" />
    <glyph glyph-name="uni00B3" unicode="&#xb3;" horiz-adv-x="667" 
d="M210 752.5q-54 27.5 -83.5 76.5t-29.5 110h72q0 -39 20 -74t57.5 -56t87.5 -21q45 0 82.5 20t60 55.5t22.5 81.5q0 43 -20.5 78.5t-58 56t-87.5 20.5h-75v55l200 247h-338v62h420v-61l-205 -247h27q56 0 103.5 -25t76.5 -72.5t29 -112.5q0 -62 -29.5 -112.5t-83.5 -79.5
t-124 -29t-124 27.5z" />
    <glyph glyph-name="zero.sups" unicode="&#x2070;" horiz-adv-x="667" 
d="M207 754q-55 29 -85 79t-30 112v315q0 63 30.5 113t85.5 78.5t126 28.5t126 -29t85.5 -79t30.5 -112v-315q0 -62 -30.5 -112.5t-85.5 -79t-126 -28.5q-72 0 -127 29zM424 812.5q39 21.5 59.5 57t20.5 75.5v315q0 41 -21 76t-60 56t-89 21q-52 0 -90.5 -21.5t-59 -56.5
t-20.5 -75v-315q0 -40 20.5 -75.5t59.5 -57t90 -21.5t90 21.5z" />
    <glyph glyph-name="four.sups" unicode="&#x2074;" horiz-adv-x="665" 
d="M442 905h-348v63l338 496h77l-335 -496h273v189h63v-189h64v-63h-64v-165h-68v165z" />
    <glyph glyph-name="five.sups" unicode="&#x2075;" horiz-adv-x="667" 
d="M210 752.5q-54 27.5 -83.5 76.5t-29.5 110h72q0 -39 20 -74t57.5 -56t87.5 -21q45 0 82.5 20t60 55.5t22.5 81.5q0 66 -41 110.5t-115 44.5h-219l33 364h384v-62h-320l-25 -239h164q59 0 107 -25t76 -74t28 -118q0 -62 -29.5 -112.5t-83.5 -79.5t-124 -29t-124 27.5z" />
    <glyph glyph-name="six.sups" unicode="&#x2076;" horiz-adv-x="667" 
d="M214 751q-54 26 -85.5 76t-31.5 119q0 71 36 128l237 390h79l-205 -329q44 28 107 28q62 0 112 -25.5t79 -74.5t29 -117q0 -69 -31.5 -119t-85.5 -76t-120 -26t-120 26zM452.5 834q46.5 43 46.5 113q0 47 -22.5 82.5t-60 54.5t-82.5 19q-71 0 -118 -43t-47 -114
q0 -47 22.5 -82t60 -54t82.5 -19q72 0 118.5 43z" />
    <glyph glyph-name="seven.sups" unicode="&#x2077;" horiz-adv-x="667" 
d="M494 1402h-331v-98h-66v160h473v-62l-327 -662h-79z" />
    <glyph glyph-name="eight.sups" unicode="&#x2078;" horiz-adv-x="667" 
d="M208.5 752.5q-53.5 27.5 -83 75.5t-29.5 108q0 71 34.5 118.5t93.5 66.5q-49 19 -77.5 61t-28.5 103q0 56 26.5 100.5t75.5 69.5t113 25q65 0 113.5 -25t75 -69.5t26.5 -100.5q0 -61 -28 -103t-77 -61q59 -19 93.5 -66.5t34.5 -118.5q0 -60 -29.5 -108t-83.5 -75.5
t-125 -27.5t-124.5 27.5zM440.5 1184.5q40.5 34.5 40.5 100.5q0 39 -20 70t-54 48t-74 17q-41 0 -75 -18t-53.5 -49t-19.5 -68q0 -66 40.5 -100.5t107.5 -34.5t107.5 34.5zM415 807q38 19 60.5 53t22.5 76q0 73 -45 111t-120 38t-120 -37.5t-45 -111.5q0 -44 23 -77.5
t61 -52t81 -18.5q44 0 82 19z" />
    <glyph glyph-name="nine.sups" unicode="&#x2079;" horiz-adv-x="667" 
d="M317 1041q-62 0 -112 25.5t-79 74.5t-29 117q0 69 31 119t85 76.5t121 26.5q66 0 120 -26t85.5 -76t31.5 -120q0 -69 -36 -128l-237 -390h-79l205 330q-46 -29 -107 -29zM452 1144.5q47 42.5 47 113.5q0 47 -22.5 82.5t-60 54.5t-82.5 19q-71 0 -118 -43t-47 -113
q0 -72 47 -114t118 -42t118 42.5z" />
    <glyph glyph-name="fraction" unicode="&#x2044;" horiz-adv-x="329" 
d="M563 1480h75l-872 -1510h-75z" />
    <glyph glyph-name="fraction" unicode="&#x2215;" horiz-adv-x="329" 
d="M563 1480h75l-872 -1510h-75z" />
    <glyph glyph-name="onehalf" unicode="&#xbd;" horiz-adv-x="1659" 
d="M1228 1480h75l-872 -1510h-75zM373 1388l-151 -87v77l151 86h72v-724h-72v648zM1378 329q61 60 87 102t26 90q0 39 -20.5 73.5t-57.5 55.5t-86 21q-51 0 -88 -21t-57 -55t-20 -74v-32h-72v32q0 60 29.5 110t83.5 78.5t124 28.5q69 0 123 -28t83.5 -77t29.5 -112
t-33 -115.5t-102 -118.5l-239 -226h368v-64h-467v58z" />
    <glyph glyph-name="uni2153" unicode="&#x2153;" horiz-adv-x="1659" 
d="M1228 1480h75l-872 -1510h-75zM373 1388l-151 -87v77l151 86h72v-724h-72v648zM1203 -1.5q-54 28.5 -83.5 77t-29.5 108.5h72q0 -39 20 -73.5t57.5 -55.5t87.5 -21q45 0 82.5 19.5t60 55t22.5 81.5q0 43 -20.5 78.5t-58 56t-87.5 20.5h-75v55l200 247h-338v63h420v-61
l-205 -247h27q55 0 103 -25t77 -73t29 -112q0 -62 -29.5 -113t-83.5 -80t-124 -29t-124 28.5z" />
    <glyph glyph-name="uni2154" unicode="&#x2154;" horiz-adv-x="1659" 
d="M384 1072q59 56 86 99.5t27 91.5q0 39 -20 73.5t-57.5 55.5t-86.5 21q-50 0 -87 -21t-57 -55.5t-20 -73.5v-32h-72v32q0 61 29.5 110.5t83 78t123.5 28.5t123.5 -28t83 -77.5t29.5 -111.5t-33 -115t-102 -118l-239 -228h368v-62h-466v57zM1228 1480h75l-872 -1510h-75z
M1203 -1.5q-54 28.5 -83.5 77t-29.5 108.5h72q0 -39 20 -73.5t57.5 -55.5t87.5 -21q45 0 82.5 19.5t60 55t22.5 81.5q0 43 -20.5 78.5t-58 56t-87.5 20.5h-75v55l200 247h-338v63h420v-61l-205 -247h27q55 0 103 -25t77 -73t29 -112q0 -62 -29.5 -113t-83.5 -80t-124 -29
t-124 28.5z" />
    <glyph glyph-name="onequarter" unicode="&#xbc;" horiz-adv-x="1659" 
d="M1228 1480h75l-872 -1510h-75zM373 1388l-151 -87v77l151 86h72v-724h-72v648zM1435 166h-347v62l337 497h77l-335 -497h273v190h63v-190h64v-62h-64v-166h-68v166z" />
    <glyph glyph-name="threequarters" unicode="&#xbe;" horiz-adv-x="1659" 
d="M1228 1480h75l-872 -1510h-75zM209 752.5q-54 27.5 -83.5 76.5t-29.5 110h72q0 -39 20 -74t57.5 -56t87.5 -21q45 0 82.5 20t60 55.5t22.5 81.5q0 43 -20.5 78.5t-58 56t-87.5 20.5h-75v55l200 247h-338v62h420v-61l-205 -247h27q56 0 103.5 -25t76.5 -72.5t29 -112.5
q0 -62 -29.5 -112.5t-83.5 -79.5t-124 -29t-124 27.5zM1435 165h-347v63l337 496h77l-335 -496h273v189h63v-189h64v-63h-64v-165h-68v165z" />
    <glyph glyph-name="period" unicode="." horiz-adv-x="345" 
d="M117.5 -7.5q-22.5 22.5 -22.5 57.5q0 34 23 56.5t58 22.5t57.5 -22.5t22.5 -56.5q0 -35 -22 -57.5t-58 -22.5t-58.5 22.5z" />
    <glyph glyph-name="comma" unicode="," horiz-adv-x="360" 
d="M149 105h124l-159 -336h-69z" />
    <glyph glyph-name="colon" unicode=":" horiz-adv-x="359" 
d="M125 906.5q-22 22.5 -22 57.5t22.5 57.5t57.5 22.5q36 0 58.5 -22.5t22.5 -57.5q0 -36 -23 -58t-58 -22q-36 0 -58 22.5zM125.5 -7.5q-22.5 22.5 -22.5 57.5q0 34 22.5 56.5t57.5 22.5q36 0 58.5 -22.5t22.5 -56.5q0 -35 -22.5 -57.5t-58.5 -22.5q-35 0 -57.5 22.5z" />
    <glyph glyph-name="semicolon" unicode=";" horiz-adv-x="381" 
d="M150.5 907q-22.5 23 -22.5 57q0 35 22.5 57.5t57.5 22.5q36 0 58.5 -22.5t22.5 -57.5q0 -36 -23 -58t-58 -22t-57.5 23zM157 105h123l-160 -336h-69z" />
    <glyph glyph-name="semicolon" unicode="&#x37e;" horiz-adv-x="381" 
d="M150.5 907q-22.5 23 -22.5 57q0 35 22.5 57.5t57.5 22.5q36 0 58.5 -22.5t22.5 -57.5q0 -36 -23 -58t-58 -22t-57.5 23zM157 105h123l-160 -336h-69z" />
    <glyph glyph-name="ellipsis" unicode="&#x2026;" horiz-adv-x="2048" 
d="M326.5 -7.5q-22.5 22.5 -22.5 57.5t23 57t58 22t57.5 -22.5t22.5 -56.5q0 -35 -22 -57.5t-58 -22.5t-58.5 22.5zM965.5 -7.5q-22.5 22.5 -22.5 57.5t23 57t58 22t57.5 -22.5t22.5 -56.5q0 -36 -22 -58t-58 -22t-58.5 22.5zM1605 -7.5q-22 22.5 -22 57.5t22.5 57t57.5 22
t57.5 -22.5t22.5 -56.5q0 -36 -22 -58t-58 -22t-58 22.5z" />
    <glyph glyph-name="exclam" unicode="!" horiz-adv-x="520" 
d="M207 1480h98l-12 -1147h-75zM198 -8q-23 22 -23 56t23 56t58 22q36 0 58 -22t22 -56t-22.5 -56t-57.5 -22t-58 22z" />
    <glyph glyph-name="exclamdown" unicode="&#xa1;" horiz-adv-x="520" 
d="M197.5 936.5q-22.5 22.5 -22.5 55.5q0 34 23 56t58 22q36 0 58 -22t22 -56t-22.5 -56t-57.5 -22q-36 0 -58.5 22.5zM219 707h75l11 -1147h-98z" />
    <glyph glyph-name="question" unicode="?" horiz-adv-x="1048" 
d="M450 460q28 59 69 105.5t111 114.5q73 70 117 121t74.5 117t30.5 144q0 86 -44 162t-126.5 122t-191.5 46q-110 0 -192 -46.5t-126 -122.5t-44 -161h-99q0 117 57 212t161.5 150.5t242.5 55.5q139 0 243.5 -55.5t160.5 -150.5t56 -212q0 -98 -36 -177t-86.5 -136
t-132.5 -132q-64 -58 -100.5 -97.5t-61 -86.5t-24.5 -100h-87q0 68 28 127zM408.5 -8q-22.5 22 -22.5 56t22.5 56t57.5 22q36 0 58.5 -22t22.5 -56t-22.5 -56t-58.5 -22q-35 0 -57.5 22z" />
    <glyph glyph-name="questiondown" unicode="&#xbf;" horiz-adv-x="1048" 
d="M455.5 936q-22.5 22 -22.5 56t22.5 56t57.5 22q36 0 58.5 -22t22.5 -56t-22.5 -56t-58.5 -22q-35 0 -57.5 22zM246 -384.5q-105 55.5 -161 150.5t-56 212q0 98 36 177t86 135t133 133q64 58 101 97.5t61.5 86.5t24.5 100h86q0 -68 -28 -127t-68.5 -105.5t-110.5 -114.5
q-73 -70 -117 -121t-74.5 -117t-30.5 -144q0 -86 44 -162t126.5 -122t191.5 -46q110 0 192 46.5t126 122.5t44 161h98q0 -117 -56.5 -212t-161 -150.5t-242.5 -55.5q-139 0 -244 55.5z" />
    <glyph glyph-name="periodcentered" unicode="&#xb7;" horiz-adv-x="348" 
d="M116 462.5q-22 22.5 -22 57.5t22.5 57.5t57.5 22.5t58 -22.5t23 -57.5q0 -36 -23 -58t-58 -22q-36 0 -58 22.5z" />
    <glyph glyph-name="periodcentered" unicode="&#x2219;" horiz-adv-x="348" 
d="M116 462.5q-22 22.5 -22 57.5t22.5 57.5t57.5 22.5t58 -22.5t23 -57.5q0 -36 -23 -58t-58 -22q-36 0 -58 22.5z" />
    <glyph glyph-name="bullet" unicode="&#x2022;" 
d="M578.5 622q-40.5 41 -40.5 103q0 64 41 103.5t104 39.5t104 -40t41 -103t-41 -103.5t-104 -40.5q-64 0 -104.5 41z" />
    <glyph glyph-name="asterisk" unicode="*" horiz-adv-x="656" 
d="M303 1115l-230 -133l-29 50l231 133l-225 143l30 50l223 -142v264h57v-265l231 132l28 -49l-230 -134l224 -143l-29 -50l-224 143v-265h-57v266z" />
    <glyph glyph-name="numbersign" unicode="#" 
d="M376 424h-162v79h181l100 443h-281v80h300l103 454h82l-104 -454h332l104 454h82l-103 -454h148v-80h-167l-100 -443h267v-79h-286l-103 -454h-83l104 454h-332l-102 -454h-83zM808 503l101 443h-332l-99 -443h330z" />
    <glyph glyph-name="slash" unicode="/" horiz-adv-x="763" 
d="M728 1480h72l-705 -1510h-72z" />
    <glyph glyph-name="backslash" unicode="\" horiz-adv-x="763" 
d="M-36 1480h72l704 -1510h-71z" />
    <glyph glyph-name="parenleft" unicode="(" horiz-adv-x="698" 
d="M329 -302.5q-47 85.5 -47 186.5v1300q0 101 47 187t135 138l44 -58q-70 -44 -107.5 -113t-38.5 -147v-1314q1 -77 38.5 -146.5t107.5 -113.5l-44 -57q-88 52 -135 137.5z" />
    <glyph glyph-name="parenright" unicode=")" horiz-adv-x="699" 
d="M276.5 -269.5q37.5 69.5 38.5 146.5v1314q-1 77 -39 146.5t-107 113.5l45 58q86 -53 133.5 -138.5t47.5 -186.5v-1300q0 -100 -47 -185.5t-134 -138.5l-45 57q70 44 107.5 113.5z" />
    <glyph glyph-name="braceleft" unicode="{" horiz-adv-x="730" 
d="M395.5 -408q-34.5 33 -34.5 82v758q0 27 -15 45.5t-40 18.5h-24v77h24q26 0 40.5 18t14.5 45v758q0 49 35 82t85 33h59v-78h-56q-19 0 -30.5 -12t-11.5 -31v-754q0 -37 -15 -63t-44 -36q29 -11 44 -37t15 -63v-755q0 -19 11.5 -31t30.5 -12h56v-78h-59q-51 0 -85.5 33z
" />
    <glyph glyph-name="braceright" unicode="}" horiz-adv-x="731" 
d="M224 -363q19 0 31 12t12 31v755q0 37 14.5 63t43.5 37q-28 10 -43 36t-15 63v754q0 19 -12 31t-31 12h-55v78h58q51 0 86 -33.5t35 -81.5v-758q0 -28 14 -45.5t40 -17.5h25v-77h-25q-26 0 -40 -18t-14 -46v-758q0 -49 -35 -82t-86 -33h-58v78h55z" />
    <glyph glyph-name="bracketleft" unicode="[" horiz-adv-x="707" 
d="M282 1509h235v-78h-154v-1794h154v-78h-235v1950z" />
    <glyph glyph-name="bracketright" unicode="]" horiz-adv-x="708" 
d="M170 -363h154v1794h-154v78h235v-1950h-235v78z" />
    <glyph glyph-name="hyphen" unicode="-" horiz-adv-x="436" 
d="M-6 547h446v-81h-446v81z" />
    <glyph glyph-name="hyphen" unicode="&#xad;" horiz-adv-x="436" 
d="M-6 547h446v-81h-446v81z" />
    <glyph glyph-name="endash" unicode="&#x2013;" 
d="M219 561h930v-81h-930v81z" />
    <glyph glyph-name="emdash" unicode="&#x2014;" horiz-adv-x="1859" 
d="M0 561h1859v-81h-1859v81z" />
    <glyph glyph-name="figuredash" unicode="&#x2012;" 
d="M218 766h930v-82h-930v82z" />
    <glyph glyph-name="underscore" unicode="_" 
d="M-6 -380h1379v-61h-1379v61z" />
    <glyph glyph-name="uni2010" unicode="&#x2010;" horiz-adv-x="436" 
d="M-6 547h446v-81h-446v81z" />
    <glyph glyph-name="uni2011" unicode="&#x2011;" horiz-adv-x="436" 
d="M-6 547h446v-81h-446v81z" />
    <glyph glyph-name="quotesinglbase" unicode="&#x201a;" horiz-adv-x="233" 
d="M85 104h124l-160 -335h-69z" />
    <glyph glyph-name="quotedblbase" unicode="&#x201e;" horiz-adv-x="515" 
d="M85 94h124l-160 -335h-69zM367 94h124l-160 -335h-69z" />
    <glyph glyph-name="quotedblleft" unicode="&#x201c;" horiz-adv-x="487" 
d="M184 1449h69l-105 -334h-124zM438 1449h69l-105 -334h-123z" />
    <glyph glyph-name="quotedblright" unicode="&#x201d;" horiz-adv-x="515" 
d="M85 1449h124l-160 -334h-69zM367 1449h124l-160 -334h-69z" />
    <glyph glyph-name="quoteleft" unicode="&#x2018;" horiz-adv-x="233" 
d="M184 1449h69l-105 -334h-124z" />
    <glyph glyph-name="quoteright" unicode="&#x2019;" horiz-adv-x="233" 
d="M85 1449h124l-160 -334h-69z" />
    <glyph glyph-name="guillemotleft" unicode="&#xab;" horiz-adv-x="924" 
d="M94 506l282 489h88l-283 -489l283 -489h-88zM461 506l282 489h88l-283 -489l283 -489h-88z" />
    <glyph glyph-name="guillemotright" unicode="&#xbb;" horiz-adv-x="924" 
d="M376 506l-282 489h87l283 -489l-283 -489h-87zM743 506l-282 489h87l283 -489l-283 -489h-87z" />
    <glyph glyph-name="guilsinglleft" unicode="&#x2039;" horiz-adv-x="557" 
d="M94 506l282 489h88l-283 -489l283 -489h-88z" />
    <glyph glyph-name="guilsinglright" unicode="&#x203a;" horiz-adv-x="557" 
d="M376 506l-282 489h87l283 -489l-283 -489h-87z" />
    <glyph glyph-name="quotedbl" unicode="&#x22;" horiz-adv-x="375" 
d="M70 1480h64v-417h-64v417zM255 1480h64v-417h-64v417z" />
    <glyph glyph-name="quotesingle" unicode="'" horiz-adv-x="188" 
d="M70 1480h64v-417h-64v417z" />
    <glyph glyph-name="Euro" unicode="&#x20ac;" 
d="M739.5 31q-147.5 62 -253 183.5t-148.5 295.5h-187l18 67h156q-12 75 -12 148t12 148h-174l18 67h169q42 171 146.5 292.5t252.5 184.5t320 63q51 0 107 -7t104 -19l-22 -82q-79 22 -189 22q-146 0 -272.5 -51.5t-217.5 -154t-129 -248.5h692l-18 -67h-695
q-13 -80 -13 -148q0 -70 13 -148h616l-18 -67h-577q38 -144 127.5 -246.5t216.5 -155.5t275 -53q105 0 189 24l22 -84q-48 -12 -104 -19t-107 -7q-170 0 -317.5 62z" />
    <glyph glyph-name="uni20B9" unicode="&#x20b9;" 
d="M196 626v81h311q112 0 198 36t136 106.5t54 170.5h-716l18 68h700q-11 146 -108 220.5t-280 74.5h-330l18 68h991l-18 -68h-380q180 -75 192 -295h206l-18 -68h-185q-4 -175 -109 -271t-280 -113l434 -636h-112l-420 626h-302z" />
    <glyph glyph-name="uni20BA" unicode="&#x20ba;" 
d="M123 602v70l252 68v305l-252 -67v70l252 68v335h92v-311l582 156v-69l-582 -157v-306l582 156v-70l-582 -156v-607h106q192 0 321.5 67.5t193 189t64.5 283.5h91q0 -187 -73 -327.5t-222 -219t-370 -78.5h-203v667z" />
    <glyph glyph-name="cent" unicode="&#xa2;" 
d="M416.5 51.5q-112.5 72.5 -173 191.5t-60.5 263q0 153 64.5 271.5t177.5 187.5t254 76v205h64v-204q150 -8 261 -84t171 -200l-83 -30q-55 108 -151 169t-229 61q-132 0 -232 -59.5t-154.5 -162.5t-54.5 -230q0 -134 57.5 -237t158 -159t225.5 -56q135 0 236 62.5
t154 168.5l83 -30q-59 -123 -174 -199.5t-268 -85.5v-204h-64v205q-150 8 -262.5 80.5z" />
    <glyph glyph-name="currency" unicode="&#xa4;" 
d="M415 483q-36 44 -55 100.5t-19 120.5q0 63 18.5 119.5t55.5 101.5l-161 161l47 47l161 -161q44 38 101.5 58t120.5 20t119.5 -20t100.5 -58l161 161l49 -47l-162 -161q37 -45 55.5 -101.5t18.5 -119.5q0 -64 -19 -120.5t-55 -100.5l162 -162l-49 -47l-161 161
q-44 -38 -100.5 -58t-119.5 -20t-120.5 20t-101.5 58l-161 -161l-47 47zM822.5 467q60.5 36 93.5 98.5t33 138.5q0 81 -35 142.5t-95.5 95.5t-134.5 34q-80 0 -140.5 -36t-92.5 -98t-32 -138q0 -81 34.5 -143t95 -96t135.5 -34q78 0 138.5 36z" />
    <glyph glyph-name="dollar" unicode="$" 
d="M354.5 78.5q-111.5 94.5 -144.5 265.5h94q33 -135 129.5 -212t233.5 -77q101 0 183 37.5t130 110.5t48 175q0 103 -41.5 164.5t-120.5 96.5t-217 69q-147 36 -233 76t-132 110.5t-46 187.5q0 112 52 200.5t143 140t206 56.5v143h64v-144q162 -13 271 -108.5t138 -261.5
h-93q-31 138 -122 213t-232 75q-99 0 -173.5 -41.5t-114.5 -113t-40 -157.5q0 -90 38.5 -144t112 -86t204.5 -63q156 -38 247 -81t140.5 -121t49.5 -209q0 -121 -56 -211t-153 -140t-217 -57v-143h-64v143q-173 12 -284.5 106.5z" />
    <glyph glyph-name="florin" unicode="&#x192;" horiz-adv-x="699" 
d="M77 -331q58 0 101.5 25.5t67.5 69.5t24 99v1071h-187v79h187v164q0 82 35 143.5t97 95t141 33.5h67v-79h-57q-57 0 -101 -25.5t-68 -69.5t-24 -98v-164h250v-79h-250v-1071q0 -83 -35 -144.5t-97 -95t-141 -33.5h-67v79h57z" />
    <glyph glyph-name="sterling" unicode="&#xa3;" 
d="M401 82v593h-195v67h195v369q0 101 45.5 185t129 134t194.5 50q110 0 194 -49t129.5 -133.5t46.5 -186.5h-92q0 77 -37 142t-100.5 103.5t-140.5 38.5q-80 0 -143.5 -40t-99 -105.5t-35.5 -138.5l-3 -369h478v-67h-478l-2 -593h674v-82h-955v82h195z" />
    <glyph glyph-name="yen" unicode="&#xa5;" 
d="M638 373h-412v67l412 1v257l-25 39h-387v67h347l-412 645h114l408 -659l409 659h114l-412 -645h346v-67h-387l-24 -39v-258h411v-67h-411v-373h-91v373z" />
    <glyph glyph-name="equivalence" unicode="&#x2261;" 
d="M299 1062h690v-77h-690v77zM299 764h690v-78h-690v78zM299 464h690v-78h-690v78z" />
    <glyph glyph-name="plus" unicode="+" 
d="M638 686h-407v78h407v405h80v-405h406v-78h-406v-406h-80v406z" />
    <glyph glyph-name="minus" unicode="&#x2212;" 
d="M299 764h690v-78h-690v78z" />
    <glyph glyph-name="multiply" unicode="&#xd7;" 
d="M341 437l287 288l-287 287l56 55l286 -287l287 286l56 -54l-287 -287l287 -288l-55 -54l-287 287l-287 -287z" />
    <glyph glyph-name="divide" unicode="&#xf7;" 
d="M628.5 973.5q-21.5 21.5 -21.5 53.5q0 33 21.5 54t54.5 21q34 0 54.5 -21t20.5 -54t-21.5 -54t-53.5 -21q-33 0 -54.5 21.5zM236 763h893v-77h-893v77zM628.5 368.5q-21.5 21.5 -21.5 53.5q0 33 21.5 54t54.5 21t54 -21.5t21 -53.5q0 -33 -21 -54t-54 -21t-54.5 21.5z
" />
    <glyph glyph-name="equal" unicode="=" 
d="M225 921h893v-78h-893v78zM225 565h893v-78h-893v78z" />
    <glyph glyph-name="notequal" unicode="&#x2260;" 
d="M582 470h-375v78h396l96 358h-492v78h513l133 496h62l-132 -496h375v-78h-397l-96 -358h493v-78h-514l-133 -501h-63z" />
    <glyph glyph-name="greater" unicode="&#x3e;" 
d="M195 343l922 361l-922 361v83l1034 -407v-74l-1034 -408v84z" />
    <glyph glyph-name="less" unicode="&#x3c;" 
d="M121 667v74l1034 407v-83l-923 -361l923 -361v-84z" />
    <glyph glyph-name="greaterequal" unicode="&#x2265;" 
d="M227 362l923 362l-923 360v83l1034 -407v-73l-1034 -407v82zM227 73h1034v-73h-1034v73z" />
    <glyph glyph-name="lessequal" unicode="&#x2264;" 
d="M105 687v73l1034 407v-83l-923 -360l923 -362v-82zM105 73h1034v-73h-1034v73z" />
    <glyph glyph-name="plusminus" unicode="&#xb1;" 
d="M642 686h-406v77h406v406h81v-406h406v-77h-406v-392h-81v392zM236 78h893v-78h-893v78z" />
    <glyph glyph-name="approxequal" unicode="&#x2248;" 
d="M817.5 833.5q-57.5 11.5 -148.5 33.5q-88 21 -135.5 30.5t-83.5 9.5q-63 0 -102 -7t-69 -21t-76 -43v78q47 34 105.5 51t139.5 17q40 0 96.5 -11t139.5 -32q89 -21 141.5 -31.5t91.5 -10.5q62 0 100 6.5t67 20.5t80 45v-79q-48 -34 -106 -51t-139 -17q-44 0 -101.5 11.5z
M817.5 478.5q-57.5 11.5 -148.5 33.5q-88 21 -135.5 30.5t-83.5 9.5q-62 0 -101.5 -7t-69 -21t-76.5 -44v78q48 36 105.5 53t139.5 17q40 0 93 -10.5t147 -32.5q89 -22 140 -32t89 -10q63 0 101 6.5t68 20.5t78 44v-80q-48 -34 -105.5 -50.5t-139.5 -16.5q-44 0 -101.5 11.5
z" />
    <glyph glyph-name="asciitilde" unicode="~" 
d="M764 624.5q-36 12.5 -95 44.5q-51 28 -82 39t-64 11q-45 0 -83.5 -23.5t-59.5 -60.5l-54 47q32 53 83 83t115 30q43 0 81.5 -13t91.5 -43q51 -28 82 -39.5t65 -11.5q44 0 82.5 23.5t60.5 60.5l53 -46q-32 -53 -83 -83.5t-114 -30.5q-43 0 -79 12.5z" />
    <glyph glyph-name="logicalnot" unicode="&#xac;" 
d="M1159 853h-1032v79h1113v-415h-81v336z" />
    <glyph glyph-name="asciicircum" unicode="^" 
d="M641 1480h84l410 -776h-90l-362 691l-361 -691h-90z" />
    <glyph glyph-name="infinity" unicode="&#x221e;" horiz-adv-x="1535" 
d="M991.5 430.5q-58.5 29.5 -104 71.5t-109.5 112l-61 65q-43 -45 -62 -67q-53 -59 -89 -91t-84.5 -53t-113.5 -21q-75 0 -137.5 37.5t-99.5 101.5t-37 140q0 75 36.5 138.5t99.5 101t138 37.5q65 0 113.5 -20.5t83.5 -52t88 -88.5q40 -44 64 -68q21 20 65 68
q64 68 109 108.5t102.5 69t124.5 28.5q88 0 162.5 -43.5t118 -117t43.5 -161.5q0 -89 -43.5 -163.5t-118 -118t-162.5 -43.5q-68 0 -126.5 29.5zM1246 508.5q58 33.5 91.5 91.5t33.5 126q0 69 -33.5 127t-91.5 91.5t-126 33.5q-55 0 -106 -27t-92.5 -65t-97.5 -99
q-60 -63 -58 -61q29 -29 57 -60q58 -62 99 -100t92 -64.5t106 -26.5q68 0 126 33.5zM459.5 539q41.5 19 72.5 47t78 79l26.5 29t31.5 32l-59 62q-46 50 -77.5 78.5t-72.5 47.5t-94 19q-55 0 -101 -28t-73 -76t-27 -103t27 -102.5t73 -75.5t101 -28q53 0 94.5 19z" />
    <glyph glyph-name="integral" unicode="&#x222b;" horiz-adv-x="778" 
d="M151 -358q58 0 101.5 25.5t67.5 69.5t24 99v1368q0 82 35 143.5t97 95t141 33.5h68v-79h-58q-57 0 -101 -25.5t-68 -69.5t-24 -98v-1368q0 -83 -35 -144.5t-97 -95t-141 -33.5h-67v79h57z" />
    <glyph glyph-name="uni2206" unicode="&#x2206;" horiz-adv-x="1446" 
d="M724 1480l630 -1480h-1260zM1225 80l-501 1211l-502 -1211h1003z" />
    <glyph glyph-name="product" unicode="&#x220f;" horiz-adv-x="1533" 
d="M94 1480h1346v-1920h-88v1837h-1171v-1837h-87v1920z" />
    <glyph glyph-name="summation" unicode="&#x2211;" horiz-adv-x="1444" 
d="M795 537l-701 943h1257v-83h-1093l649 -860l-654 -897h1098v-80h-1256z" />
    <glyph glyph-name="radical" unicode="&#x221a;" horiz-adv-x="1385" 
d="M433 981l-319 -85l-20 79l391 105l276 -867l448 1677h82l-505 -1890h-38z" />
    <glyph glyph-name="uni00B5" unicode="&#xb5;" horiz-adv-x="1071" 
d="M185 1013v-627q0 -91 42.5 -166.5t118.5 -120t170 -44.5q105 0 189.5 51t133 136.5t48.5 182.5v588h90v-1013h-70l-6 235q-31 -77 -89 -137.5t-135.5 -94.5t-162.5 -34q-117 0 -204 54.5t-131 166.5v-600h-85v1423h91z" />
    <glyph glyph-name="partialdiff" unicode="&#x2202;" horiz-adv-x="1271" 
d="M293 21.5q-97 52.5 -148 146.5t-51 216q0 157 68 289t194 210t291 78q115 0 235.5 -45t202.5 -119q3 25 3 78q0 138 -52 257t-157 192t-257 73q-126 0 -236 -57l-32 77q128 63 279 63q178 0 300.5 -79t183 -217t60.5 -314q0 -232 -68 -437t-214.5 -334.5t-369.5 -129.5
q-135 0 -232 52.5zM823 142q115 92 175 239.5t76 324.5q-81 82 -201.5 128.5t-236.5 46.5q-138 0 -240.5 -66.5t-157 -178.5t-54.5 -245q0 -98 39 -175t118.5 -121.5t195.5 -44.5q171 0 286 92z" />
    <glyph glyph-name="percent" unicode="%" horiz-adv-x="1828" 
d="M264.5 774.5q-84.5 49.5 -131 135.5t-46.5 192q0 112 49 198t134 133t190 47q111 0 196 -49.5t131.5 -136t46.5 -192.5q0 -111 -49 -197t-134 -133t-191 -47q-111 0 -195.5 49.5zM1301 1480h75l-872 -1510h-75zM615.5 840q67.5 40 104 108.5t36.5 153.5q0 91 -39 159.5
t-106.5 106t-150.5 37.5q-88 0 -155.5 -39.5t-104 -108.5t-36.5 -155q0 -90 39 -158.5t106.5 -106t150.5 -37.5q88 0 155.5 40zM1149 19.5q-85 49.5 -131 135.5t-46 192q0 112 49 198t134 133t190 47q111 0 196 -49.5t131.5 -136t46.5 -192.5q0 -113 -49 -198.5t-134.5 -132
t-190.5 -46.5q-111 0 -196 49.5zM1500.5 84q67.5 40 104 109t36.5 154q0 90 -39 159t-106.5 106.5t-150.5 37.5q-88 0 -155 -40t-103.5 -109t-36.5 -154q0 -90 39 -159t106 -106.5t150 -37.5q88 0 155.5 40z" />
    <glyph glyph-name="perthousand" unicode="&#x2030;" horiz-adv-x="2746" 
d="M264.5 774.5q-84.5 49.5 -131 135.5t-46.5 192q0 112 49 198t134 133t190 47q111 0 196 -49.5t131.5 -136t46.5 -192.5q0 -111 -49 -197t-134 -133t-191 -47q-111 0 -195.5 49.5zM1301 1480h75l-872 -1510h-75zM615.5 840q67.5 40 104 108.5t36.5 153.5q0 91 -39 159.5
t-106.5 106t-150.5 37.5q-88 0 -155.5 -39.5t-104 -108.5t-36.5 -155q0 -90 39 -158.5t106.5 -106t150.5 -37.5q88 0 155.5 40zM1149 19.5q-85 49.5 -131 135.5t-46 192q0 112 49 198t134.5 133t190.5 47q111 0 195.5 -49.5t131 -136t46.5 -192.5q0 -113 -49 -198.5
t-134 -132t-190 -46.5q-112 0 -197 49.5zM2067 19.5q-85 49.5 -131 135.5t-46 192q0 112 49 198t134 133t190 47q111 0 196 -49.5t131 -136t46 -192.5q0 -113 -49 -198.5t-134 -132t-190 -46.5q-111 0 -196 49.5zM1501 84q67 40 103.5 109t36.5 154q0 90 -39 159t-106 106.5
t-150 37.5q-89 0 -156 -40t-103.5 -109t-36.5 -154q0 -90 39 -159t106.5 -106.5t150.5 -37.5q88 0 155 40zM2418.5 84q67.5 40 104 109t36.5 154q0 90 -39 159t-106.5 106.5t-150.5 37.5q-88 0 -155 -40t-103.5 -109t-36.5 -154q0 -90 39 -159t106 -106.5t150 -37.5
q88 0 155.5 40z" />
    <glyph glyph-name="lozenge" unicode="&#x25ca;" horiz-adv-x="975" 
d="M94 725l350 755h88l349 -755l-349 -756h-88zM798 725l-310 683l-310 -683l310 -683z" />
    <glyph glyph-name="at" unicode="@" horiz-adv-x="1802" 
d="M558.5 -368q-143.5 69 -221.5 188.5t-78 268.5v866q0 156 82 275t226 184.5t326 65.5q187 0 330.5 -67t223 -186.5t79.5 -271.5v-955h-50l-18 210q-51 -111 -155.5 -176t-242.5 -65q-135 0 -237.5 61t-158.5 167t-56 237q0 139 59 245t162.5 163.5t230.5 57.5
q138 0 239 -66.5t150 -169.5v291q0 134 -73 237t-200 159t-283 56q-166 0 -292.5 -59t-195 -162t-68.5 -231v-866q0 -134 72.5 -237t199 -159.5t284.5 -56.5h555v-73h-555q-191 0 -334.5 69zM1267.5 96q86.5 51 133.5 140t47 198q0 116 -50 204.5t-136.5 136.5t-193.5 48
q-113 0 -199.5 -50.5t-133.5 -139.5t-47 -199q0 -115 50 -203.5t137 -137t193 -48.5q113 0 199.5 51z" />
    <glyph glyph-name="ampersand" unicode="&#x26;" horiz-adv-x="1392" 
d="M312.5 25q-94.5 55 -146.5 146t-52 196q0 100 47 186t131 143l204 139l-131 153q-73 85 -73 192q0 85 43 153.5t115.5 107.5t158.5 39q91 0 164 -41.5t113.5 -110.5t40.5 -148q0 -74 -36 -138t-97 -106l-169 -115l346 -402l236 323h108l-286 -388l308 -354h-116l-248 288
q-87 -123 -144 -186t-128.5 -97.5t-172.5 -34.5q-121 0 -215.5 55zM809.5 1077.5q25.5 48.5 25.5 102.5q0 62 -31.5 112.5t-83.5 79.5t-111 29q-64 0 -116 -30.5t-81 -81.5t-29 -109q0 -80 53 -142l133 -155l170 116q45 30 70.5 78.5zM677.5 89q59.5 32 105 86.5
t131.5 177.5l-361 420l-205 -140q-65 -45 -102 -113.5t-37 -146.5q0 -89 45 -161.5t119 -113.5t158 -41q87 0 146.5 32z" />
    <glyph glyph-name="paragraph" unicode="&#xb6;" horiz-adv-x="915" 
d="M252 876.5q-74 45.5 -116 120t-42 159.5q0 92 45.5 166t120 116t158.5 42h403v-1921h-64v1860h-275v-1860h-64v1272q-92 0 -166 45.5z" />
    <glyph glyph-name="section" unicode="&#xa7;" 
d="M367 -349q-126 92 -165 280h91q35 -140 137.5 -215t259.5 -75q112 0 195.5 42t128 114t44.5 159q0 88 -42 141.5t-123.5 85.5t-224.5 62q-171 36 -272.5 79.5t-156 122t-54.5 209.5q0 138 82 240q-53 76 -53 187q0 117 59 207t164 140t239 50q191 0 321 -94.5t166 -277.5
h-90q-35 139 -137 214.5t-260 75.5q-112 0 -195.5 -42t-128 -114t-44.5 -159q0 -88 42 -141.5t123.5 -85.5t224.5 -62q171 -36 272.5 -79.5t156 -121.5t54.5 -209q0 -141 -82 -241q53 -76 53 -187q0 -117 -58.5 -207t-163.5 -140t-240 -50q-197 0 -323 92zM1085 384
q0 100 -45 160.5t-129.5 95.5t-229.5 67q-140 31 -214.5 58t-124.5 74q-61 -79 -61 -183q0 -100 44.5 -160t128.5 -95.5t231 -68.5q138 -30 213 -57.5t126 -74.5q61 79 61 184z" />
    <glyph glyph-name="copyright" unicode="&#xa9;" horiz-adv-x="1812" 
d="M512.5 73.5q-173.5 104.5 -271.5 279t-98 372.5q0 214 105 386.5t279 270.5t372 98q214 0 387 -105t270.5 -279t97.5 -371q0 -215 -105 -388t-278.5 -270.5t-371.5 -97.5q-213 0 -386.5 104.5zM1252.5 130.5q157.5 95.5 246.5 254.5t89 340q0 196 -96 353.5t-254.5 246.5
t-338.5 89q-196 0 -353.5 -96t-246.5 -254.5t-89 -338.5q0 -196 96 -354t254.5 -247t338.5 -89q196 0 353.5 95.5zM736 357.5q-76 33.5 -122 97.5t-46 151v237q0 86 46 150t122.5 98t165.5 34q132 0 220 -56.5t108 -171.5h-59q-21 88 -94 130t-175 42q-69 0 -132 -27
t-102.5 -78.5t-39.5 -120.5v-237q0 -69 39.5 -120t102.5 -78t132 -27q108 0 181 44t88 138h58q-13 -120 -101 -179.5t-226 -59.5q-90 0 -166 33.5z" />
    <glyph glyph-name="registered" unicode="&#xae;" horiz-adv-x="1697" 
d="M462.5 73.5q-172.5 104.5 -270.5 278.5t-98 373q0 214 105 387t279 270.5t371 97.5q214 0 387 -105t270.5 -279t97.5 -371q0 -215 -105 -388t-278.5 -270.5t-371.5 -97.5q-214 0 -386.5 104.5zM1202.5 130.5q157.5 95.5 246.5 254.5t89 340q0 196 -96 353.5t-254.5 246.5
t-338.5 89q-196 0 -353.5 -96t-246.5 -254.5t-89 -338.5q0 -197 95.5 -354.5t254 -246.5t339.5 -89q196 0 353.5 95.5zM934 1110q121 0 187 -55t66 -167q0 -95 -53.5 -149t-146.5 -66l211 -334h-72l-203 328h-290v-328h-60v771h361zM1071.5 764q54.5 42 54.5 124
q0 166 -195 166h-298v-332h298q86 0 140.5 42z" />
    <glyph glyph-name="trademark" unicode="&#x2122;" horiz-adv-x="1641" 
d="M354 1388h-260v61h587v-61h-260v-663h-67v663zM865 1449h76l237 -560l29 -75l28 75l236 560h77v-724h-66v493l5 111l-260 -604h-41l-261 604l6 -111v-493h-66v724z" />
    <glyph glyph-name="degree" unicode="&#xb0;" horiz-adv-x="678" 
d="M214 1023q-56 34 -88 90.5t-32 120.5q0 69 34 125.5t91 88.5t121 32q69 0 125 -34t87.5 -91t31.5 -121q0 -67 -33 -123.5t-89 -89t-122 -32.5q-70 0 -126 34zM431 1079.5q41 24.5 64 66t23 88.5q0 49 -23.5 90.5t-64.5 65.5t-90 24t-90.5 -24t-65.5 -65.5t-24 -90.5
q0 -51 25 -92t66.5 -64t88.5 -23q50 0 91 24.5z" />
    <glyph glyph-name="bar" unicode="|" 
d="M651 1480h65v-1921h-65v1921z" />
    <glyph glyph-name="brokenbar" unicode="&#xa6;" 
d="M651 1480h65v-828h-65v828zM651 388h65v-829h-65v829z" />
    <glyph glyph-name="dagger" unicode="&#x2020;" 
d="M649 944h-449v69h449v467h67v-467h450v-69h-450v-1385h-67v1385z" />
    <glyph glyph-name="uni2113" unicode="&#x2113;" horiz-adv-x="673" 
d="M272 -9.5q-33 21.5 -48.5 74t-15.5 146.5v402l-91 -68l-23 31l114 85v530q0 145 48.5 217t140.5 72q83 0 131 -70t48 -211q0 -140 -40.5 -238.5t-102.5 -162.5t-159 -136v-451q0 -75 8 -114t28.5 -54.5t59.5 -15.5t84.5 32.5t99.5 94.5l24 -29q-68 -80 -120.5 -118
t-96.5 -38q-56 0 -89 21.5zM409.5 829q54.5 59 90 148t35.5 215q0 63 -16.5 117t-46.5 86t-68 32q-39 0 -68.5 -32.5t-45.5 -86t-16 -116.5v-482q81 60 135.5 119z" />
    <glyph glyph-name="daggerdbl" unicode="&#x2021;" 
d="M649 0h-449v69h449v875h-449v69h449v467h67v-467h450v-69h-450v-875h450v-69h-450v-441h-67v441z" />
    <glyph glyph-name="estimated" unicode="&#x212e;" horiz-adv-x="1722" 
d="M469.5 74q-175.5 105 -275.5 279t-100 372q0 214 106.5 386.5t283 270.5t377.5 98q217 0 392.5 -104.5t275 -278t99.5 -372.5v-30h-1359v-345q94 -150 250.5 -238.5t341.5 -88.5q127 0 242.5 43.5t209 122.5t156.5 185l54 -31q-66 -109 -166 -193.5t-227 -132.5t-269 -48
q-216 0 -391.5 105zM1453 1100q-97 153 -254.5 239.5t-337.5 86.5q-184 0 -340.5 -87.5t-251.5 -238.5v-351h1184v351z" />
    <glyph glyph-name="uni02F7" unicode="&#x2f7;" horiz-adv-x="962" 
d="M542.5 -346q-30.5 13 -74.5 43q-39 26 -64 37t-51 11q-36 0 -65 -22t-46 -59l-47 39q26 50 66.5 79t91.5 29q36 0 66.5 -12.5t74.5 -43.5q41 -27 65 -37.5t51 -10.5q35 0 64 22t46 59l48 -39q-26 -51 -67 -79.5t-92 -28.5q-36 0 -66.5 13z" />
    <glyph glyph-name="uni02BB" unicode="&#x2bb;" horiz-adv-x="362" 
d="M208 1374h60l-73 -234h-99z" />
    <glyph glyph-name="uni02BC" unicode="&#x2bc;" horiz-adv-x="362" 
d="M167 1374h98l-111 -234h-60z" />
    <glyph glyph-name="uni02C9" unicode="&#x2c9;" horiz-adv-x="962" 
d="M195 1370h572v-64h-572v64z" />
    <glyph glyph-name="uni02CA" unicode="&#x2ca;" horiz-adv-x="962" 
d="M319 1203l252 300l71 -38l-276 -293z" />
    <glyph glyph-name="uni02CB" unicode="&#x2cb;" horiz-adv-x="962" 
d="M319 1465l71 38l252 -300l-46 -31z" />
    <glyph glyph-name="uni02CD" unicode="&#x2cd;" horiz-adv-x="962" 
d="M195 -243h572v-64h-572v64z" />
    <glyph glyph-name="uni0308" unicode="&#x308;" horiz-adv-x="0" 
d="M-774 1284.5q-21 21.5 -21 53.5q0 33 21 53.5t54 20.5t54.5 -20.5t21.5 -53.5t-21.5 -54t-54.5 -21t-54 21.5zM-447 1284.5q-21 21.5 -21 53.5q0 33 21 53.5t55 20.5q33 0 54 -21t21 -53q0 -33 -21 -54t-54 -21q-34 0 -55 21.5z" />
    <glyph glyph-name="uni0307" unicode="&#x307;" horiz-adv-x="0" 
d="M-589 1284.5q-21 21.5 -21 53.5q0 33 21 53.5t54 20.5t54.5 -20.5t21.5 -53.5t-21.5 -54t-54.5 -21t-54 21.5z" />
    <glyph glyph-name="gravecomb" unicode="&#x300;" horiz-adv-x="0" 
d="M-700 1465l71 38l252 -300l-46 -31z" />
    <glyph glyph-name="acutecomb" unicode="&#x301;" horiz-adv-x="0" 
d="M-670 1203l252 300l71 -38l-277 -293z" />
    <glyph glyph-name="uni0302" unicode="&#x302;" horiz-adv-x="0" 
d="M-790 1213l235 281h88l236 -281l-47 -31l-232 252l-234 -252z" />
    <glyph glyph-name="uni0306" unicode="&#x306;" horiz-adv-x="0" 
d="M-622.5 1234.5q-64.5 39.5 -101 105t-36.5 140.5h57q0 -62 31 -112t82.5 -78.5t110.5 -28.5q63 0 113.5 30t79.5 80.5t29 108.5h61q0 -80 -39 -145.5t-104 -102.5t-140 -37q-79 0 -143.5 39.5z" />
    <glyph glyph-name="tildecomb" unicode="&#x303;" horiz-adv-x="0" 
d="M-412.5 1265.5q-30.5 12.5 -75.5 43.5q-37 26 -62.5 37t-52.5 11q-35 0 -64 -22t-47 -59l-46 39q25 51 66 79.5t92 28.5q36 0 66.5 -12.5t74.5 -43.5q41 -27 65 -37.5t51 -10.5q35 0 64 22t46 58l47 -38q-25 -50 -66.5 -79t-91.5 -29q-36 0 -66.5 12.5z" />
    <glyph glyph-name="uni0304" unicode="&#x304;" horiz-adv-x="0" 
d="M-740 1370h571v-65h-571v65z" />
    <glyph glyph-name="uni0305" unicode="&#x305;" horiz-adv-x="0" 
d="M1367 1571h1337v-61h-1337v61z" />
    <glyph glyph-name="uni0310" unicode="&#x310;" horiz-adv-x="0" 
d="M-839.5 1501.5q-21.5 21.5 -21.5 53.5q0 33 21 54t55 21q33 0 54.5 -21t21.5 -54t-21.5 -54t-54.5 -21t-54.5 21.5zM-929.5 1234.5q-64.5 39.5 -101 105t-36.5 140.5h57q0 -62 31 -112t82.5 -78.5t110.5 -28.5q63 0 113.5 30t79.5 80.5t29 108.5h61q0 -80 -39 -145.5
t-104 -102.5t-140 -37q-79 0 -143.5 39.5z" />
    <glyph glyph-name="uni0315" unicode="&#x315;" horiz-adv-x="0" 
d="M-238 1449h98l-111 -234h-61z" />
    <glyph glyph-name="dotbelowcomb" unicode="&#x323;" horiz-adv-x="0" 
d="M-537.5 -324.5q-20.5 20.5 -20.5 52.5t20.5 52.5t52.5 20.5q33 0 53.5 -20.5t20.5 -52.5t-21 -52.5t-53 -20.5t-52.5 20.5z" />
    <glyph glyph-name="uni0324" unicode="&#x324;" horiz-adv-x="0" 
d="M-701 -324q-20 20 -20 52q0 31 20.5 51.5t51.5 20.5q32 0 52.5 -20.5t20.5 -51.5q0 -32 -20.5 -52t-52.5 -20t-52 20zM-380.5 -324q-20.5 20 -20.5 52q0 31 20 51.5t53 20.5q32 0 52 -20.5t20 -51.5q0 -32 -20.5 -52t-51.5 -20q-32 0 -52.5 20z" />
    <glyph glyph-name="uni0325" unicode="&#x325;" horiz-adv-x="0" 
d="M-508.5 -414q-42.5 26 -67 69.5t-24.5 92.5q0 52 26 95t69 67.5t92 24.5q53 0 96 -26t67.5 -69t24.5 -92q0 -53 -26 -96t-69.5 -67.5t-92.5 -24.5q-53 0 -95.5 26zM-345 -368.5q31 18.5 48.5 49.5t17.5 67q0 37 -18.5 68t-49 48.5t-66.5 17.5q-37 0 -67.5 -18.5
t-48 -49.5t-17.5 -66q0 -37 18.5 -68t49 -49t65.5 -18q37 0 68 18.5z" />
    <glyph glyph-name="uni0326" unicode="&#x326;" horiz-adv-x="0" 
d="M-458 -215h92l-107 -226h-57z" />
    <glyph glyph-name="dieresis" unicode="&#xa8;" horiz-adv-x="962" 
d="M263 1284.5q-21 21.5 -21 53.5q0 33 21 53.5t54 20.5q34 0 55 -20.5t21 -53.5t-21.5 -54t-54.5 -21t-54 21.5zM590 1284.5q-21 21.5 -21 53.5q0 34 21.5 54t53.5 20q33 0 54.5 -21t21.5 -53q0 -33 -21.5 -54t-54.5 -21t-54 21.5z" />
    <glyph glyph-name="dotaccent" unicode="&#x2d9;" horiz-adv-x="962" 
d="M426.5 1284.5q-21.5 21.5 -21.5 53.5q0 33 21.5 53.5t54.5 20.5q34 0 54.5 -20.5t20.5 -53.5t-21.5 -54t-53.5 -21q-33 0 -54.5 21.5z" />
    <glyph glyph-name="grave" unicode="`" horiz-adv-x="962" 
d="M319 1465l71 38l252 -300l-46 -31z" />
    <glyph glyph-name="acute" unicode="&#xb4;" horiz-adv-x="962" 
d="M319 1203l252 300l71 -38l-276 -293z" />
    <glyph glyph-name="hungarumlaut" unicode="&#x2dd;" horiz-adv-x="962" 
d="M94 1203l252 300l71 -38l-277 -293zM548 1203l251 300l72 -38l-277 -293z" />
    <glyph glyph-name="circumflex" unicode="&#x2c6;" horiz-adv-x="962" 
d="M202 1213l235 281h88l236 -281l-47 -31l-232 252l-234 -252z" />
    <glyph glyph-name="caron" unicode="&#x2c7;" horiz-adv-x="962" 
d="M202 1462l46 32l234 -252l232 252l47 -32l-236 -280h-88z" />
    <glyph glyph-name="breve" unicode="&#x2d8;" horiz-adv-x="962" 
d="M336.5 1234.5q-64.5 39.5 -101 105t-36.5 140.5h57q0 -62 31 -112t83 -78.5t110 -28.5q63 0 114 30t80 80.5t29 108.5h60q0 -80 -39 -145.5t-104 -102.5t-140 -37q-79 0 -143.5 39.5z" />
    <glyph glyph-name="ring" unicode="&#x2da;" horiz-adv-x="962" 
d="M383.5 1152q-43.5 26 -68 70t-24.5 94q0 52 25.5 95t69 68.5t95.5 25.5t96 -25.5t69 -69t25 -94.5q0 -54 -26.5 -97.5t-70 -68t-93.5 -24.5q-54 0 -97.5 26zM549 1199.5q31 18.5 48.5 49.5t17.5 67q0 37 -18.5 68t-49.5 48.5t-66 17.5q-38 0 -68.5 -18.5t-48 -49
t-17.5 -66.5q0 -37 18.5 -68t49.5 -49t66 -18q37 0 68 18.5z" />
    <glyph glyph-name="tilde" unicode="&#x2dc;" horiz-adv-x="962" 
d="M542.5 1266q-30.5 13 -74.5 43q-38 26 -63 37t-52 11q-36 0 -65 -22t-46 -59l-47 39q25 51 66 79.5t92 28.5q36 0 66.5 -12.5t74.5 -43.5q41 -27 65 -37.5t51 -10.5q35 0 64 22t46 58l48 -38q-26 -51 -67 -79.5t-92 -28.5q-36 0 -66.5 13z" />
    <glyph glyph-name="macron" unicode="&#xaf;" horiz-adv-x="962" 
d="M195 1370h572v-64h-572v64z" />
    <glyph glyph-name="cedilla" unicode="&#xb8;" horiz-adv-x="962" 
d="M377 -423q-38 18 -63 49l25 61q17 -33 48 -52.5t70 -19.5q36 0 66 16.5t47 45t17 62.5q0 36 -18 64.5t-48 44.5t-64 16q-22 0 -48 -9l61 145h49l-38 -92q47 -2 85.5 -25.5t60.5 -61.5t22 -83q0 -52 -26 -92.5t-69.5 -63.5t-95.5 -23q-43 0 -81 18z" />
    <glyph glyph-name="ogonek" unicode="&#x2db;" horiz-adv-x="962" 
d="M405.5 -419.5q-43.5 21.5 -68 59.5t-24.5 85q0 35 14.5 69.5t39.5 59.5l139 146h57l-158 -186q-14 -16 -22.5 -39t-8.5 -46q0 -50 38 -82t92 -32q39 0 70.5 20t48.5 52l25 -61q-26 -31 -64 -49t-81 -18q-54 0 -97.5 21.5z" />
    </font>
</defs>
</svg>
